<svg width="22" height="22" viewBox="0 0 22 22" fill="none" xmlns="http://www.w3.org/2000/svg">
<g clip-path="url(#clip0_676_46551)">
<path d="M8.13867 2.32874C9.24633 1.94708 10.4596 2.01566 11.5171 2.51973C12.5747 3.0238 13.3921 3.92302 13.7932 5.02379C14.1943 6.12456 14.147 7.33881 13.6617 8.4051C13.1763 9.47139 12.2916 10.3044 11.198 10.7248L8.13867 2.32874Z" stroke="#F66D6D" stroke-opacity="0.2" stroke-width="2" stroke-linecap="round" stroke-linejoin="round"/>
<path d="M2.32972 12.487C1.94805 11.3794 2.01664 10.1662 2.52071 9.10857C3.02477 8.05099 3.924 7.23365 5.02477 6.83255C6.12553 6.43146 7.33979 6.47868 8.40608 6.96405C9.47237 7.44943 10.3054 8.33413 10.7258 9.42767L2.32972 12.487Z" stroke="#F66D6D" stroke-opacity="0.2" stroke-width="2" stroke-linecap="round" stroke-linejoin="round"/>
<path d="M12.487 18.2965C11.3794 18.6781 10.1662 18.6096 9.10857 18.1055C8.05099 17.6014 7.23365 16.7022 6.83255 15.6014C6.43146 14.5007 6.47868 13.2864 6.96405 12.2201C7.44943 11.1538 8.33413 10.3208 9.42767 9.90039L12.487 18.2965Z" stroke="#F66D6D" stroke-opacity="0.2" stroke-width="2" stroke-linecap="round" stroke-linejoin="round"/>
<path d="M18.2965 8.13867C18.6781 9.24633 18.6096 10.4596 18.1055 11.5171C17.6014 12.5747 16.7022 13.3921 15.6014 13.7932C14.5007 14.1943 13.2864 14.147 12.2201 13.6617C11.1538 13.1763 10.3208 12.2916 9.90039 11.198L18.2965 8.13867Z" stroke="#F66D6D" stroke-opacity="0.2" stroke-width="2" stroke-linecap="round" stroke-linejoin="round"/>
<path d="M14.1367 14.1367L19.25 19.25" stroke="#F66D6D" stroke-opacity="0.2" stroke-width="2" stroke-linecap="round" stroke-linejoin="round"/>
</g>
<defs>
<clipPath id="clip0_676_46551">
<rect width="22" height="22" fill="white"/>
</clipPath>
</defs>
</svg>
