<svg width="16" height="16" viewBox="0 0 16 16" fill="none" xmlns="http://www.w3.org/2000/svg">
<g clip-path="url(#clip0_603_6392)">
<path d="M4.98755 6.23144H1.98755V3.23145" stroke="#0057FF" stroke-linecap="round" stroke-linejoin="round"/>
<path d="M4.1125 11.8875C4.88151 12.6571 5.86151 13.1814 6.92853 13.394C7.99554 13.6066 9.10164 13.4979 10.1069 13.0818C11.1122 12.6656 11.9714 11.9607 12.5759 11.0561C13.1805 10.1515 13.5032 9.08799 13.5032 8C13.5032 6.91202 13.1805 5.84847 12.5759 4.9439C11.9714 4.03933 11.1122 3.33439 10.1069 2.91824C9.10164 2.50209 7.99554 2.39343 6.92853 2.60601C5.86151 2.81859 4.88151 3.34287 4.1125 4.1125L1.9875 6.23125" stroke="#0057FF" stroke-linecap="round" stroke-linejoin="round"/>
</g>
<defs>
<clipPath id="clip0_603_6392">
<rect width="16" height="16" fill="white" transform="matrix(-1 0 0 1 16 0)"/>
</clipPath>
</defs>
</svg>
