<svg width="152" height="42" viewBox="0 0 152 42" fill="none" xmlns="http://www.w3.org/2000/svg">
<path fill-rule="evenodd" clip-rule="evenodd" d="M29.2168 13.6244L36.8803 16.9978V8.3442L29.2168 4.94507V13.6244ZM25.8641 3.45795L18.4401 0.165039L0 8.3442V20.747C0 32.8841 7.89522 38.2802 18.4401 41.835C23.689 40.0656 28.2813 37.8399 31.5702 34.5538C26.4275 35.7547 20.6769 34.9442 15.9124 32.0599C13.8018 31.0293 12.206 29.9412 11.0395 28.7681C9.35995 27.0791 8.1424 24.8031 8.1424 20.747V13.64L18.4401 9.07246L25.8641 12.3654V3.45795ZM28.7379 20.747V16.8073L36.8803 20.3916V20.747C36.8803 24.5344 36.1115 27.6655 34.7332 30.2889C31.0071 32.2494 26.357 32.6987 22.0174 31.5198C23.6177 30.6503 24.876 29.7383 25.8408 28.7681C27.5203 27.0791 28.7379 24.8031 28.7379 20.747Z" fill="url(#paint0_linear_665_42595)"/>
<path d="M29.2168 4.95508L36.8802 8.34426V16.9292L29.2168 13.3658V4.95508Z" fill="#00C5FF"/>
<path d="M63.3421 24.162H70.6281L65.2868 15.384L59.5894 14.7919L63.0134 9H56.2751L46.8799 24.162H53.6181L58.6581 16.2335L63.3421 24.162ZM61.7808 23.3468H55.7547V28.2378H46.8799V33H70.8799V28.2378H61.7808V23.3468Z" fill="#182869"/>
<path d="M95.2487 9H89.2591V11.8159V22.3046H95.2487V17.9645H98.0801V13.4435H95.2487V9ZM87.19 21.6071V9H81.4727V11.3768H77.7974V9H72.0801V12.2035V18.7137C72.0801 19.1012 72.2162 19.3854 72.4885 19.6695L74.0131 21.1938C74.2853 21.4779 74.612 21.6071 75.0204 21.6071H87.19ZM81.4727 15.5102V17.4736H77.7974V15.5102H81.4727ZM78.4235 23.0797C75.1293 23.0797 73.0874 25.1722 73.0874 28.0398C73.0874 30.9074 75.1293 33 78.4235 33H90.5932C94.0235 33 95.9293 30.9333 95.9293 28.0398C95.9293 25.1464 94.0235 23.0797 90.5932 23.0797H78.4235ZM80.1932 28.8665C79.5125 28.8665 79.0769 28.5565 79.0769 28.0398C79.0769 27.5231 79.5125 27.2131 80.1932 27.2131H88.8235C89.5042 27.2131 89.9398 27.5231 89.9398 28.0398C89.9398 28.5565 89.5042 28.8665 88.8235 28.8665H80.1932Z" fill="#182869"/>
<path d="M118.813 17.778H116.573V9H111.507V11.6772V32.9142H116.573V22.4115H118.813V32.9142H123.88V9H118.813V17.778ZM110.707 9H99.8799V12.0633V30.1169C99.8799 30.503 100.013 30.7862 100.28 31.0694L101.773 32.5881C102.04 32.8713 102.36 33 102.76 33H110.44V28.3665H105.08V14.0197H110.707V9Z" fill="#182869"/>
<path d="M148.918 9H143.075V11.8159V21.7879H148.918V17.7061H151.68V13.1852H148.918V9ZM133.7 17.5253L135.878 21.0904H142.092L138.427 15.3294L135.187 14.9677L135.878 13.7793H141.428V9H126.344V13.7793H129.929L125.68 21.0904H131.629L133.7 17.5253ZM132.505 22.563C129.292 22.563 127.3 24.7589 127.3 27.7815C127.3 30.8041 129.292 33 132.505 33H144.376C147.723 33 149.582 30.8299 149.582 27.7815C149.582 24.7331 147.723 22.563 144.376 22.563H132.505ZM134.231 28.6082C133.567 28.6082 133.142 28.2982 133.142 27.7815C133.142 27.2648 133.567 26.9548 134.231 26.9548H142.65C143.314 26.9548 143.739 27.2648 143.739 27.7815C143.739 28.2982 143.314 28.6082 142.65 28.6082H134.231Z" fill="#182869"/>
<defs>
<linearGradient id="paint0_linear_665_42595" x1="0" y1="0.165039" x2="14.6799" y2="43.12" gradientUnits="userSpaceOnUse">
<stop stop-color="#00C0FD"/>
<stop offset="0.46875" stop-color="#0093FD"/>
<stop offset="1" stop-color="#0046CF"/>
</linearGradient>
</defs>
</svg>
