<svg width="35" height="30" viewBox="0 0 35 30" fill="none" xmlns="http://www.w3.org/2000/svg">
<path d="M19.0847 14.4234C19.0847 15.6851 18.7124 16.9184 18.0148 17.9674C17.3173 19.0163 16.3259 19.8337 15.166 20.3162C14.0062 20.7986 12.73 20.9244 11.4991 20.6776C10.2681 20.4309 9.13757 19.8226 8.25058 18.9299C7.3636 18.0371 6.75999 16.8999 6.51614 15.6623C6.27229 14.4246 6.39915 13.1421 6.88068 11.9769C7.3622 10.8117 8.17674 9.81627 9.22124 9.11654C10.2657 8.4168 11.4933 8.04421 12.7485 8.0459C14.4294 8.0493 16.0404 8.72257 17.2282 9.91809C18.4159 11.1136 19.0836 12.7338 19.0847 14.4234Z" fill="#FFD436"/>
<path d="M4.76558 22.833C4.60646 22.8323 4.45386 22.7694 4.34004 22.6577C4.22779 22.5439 4.16479 22.3902 4.16479 22.2299C4.16479 22.0697 4.22779 21.916 4.34004 21.8022L6.65921 19.4711C6.77238 19.3582 6.92533 19.2949 7.08474 19.2949C7.24415 19.2949 7.3971 19.3582 7.51028 19.4711C7.56637 19.5271 7.61089 19.5938 7.64127 19.6672C7.67165 19.7406 7.68729 19.8193 7.68729 19.8988C7.68729 19.9783 7.67165 20.057 7.64127 20.1304C7.61089 20.2038 7.56637 20.2705 7.51028 20.3265L5.19111 22.6577C5.13528 22.7138 5.06891 22.7582 4.99586 22.7883C4.92281 22.8184 4.84453 22.8336 4.76558 22.833Z" fill="#FFD436"/>
<g style="mix-blend-mode:multiply" opacity="0.5">
<path d="M12.6379 29.9407V0.5L22.5018 11.9161L12.6379 29.9407Z" fill="#FFD436"/>
</g>
<path opacity="0.7" d="M6.65066 16.0431C6.65066 16.0431 6.65066 15.9875 6.6081 15.8848C6.56828 15.744 6.53562 15.6013 6.51023 15.4571C6.48745 15.3512 6.4704 15.2441 6.45917 15.1363C6.45917 15.0764 6.45917 15.0165 6.45917 14.9481C6.45917 14.8797 6.45917 14.8198 6.45917 14.7514C6.43386 14.4411 6.43386 14.1292 6.45917 13.8189C6.52352 13.0372 6.73584 12.275 7.0847 11.5733C7.28097 11.1776 7.51771 10.8034 7.79109 10.4569C8.07506 10.0988 8.396 9.77188 8.74854 9.48172C9.10156 9.19066 9.48545 8.93964 9.89323 8.7332C10.2874 8.53423 10.701 8.37656 11.1273 8.26269C11.5181 8.15303 11.9185 8.08141 12.323 8.04883C12.5188 8.04883 12.7103 8.04883 12.8932 8.04883C13.0762 8.04883 13.2507 8.04883 13.4209 8.08305C13.5911 8.11726 13.7528 8.1301 13.906 8.15148C14.0592 8.17287 14.1996 8.21564 14.3316 8.25414C14.5599 8.31979 14.7844 8.39834 15.0039 8.48939L15.2422 8.59632L15.4124 8.69042L15.5571 8.76314L15.4082 8.70325L15.2252 8.63054L14.9784 8.54927C14.7575 8.47279 14.5314 8.41275 14.3018 8.36963C14.0043 8.30728 13.7028 8.26583 13.3996 8.24558C13.2379 8.24558 13.0635 8.24558 12.8805 8.24558C12.6975 8.24558 12.5188 8.24558 12.3315 8.27552C11.9384 8.31432 11.5496 8.38876 11.1698 8.49794C10.7639 8.61376 10.3705 8.76994 9.99536 8.96417C9.61384 9.17081 9.25326 9.41434 8.91876 9.69131C7.94095 10.4917 7.21759 11.5623 6.83789 12.771C6.72713 13.1085 6.64457 13.4547 6.59108 13.8061C6.55056 14.1067 6.52924 14.4095 6.52725 14.7129V14.9096C6.52725 14.9738 6.52725 15.0337 6.52725 15.0935C6.52725 15.1534 6.52725 15.3202 6.55278 15.4143C6.57832 15.5084 6.55278 15.6025 6.58257 15.6753C6.61236 15.748 6.6081 15.8164 6.61661 15.8677L6.65066 16.0431Z" fill="white"/>
<path d="M12.7485 6.78093C12.5905 6.78093 12.439 6.71784 12.3273 6.60554C12.2155 6.49324 12.1528 6.34093 12.1528 6.18211V2.88431C12.1458 2.80113 12.156 2.7174 12.1829 2.63841C12.2098 2.55943 12.2527 2.48691 12.3089 2.42545C12.3651 2.36399 12.4334 2.31492 12.5094 2.28136C12.5854 2.2478 12.6676 2.23047 12.7506 2.23047C12.8337 2.23047 12.9158 2.2478 12.9919 2.28136C13.0679 2.31492 13.1362 2.36399 13.1924 2.42545C13.2486 2.48691 13.2915 2.55943 13.3184 2.63841C13.3452 2.7174 13.3555 2.80113 13.3485 2.88431V6.18211C13.3474 6.34132 13.2837 6.49362 13.1713 6.6058C13.0589 6.71798 12.9069 6.78094 12.7485 6.78093Z" fill="#FFD436"/>
<g style="mix-blend-mode:multiply" opacity="0.5">
<path d="M14.655 1.21289H12.8252V7.5604H14.655V1.21289Z" fill="#FFD436"/>
</g>
<path opacity="0.7" d="M12.1526 6.16869C12.1526 6.16869 12.1526 5.90777 12.1526 5.50999C12.1526 5.1122 12.1526 4.58609 12.1526 4.0557C12.1526 3.79479 12.1526 3.5296 12.1526 3.28151V2.9265C12.1471 2.81493 12.1721 2.70399 12.2249 2.6057C12.2629 2.53293 12.3154 2.4688 12.3791 2.41729C12.4428 2.36578 12.5163 2.32799 12.5952 2.30629C12.639 2.30155 12.6832 2.30155 12.7271 2.30629C12.6833 2.31272 12.6405 2.3242 12.5994 2.34051C12.5355 2.36172 12.4763 2.39512 12.4249 2.43888C12.3581 2.49426 12.3031 2.56264 12.2632 2.63992C12.2189 2.7333 12.197 2.83587 12.1994 2.93933V3.29434C12.1994 3.54243 12.1994 3.80762 12.1994 4.06854C12.1994 4.59892 12.1994 5.12503 12.1994 5.52282C12.1994 5.92061 12.1526 6.16869 12.1526 6.16869Z" fill="white"/>
<path d="M17.9783 8.97606C17.9222 8.92001 17.8777 8.85337 17.8473 8.77996C17.8169 8.70656 17.8013 8.62784 17.8013 8.54833C17.8013 8.46883 17.8169 8.39011 17.8473 8.31671C17.8777 8.2433 17.9222 8.17665 17.9783 8.1206L20.2974 5.78948C20.4103 5.67603 20.5634 5.6123 20.723 5.6123C20.8826 5.6123 21.0357 5.67603 21.1485 5.78948C21.2614 5.90292 21.3248 6.05678 21.3248 6.21721C21.3248 6.37764 21.2614 6.53149 21.1485 6.64494L18.8293 8.98034C18.7156 9.09261 18.5623 9.15516 18.4029 9.15436C18.2435 9.15356 18.0909 9.08947 17.9783 8.97606Z" fill="#FFD436"/>
<g style="mix-blend-mode:multiply" opacity="0.5">
<path d="M21.9625 5.09914L17.4956 9.58594L18.789 10.8869L23.2559 6.40013L21.9625 5.09914Z" fill="#FFD436"/>
</g>
<path opacity="0.7" d="M17.9954 8.12666L18.4549 7.65616L19.4762 6.62533L20.0209 6.07784L20.272 5.82548C20.3637 5.7229 20.4873 5.65474 20.6227 5.6322C20.758 5.60965 20.897 5.63407 21.0167 5.70143C21.0559 5.72507 21.093 5.75227 21.1273 5.7827L21.1571 5.81692L21.123 5.78698C21.0863 5.76167 21.0479 5.73881 21.0081 5.71854C20.9519 5.69811 20.8933 5.68517 20.8337 5.68005C20.7392 5.67018 20.6437 5.68285 20.5549 5.71704C20.4662 5.75122 20.3868 5.80596 20.323 5.8768L20.0677 6.12489L19.5188 6.6681C19.1401 7.04023 18.7698 7.41235 18.4847 7.6861L17.9954 8.12666Z" fill="white"/>
<path d="M20.1143 14.1721C20.1143 14.0132 20.177 13.8609 20.2887 13.7486C20.4005 13.6363 20.552 13.5732 20.71 13.5732H23.9909C24.1489 13.5732 24.3004 13.6363 24.4121 13.7486C24.5239 13.8609 24.5866 14.0132 24.5866 14.1721C24.5866 14.3309 24.5239 14.4832 24.4121 14.5955C24.3004 14.7078 24.1489 14.7709 23.9909 14.7709H20.71C20.552 14.7709 20.4005 14.7078 20.2887 14.5955C20.177 14.4832 20.1143 14.3309 20.1143 14.1721Z" fill="#FFD436"/>
<g style="mix-blend-mode:multiply" opacity="0.5">
<path d="M25.6548 14.2559H19.3398V16.0951H25.6548V14.2559Z" fill="#FFD436"/>
</g>
<path opacity="0.7" d="M20.7231 13.5807H21.3785H23.9317C24.0421 13.5759 24.1519 13.5994 24.2508 13.6491C24.3243 13.6857 24.3891 13.738 24.4405 13.8022C24.4919 13.8665 24.5289 13.9412 24.5487 14.0212C24.5535 14.0667 24.5535 14.1126 24.5487 14.1581C24.5426 14.1145 24.5326 14.0716 24.5189 14.0298C24.4764 13.9061 24.3947 13.7998 24.2863 13.7272C24.1779 13.6545 24.0489 13.6196 23.9189 13.6277H22.8253H21.3785L20.7231 13.5807Z" fill="white"/>
<path d="M17.957 19.4404C18.0122 19.3829 18.0783 19.3373 18.1514 19.3061C18.2245 19.2749 18.3031 19.2588 18.3826 19.2588C18.462 19.2588 18.5406 19.2749 18.6137 19.3061C18.6868 19.3373 18.7529 19.3829 18.8081 19.4404L21.1273 21.7715C21.1831 21.8277 21.2275 21.8944 21.2577 21.9678C21.288 22.0411 21.3035 22.1198 21.3035 22.1992C21.3035 22.2787 21.288 22.3573 21.2577 22.4307C21.2275 22.5041 21.1831 22.5708 21.1273 22.627C21.0714 22.6831 21.005 22.7277 20.932 22.7581C20.859 22.7885 20.7808 22.8041 20.7017 22.8041C20.6227 22.8041 20.5444 22.7885 20.4714 22.7581C20.3984 22.7277 20.3321 22.6831 20.2762 22.627L17.957 20.2916C17.9005 20.2362 17.8557 20.17 17.825 20.0969C17.7944 20.0238 17.7786 19.9453 17.7786 19.866C17.7786 19.7867 17.7944 19.7081 17.825 19.635C17.8557 19.562 17.9005 19.4958 17.957 19.4404Z" fill="#FFD436"/>
<g style="mix-blend-mode:multiply" opacity="0.5">
<path d="M17.3437 18.9514L16.0498 20.252L20.5151 24.7403L21.809 23.4398L17.3437 18.9514Z" fill="#FFD436"/>
</g>
<path opacity="0.7" d="M18.7996 19.4531L19.2676 19.9194C19.5485 20.1931 19.9187 20.5695 20.2932 20.9416L20.8336 21.5062L21.0847 21.7586C21.1668 21.8319 21.2272 21.9267 21.2591 22.0323C21.2846 22.1113 21.2933 22.1948 21.2845 22.2773C21.2757 22.3599 21.2496 22.4396 21.2081 22.5114C21.1847 22.5496 21.1577 22.5855 21.1272 22.6183L21.0932 22.6525L21.123 22.614C21.1489 22.5791 21.1717 22.5418 21.1911 22.5028C21.2182 22.44 21.2368 22.3739 21.2464 22.3061C21.2552 22.2112 21.2421 22.1155 21.2082 22.0265C21.1742 21.9374 21.1203 21.8575 21.0506 21.7928L20.8081 21.5062L20.2677 20.9502C19.8974 20.5738 19.5272 20.1974 19.2549 19.9108L18.7996 19.4531Z" fill="white"/>
<path d="M12.7061 26.1658C12.5481 26.1658 12.3966 26.1027 12.2848 25.9904C12.1731 25.8781 12.1104 25.7258 12.1104 25.5669V22.2691C12.123 22.1185 12.1915 21.9782 12.3022 21.8759C12.4129 21.7736 12.5578 21.7168 12.7082 21.7168C12.8586 21.7168 13.0035 21.7736 13.1143 21.8759C13.225 21.9782 13.2935 22.1185 13.3061 22.2691V25.5669C13.3067 25.6461 13.2915 25.7246 13.2615 25.7978C13.2315 25.871 13.1873 25.9374 13.1314 25.9932C13.0755 26.049 13.0091 26.093 12.9361 26.1226C12.863 26.1522 12.7848 26.1669 12.7061 26.1658Z" fill="#FFD436"/>
<g style="mix-blend-mode:multiply" opacity="0.5">
<path d="M14.6252 20.5977H12.7954V26.9452H14.6252V20.5977Z" fill="#FFD436"/>
</g>
<path opacity="0.7" d="M12.1229 25.5577C12.1229 25.5577 12.1229 25.2925 12.1229 24.8947C12.1229 24.497 12.1229 23.9709 12.1229 23.4447V22.3113C12.1181 22.1998 12.143 22.089 12.1952 21.9905C12.2332 21.9177 12.2857 21.8536 12.3494 21.8021C12.4131 21.7505 12.4866 21.7128 12.5655 21.6911C12.6093 21.6863 12.6535 21.6863 12.6974 21.6911L12.5697 21.7253C12.5074 21.7499 12.4487 21.783 12.3952 21.8236C12.3284 21.879 12.2734 21.9474 12.2335 22.0247C12.1893 22.118 12.1689 22.2209 12.174 22.3241C12.174 22.4396 12.174 22.5593 12.174 22.6834C12.174 22.9272 12.174 23.1924 12.174 23.4576C12.174 23.9837 12.174 24.5141 12.174 24.9076C12.174 25.3011 12.1229 25.5577 12.1229 25.5577Z" fill="white"/>
<path d="M4.30175 22.6528C4.24461 22.5974 4.19917 22.5309 4.16813 22.4574C4.13709 22.3839 4.12109 22.3049 4.12109 22.2251C4.12109 22.1453 4.13709 22.0662 4.16813 21.9928C4.19917 21.9193 4.24461 21.8528 4.30175 21.7974L6.62092 19.4662C6.73378 19.3528 6.88684 19.2891 7.04645 19.2891C7.20606 19.2891 7.35913 19.3528 7.47199 19.4662C7.58484 19.5797 7.64825 19.7335 7.64825 19.894C7.64825 20.0544 7.58484 20.2083 7.47199 20.3217L5.15282 22.6528C5.09706 22.7092 5.03076 22.754 4.95773 22.7845C4.8847 22.815 4.80638 22.8307 4.72729 22.8307C4.64819 22.8307 4.56988 22.815 4.49685 22.7845C4.42382 22.754 4.35752 22.7092 4.30175 22.6528Z" fill="#FFD436"/>
<g style="mix-blend-mode:multiply" opacity="0.5">
<path d="M8.28008 18.781L3.81396 23.2686L5.1076 24.5693L9.57372 20.0817L8.28008 18.781Z" fill="#FFD436"/>
</g>
<path opacity="0.7" d="M4.3186 21.8061L4.77393 21.3356L5.79521 20.3048L6.33989 19.7573L6.59096 19.5049C6.66391 19.4224 6.75817 19.3617 6.8633 19.3296C6.94187 19.304 7.02492 19.2953 7.10705 19.3041C7.18917 19.313 7.26852 19.3391 7.3399 19.3809C7.37796 19.4044 7.4136 19.4316 7.44628 19.4622L7.48033 19.4964L7.44203 19.4665C7.40721 19.4404 7.37019 19.4175 7.33139 19.398C7.26891 19.3708 7.20307 19.3521 7.13564 19.3424C7.04121 19.3336 6.94601 19.3467 6.85745 19.3808C6.76889 19.4149 6.68935 19.4691 6.625 19.5392L6.36543 19.7958L5.81649 20.339L4.79095 21.3485L4.3186 21.8061Z" fill="white"/>
<path d="M0.854736 14.2756C0.85586 14.1164 0.919571 13.9641 1.03197 13.8519C1.14437 13.7397 1.29634 13.6768 1.45474 13.6768H4.73561C4.88547 13.6895 5.02511 13.7583 5.12688 13.8696C5.22865 13.9809 5.28513 14.1266 5.28513 14.2777C5.28513 14.4289 5.22865 14.5745 5.12688 14.6858C5.02511 14.7971 4.88547 14.866 4.73561 14.8787H1.45474C1.37595 14.8787 1.29793 14.8631 1.22513 14.8328C1.15233 14.8025 1.08619 14.758 1.03047 14.702C0.974758 14.646 0.930562 14.5795 0.900409 14.5064C0.870256 14.4332 0.854736 14.3548 0.854736 14.2756Z" fill="#FFD436"/>
<g style="mix-blend-mode:multiply" opacity="0.5">
<path d="M6.39525 14.3662H0.0803223V16.2054H6.39525V14.3662Z" fill="#FFD436"/>
</g>
<path opacity="0.7" d="M1.46338 13.6881H4.69319C4.80226 13.6833 4.91073 13.7069 5.00808 13.7566C5.0814 13.7951 5.14605 13.8485 5.19803 13.9132C5.25 13.978 5.28818 14.0528 5.31021 14.133C5.31493 14.177 5.31493 14.2215 5.31021 14.2655V14.3126C5.31021 14.3126 5.31021 14.3126 5.31021 14.2655C5.30572 14.2217 5.29571 14.1786 5.28042 14.1372C5.25589 14.0746 5.22296 14.0156 5.18255 13.9619C5.12865 13.8935 5.06035 13.838 4.98255 13.7993C4.88935 13.7556 4.78751 13.7337 4.68468 13.7352H3.56552H2.12296L1.46338 13.6881Z" fill="white"/>
<path d="M4.32734 5.82361C4.44052 5.71078 4.59347 5.64746 4.75287 5.64746C4.91228 5.64746 5.06523 5.71078 5.17841 5.82361L7.49332 8.15902C7.5492 8.21519 7.59353 8.28187 7.62377 8.35526C7.65401 8.42865 7.66958 8.50731 7.66958 8.58675C7.66958 8.66619 7.65401 8.74485 7.62377 8.81824C7.59353 8.89163 7.5492 8.95831 7.49332 9.01448C7.43744 9.07065 7.37109 9.11521 7.29808 9.14561C7.22507 9.17601 7.14681 9.19165 7.06778 9.19165C6.98875 9.19165 6.9105 9.17601 6.83749 9.14561C6.76447 9.11521 6.69813 9.07065 6.64225 9.01448L4.32309 6.67907C4.26727 6.62274 4.22308 6.55588 4.19307 6.48232C4.16305 6.40876 4.14781 6.32996 4.1482 6.25046C4.1486 6.17095 4.16463 6.09231 4.19537 6.01906C4.22611 5.9458 4.27096 5.87938 4.32734 5.82361Z" fill="#FFD436"/>
<g style="mix-blend-mode:multiply" opacity="0.5">
<path d="M3.7145 5.34031L2.42041 6.64062L6.88496 11.1298L8.17905 9.82947L3.7145 5.34031Z" fill="#FFD436"/>
</g>
<path opacity="0.7" d="M5.16968 5.8418L5.63777 6.30374C5.92287 6.58177 6.28883 6.95817 6.66331 7.3303L7.2165 7.87779L7.46757 8.13015C7.5503 8.2038 7.612 8.2983 7.64629 8.4039C7.66953 8.4832 7.67698 8.56634 7.66822 8.64854C7.65946 8.73074 7.63465 8.8104 7.59523 8.88296C7.56928 8.92048 7.54084 8.95621 7.51012 8.98989L7.47608 9.01983C7.48795 9.0103 7.49804 8.99871 7.50586 8.98561C7.53259 8.94967 7.55542 8.91095 7.57395 8.87012C7.60644 8.80839 7.6294 8.74204 7.64203 8.67337C7.6504 8.58667 7.64024 8.49917 7.61225 8.41673C7.58129 8.31755 7.5239 8.22879 7.44629 8.16009L7.19948 7.90346L6.65905 7.35168L5.64628 6.3123L5.16968 5.8418Z" fill="white"/>
<path d="M32.7486 27.2959C33.6409 26.35 34.2376 25.1619 34.4648 23.8786C34.6921 22.5953 34.54 21.2732 34.0273 20.076C33.5147 18.8787 32.6639 17.8588 31.5804 17.1426C30.497 16.4265 29.2283 16.0454 27.9315 16.0466C27.503 16.0454 27.0753 16.087 26.6549 16.1706C26.0847 14.6596 25.0054 13.3974 23.6049 12.6036C22.2044 11.8098 20.5713 11.5347 18.9899 11.8262C17.4085 12.1176 15.9788 12.9572 14.9496 14.1988C13.9203 15.4404 13.3568 17.0054 13.357 18.6215C13.357 18.8097 13.357 18.9894 13.3825 19.1733C12.1523 19.4286 11.0589 20.1307 10.3113 21.1454C9.56375 22.1601 9.21451 23.4162 9.33037 24.6734C9.44624 25.9307 10.0191 27.1009 10.9393 27.9603C11.8596 28.8197 13.0628 29.308 14.3187 29.3319H27.0847C27.3556 29.3677 27.6285 29.3863 27.9018 29.3875C28.1864 29.385 28.4706 29.365 28.7528 29.3276C29.529 29.3182 30.2927 29.1302 30.9854 28.7781C31.6781 28.4259 32.2812 27.9188 32.7486 27.2959Z" fill="white"/>
</svg>
