<svg width="83" height="82" viewBox="0 0 83 82" fill="none" xmlns="http://www.w3.org/2000/svg">
<g clip-path="url(#clip0_676_45308)">
<g style="mix-blend-mode:multiply">
<path d="M49.1875 35.875H62" stroke="#5C88FD" stroke-width="8" stroke-linecap="round" stroke-linejoin="round"/>
</g>
<g style="mix-blend-mode:multiply">
<path d="M49.1875 46.125H62" stroke="#5C88FD" stroke-width="8" stroke-linecap="round" stroke-linejoin="round"/>
</g>
<g style="mix-blend-mode:multiply">
<path d="M30.0007 46.125C34.2464 46.125 37.6882 42.6832 37.6882 38.4375C37.6882 34.1918 34.2464 30.75 30.0007 30.75C25.755 30.75 22.3132 34.1918 22.3132 38.4375C22.3132 42.6832 25.755 46.125 30.0007 46.125Z" stroke="#5C88FD" stroke-width="8" stroke-linecap="round" stroke-linejoin="round"/>
</g>
<g style="mix-blend-mode:multiply">
<path d="M20.071 53.8121C20.6356 51.6073 21.9178 49.6531 23.7157 48.2575C25.5136 46.862 27.7248 46.1045 30.0007 46.1045C32.2767 46.1045 34.4879 46.862 36.2858 48.2575C38.0836 49.6531 39.3659 51.6073 39.9304 53.8121" stroke="#5C88FD" stroke-width="8" stroke-linecap="round" stroke-linejoin="round"/>
</g>
<g style="mix-blend-mode:multiply">
<path d="M69.6875 15.375H13.3125C11.8973 15.375 10.75 16.5223 10.75 17.9375V64.0625C10.75 65.4777 11.8973 66.625 13.3125 66.625H69.6875C71.1027 66.625 72.25 65.4777 72.25 64.0625V17.9375C72.25 16.5223 71.1027 15.375 69.6875 15.375Z" stroke="#5C88FD" stroke-width="8" stroke-linecap="round" stroke-linejoin="round"/>
</g>
</g>
<defs>
<clipPath id="clip0_676_45308">
<rect width="82" height="82" fill="white" transform="translate(0.5)"/>
</clipPath>
</defs>
</svg>
