<svg width="83" height="83" viewBox="0 0 83 83" fill="none" xmlns="http://www.w3.org/2000/svg">
<g clip-path="url(#clip0_676_45324)">
<g style="mix-blend-mode:multiply">
<path d="M31.25 69.6877H15.875C15.1954 69.6877 14.5436 69.4177 14.0631 68.9372C13.5825 68.4566 13.3125 67.8048 13.3125 67.1252V52.8072C13.3113 52.4745 13.3758 52.1448 13.5022 51.837C13.6287 51.5292 13.8145 51.2494 14.0492 51.0135L52.4867 12.576C52.7252 12.3339 53.0094 12.1416 53.3228 12.0104C53.6363 11.8791 53.9727 11.8115 54.3125 11.8115C54.6523 11.8115 54.9887 11.8791 55.3022 12.0104C55.6156 12.1416 55.8999 12.3339 56.1383 12.576L70.4242 26.8619C70.6663 27.1004 70.8586 27.3846 70.9899 27.698C71.1211 28.0115 71.1887 28.3479 71.1887 28.6877C71.1887 29.0275 71.1211 29.3639 70.9899 29.6774C70.8586 29.9908 70.6663 30.2751 70.4242 30.5135L31.25 69.6877Z" stroke="#5C88FD" stroke-width="8" stroke-linecap="round" stroke-linejoin="round"/>
</g>
<g style="mix-blend-mode:multiply">
<path d="M44.0625 21L62 38.9375" stroke="#5C88FD" stroke-width="8" stroke-linecap="round" stroke-linejoin="round"/>
</g>
<g style="mix-blend-mode:multiply">
<path d="M69.6875 69.6875H31.25L13.4727 51.9102" stroke="#5C88FD" stroke-width="8" stroke-linecap="round" stroke-linejoin="round"/>
</g>
<g style="mix-blend-mode:multiply">
<path d="M53.0312 29.9688L22.2812 60.7188" stroke="#5C88FD" stroke-width="8" stroke-linecap="round" stroke-linejoin="round"/>
</g>
</g>
<defs>
<clipPath id="clip0_676_45324">
<rect width="82" height="82" fill="white" transform="translate(0.5 0.5)"/>
</clipPath>
</defs>
</svg>
