<svg width="35" height="27" viewBox="0 0 35 27" fill="none" xmlns="http://www.w3.org/2000/svg">
<path d="M5.4 5.5H9.95H14.5V21.5H10.3H5.4L0.5 13.5L5.4 5.5Z" fill="#0057FF"/>
<rect x="10" y="2" width="23" height="23" rx="11.5" fill="white"/>
<path d="M20.1982 16.1338L19.1321 17.189L20.1899 18.2577L21.256 17.1973L20.1982 16.1338ZM18.5703 12.3566C17.9875 11.7678 17.0378 11.763 16.449 12.3457C15.8602 12.9285 15.8553 13.8782 16.438 14.467L18.5703 12.3566ZM26.5519 11.93C27.1393 11.3458 27.1419 10.396 26.5577 9.80864C25.9735 9.22127 25.0237 9.2187 24.4364 9.8029L26.5519 11.93ZM21.2643 15.0786L18.5703 12.3566L16.438 14.467L19.1321 17.189L21.2643 15.0786ZM24.4364 9.8029L19.1404 15.0703L21.256 17.1973L26.5519 11.93L24.4364 9.8029Z" fill="#0057FF"/>
<rect x="10" y="2" width="23" height="23" rx="11.5" stroke="#0057FF" stroke-width="3"/>
</svg>
