<svg width="18" height="15" viewBox="0 0 18 15" fill="none" xmlns="http://www.w3.org/2000/svg">
<path d="M7.04754 10.9512L5.27068 12.7098L7.03363 14.491L8.81051 12.7237L7.04754 10.9512ZM4.78291 5.1092C3.81164 4.12788 2.22875 4.11972 1.24743 5.09099C0.266098 6.06226 0.257943 7.64515 1.22921 8.62647L4.78291 5.1092ZM16.7552 4.82193C17.7341 3.84827 17.7384 2.26536 16.7647 1.28641C15.7911 0.307464 14.2082 0.303182 13.2292 1.27685L16.7552 4.82193ZM8.82439 9.19254L4.78291 5.1092L1.22921 8.62647L5.27068 12.7098L8.82439 9.19254ZM13.2292 1.27685L5.28456 9.17863L8.81051 12.7237L16.7552 4.82193L13.2292 1.27685Z" fill="#0057FF"/>
</svg>
