<svg width="26" height="27" viewBox="0 0 26 27" fill="none" xmlns="http://www.w3.org/2000/svg">
<g clip-path="url(#clip0_1275_3950)">
<path d="M11.9167 9.16667V14.5833L16.5208 17.3133L17.355 15.9267L13.5417 13.6625V9.16667H11.9167ZM22.75 11.3333V3.75L19.89 6.61C18.135 4.84417 15.6975 3.75 13 3.75C7.61583 3.75 3.25 8.11583 3.25 13.5C3.25 18.8842 7.61583 23.25 13 23.25C18.3842 23.25 22.75 18.8842 22.75 13.5H20.5833C20.5833 17.6817 17.1817 21.0833 13 21.0833C8.81833 21.0833 5.41667 17.6817 5.41667 13.5C5.41667 9.31833 8.81833 5.91667 13 5.91667C15.0908 5.91667 16.9867 6.7725 18.3625 8.1375L15.1667 11.3333H22.75Z" fill="white"/>
</g>
<defs>
<clipPath id="clip0_1275_3950">
<rect width="26" height="26" fill="white" transform="translate(0 0.5)"/>
</clipPath>
</defs>
</svg>
