<svg width="105" height="21" viewBox="0 0 105 21" fill="none" xmlns="http://www.w3.org/2000/svg">
<path fill-rule="evenodd" clip-rule="evenodd" d="M12.5342 15.125H5.83423V5.125H12.5342V15.125Z" fill="#0057FF"/>
<mask id="path-3-inside-1_567_4427" fill="white">
<path fill-rule="evenodd" clip-rule="evenodd" d="M22.2342 15.125H15.5342V5.125H22.2342V15.125Z"/>
</mask>
<path fill-rule="evenodd" clip-rule="evenodd" d="M22.2342 15.125H15.5342V5.125H22.2342V15.125Z" fill="#0057FF"/>
<path d="M15.5342 15.125H5.53424V25.125H15.5342V15.125ZM22.2342 15.125V25.125H32.2342V15.125H22.2342ZM15.5342 5.125V-4.875H5.53424V5.125H15.5342ZM22.2342 5.125H32.2342V-4.875H22.2342V5.125ZM15.5342 25.125H22.2342V5.125H15.5342V25.125ZM5.53424 5.125V15.125H25.5342V5.125H5.53424ZM22.2342 -4.875H15.5342V15.125H22.2342V-4.875ZM32.2342 15.125V5.125H12.2342V15.125H32.2342Z" fill="#0057FF" mask="url(#path-3-inside-1_567_4427)"/>
<mask id="path-5-inside-2_567_4427" fill="white">
<path fill-rule="evenodd" clip-rule="evenodd" d="M31.9343 15.125H25.2343V5.125H31.9343V15.125Z"/>
</mask>
<path d="M25.2343 15.125H15.2343V25.125H25.2343V15.125ZM31.9343 15.125V25.125H41.9343V15.125H31.9343ZM25.2343 5.125V-4.875H15.2343V5.125H25.2343ZM31.9343 5.125H41.9343V-4.875H31.9343V5.125ZM25.2343 25.125H31.9343V5.125H25.2343V25.125ZM15.2343 5.125V15.125H35.2343V5.125H15.2343ZM31.9343 -4.875H25.2343V15.125H31.9343V-4.875ZM41.9343 15.125V5.125H21.9343V15.125H41.9343Z" fill="#0057FF" mask="url(#path-5-inside-2_567_4427)"/>
<mask id="path-7-inside-3_567_4427" fill="white">
<path fill-rule="evenodd" clip-rule="evenodd" d="M41.6342 15.125H34.9342V5.125H41.6342V15.125Z"/>
</mask>
<path d="M34.9342 15.125H24.9342V25.125H34.9342V15.125ZM41.6342 15.125V25.125H51.6342V15.125H41.6342ZM34.9342 5.125V-4.875H24.9342V5.125H34.9342ZM41.6342 5.125H51.6342V-4.875H41.6342V5.125ZM34.9342 25.125H41.6342V5.125H34.9342V25.125ZM24.9342 5.125V15.125H44.9342V5.125H24.9342ZM41.6342 -4.875H34.9342V15.125H41.6342V-4.875ZM51.6342 15.125V5.125H31.6342V15.125H51.6342Z" fill="#0057FF" mask="url(#path-7-inside-3_567_4427)"/>
<mask id="path-9-inside-4_567_4427" fill="white">
<path fill-rule="evenodd" clip-rule="evenodd" d="M51.3342 15.125H44.6342V5.125H51.3342V15.125Z"/>
</mask>
<path d="M44.6342 15.125H34.6342V25.125H44.6342V15.125ZM51.3342 15.125V25.125H61.3342V15.125H51.3342ZM44.6342 5.125V-4.875H34.6342V5.125H44.6342ZM51.3342 5.125H61.3342V-4.875H51.3342V5.125ZM44.6342 25.125H51.3342V5.125H44.6342V25.125ZM34.6342 5.125V15.125H54.6342V5.125H34.6342ZM51.3342 -4.875H44.6342V15.125H51.3342V-4.875ZM61.3342 15.125V5.125H41.3342V15.125H61.3342Z" fill="#0057FF" mask="url(#path-9-inside-4_567_4427)"/>
<mask id="path-11-inside-5_567_4427" fill="white">
<path fill-rule="evenodd" clip-rule="evenodd" d="M61.0342 15.125H54.3342V5.125H61.0342V15.125Z"/>
</mask>
<path d="M54.3342 15.125H44.3342V25.125H54.3342V15.125ZM61.0342 15.125V25.125H71.0342V15.125H61.0342ZM54.3342 5.125V-4.875H44.3342V5.125H54.3342ZM61.0342 5.125H71.0342V-4.875H61.0342V5.125ZM54.3342 25.125H61.0342V5.125H54.3342V25.125ZM44.3342 5.125V15.125H64.3342V5.125H44.3342ZM61.0342 -4.875H54.3342V15.125H61.0342V-4.875ZM71.0342 15.125V5.125H51.0342V15.125H71.0342Z" fill="#0057FF" mask="url(#path-11-inside-5_567_4427)"/>
<mask id="path-13-inside-6_567_4427" fill="white">
<path fill-rule="evenodd" clip-rule="evenodd" d="M70.7342 15.125H64.0342V5.125H70.7342V15.125Z"/>
</mask>
<path d="M64.0342 15.125H54.0342V25.125H64.0342V15.125ZM70.7342 15.125V25.125H80.7342V15.125H70.7342ZM64.0342 5.125V-4.875H54.0342V5.125H64.0342ZM70.7342 5.125H80.7342V-4.875H70.7342V5.125ZM64.0342 25.125H70.7342V5.125H64.0342V25.125ZM54.0342 5.125V15.125H74.0342V5.125H54.0342ZM70.7342 -4.875H64.0342V15.125H70.7342V-4.875ZM80.7342 15.125V5.125H60.7342V15.125H80.7342Z" fill="#0057FF" mask="url(#path-13-inside-6_567_4427)"/>
<mask id="path-15-inside-7_567_4427" fill="white">
<path fill-rule="evenodd" clip-rule="evenodd" d="M80.4343 15.125H73.7343V5.125H80.4343V15.125Z"/>
</mask>
<path fill-rule="evenodd" clip-rule="evenodd" d="M80.4343 15.125H73.7343V5.125H80.4343V15.125Z" fill="#D9D9D9"/>
<path d="M73.7343 15.125H63.7343V25.125H73.7343V15.125ZM80.4343 15.125V25.125H90.4343V15.125H80.4343ZM73.7343 5.125V-4.875H63.7343V5.125H73.7343ZM80.4343 5.125H90.4343V-4.875H80.4343V5.125ZM73.7343 25.125H80.4343V5.125H73.7343V25.125ZM63.7343 5.125V15.125H83.7343V5.125H63.7343ZM80.4343 -4.875H73.7343V15.125H80.4343V-4.875ZM90.4343 15.125V5.125H70.4343V15.125H90.4343Z" fill="#E2E2E2" mask="url(#path-15-inside-7_567_4427)"/>
<mask id="path-17-inside-8_567_4427" fill="white">
<path fill-rule="evenodd" clip-rule="evenodd" d="M90.1342 15.125H83.4342V5.125H90.1342V15.125Z"/>
</mask>
<path fill-rule="evenodd" clip-rule="evenodd" d="M90.1342 15.125H83.4342V5.125H90.1342V15.125Z" fill="#D9D9D9"/>
<path d="M83.4342 15.125H73.4342V25.125H83.4342V15.125ZM90.1342 15.125V25.125H100.134V15.125H90.1342ZM83.4342 5.125V-4.875H73.4342V5.125H83.4342ZM90.1342 5.125H100.134V-4.875H90.1342V5.125ZM83.4342 25.125H90.1342V5.125H83.4342V25.125ZM73.4342 5.125V15.125H93.4342V5.125H73.4342ZM90.1342 -4.875H83.4342V15.125H90.1342V-4.875ZM100.134 15.125V5.125H80.1342V15.125H100.134Z" fill="#E2E2E2" mask="url(#path-17-inside-8_567_4427)"/>
<mask id="path-19-inside-9_567_4427" fill="white">
<path fill-rule="evenodd" clip-rule="evenodd" d="M99.8342 15.125H93.1342V5.125H99.8342V15.125Z"/>
</mask>
<path fill-rule="evenodd" clip-rule="evenodd" d="M99.8342 15.125H93.1342V5.125H99.8342V15.125Z" fill="#D9D9D9"/>
<path d="M93.1342 15.125H83.1342V25.125H93.1342V15.125ZM99.8342 15.125V25.125H109.834V15.125H99.8342ZM93.1342 5.125V-4.875H83.1342V5.125H93.1342ZM99.8342 5.125H109.834V-4.875H99.8342V5.125ZM93.1342 25.125H99.8342V5.125H93.1342V25.125ZM83.1342 5.125V15.125H103.134V5.125H83.1342ZM99.8342 -4.875H93.1342V15.125H99.8342V-4.875ZM109.834 15.125V5.125H89.8342V15.125H109.834Z" fill="#E2E2E2" mask="url(#path-19-inside-9_567_4427)"/>
<rect x="1.33423" y="0.625" width="103" height="19" stroke="#E2E8FB"/>
</svg>
