<svg width="102" height="21" viewBox="0 0 102 21" fill="none" xmlns="http://www.w3.org/2000/svg">
<mask id="path-2-inside-1_567_4398" fill="white">
<path fill-rule="evenodd" clip-rule="evenodd" d="M12.2342 15.375H5.83423V5.375H12.2342V15.375Z"/>
</mask>
<path fill-rule="evenodd" clip-rule="evenodd" d="M12.2342 15.375H5.83423V5.375H12.2342V15.375Z" fill="#D9D9D9"/>
<path d="M5.83423 15.375H-4.16577V25.375H5.83423V15.375ZM12.2342 15.375V25.375H22.2342V15.375H12.2342ZM5.83423 5.375V-4.625H-4.16577V5.375H5.83423ZM12.2342 5.375H22.2342V-4.625H12.2342V5.375ZM5.83423 25.375H12.2342V5.375H5.83423V25.375ZM-4.16577 5.375V15.375H15.8342V5.375H-4.16577ZM12.2342 -4.625H5.83423V15.375H12.2342V-4.625ZM22.2342 15.375V5.375H2.23423V15.375H22.2342Z" fill="#E2E2E2" mask="url(#path-2-inside-1_567_4398)"/>
<mask id="path-4-inside-2_567_4398" fill="white">
<path fill-rule="evenodd" clip-rule="evenodd" d="M21.6343 15.375H15.2343V5.375H21.6343V15.375Z"/>
</mask>
<path fill-rule="evenodd" clip-rule="evenodd" d="M21.6343 15.375H15.2343V5.375H21.6343V15.375Z" fill="#D9D9D9"/>
<path d="M15.2343 15.375H5.23425V25.375H15.2343V15.375ZM21.6343 15.375V25.375H31.6343V15.375H21.6343ZM15.2343 5.375V-4.625H5.23425V5.375H15.2343ZM21.6343 5.375H31.6343V-4.625H21.6343V5.375ZM15.2343 25.375H21.6343V5.375H15.2343V25.375ZM5.23425 5.375V15.375H25.2343V5.375H5.23425ZM21.6343 -4.625H15.2343V15.375H21.6343V-4.625ZM31.6343 15.375V5.375H11.6343V15.375H31.6343Z" fill="#E2E2E2" mask="url(#path-4-inside-2_567_4398)"/>
<mask id="path-6-inside-3_567_4398" fill="white">
<path fill-rule="evenodd" clip-rule="evenodd" d="M31.0342 15.375H24.6342V5.375H31.0342V15.375Z"/>
</mask>
<path fill-rule="evenodd" clip-rule="evenodd" d="M31.0342 15.375H24.6342V5.375H31.0342V15.375Z" fill="#D9D9D9"/>
<path d="M24.6342 15.375H14.6342V25.375H24.6342V15.375ZM31.0342 15.375V25.375H41.0342V15.375H31.0342ZM24.6342 5.375V-4.625H14.6342V5.375H24.6342ZM31.0342 5.375H41.0342V-4.625H31.0342V5.375ZM24.6342 25.375H31.0342V5.375H24.6342V25.375ZM14.6342 5.375V15.375H34.6342V5.375H14.6342ZM31.0342 -4.625H24.6342V15.375H31.0342V-4.625ZM41.0342 15.375V5.375H21.0342V15.375H41.0342Z" fill="#E2E2E2" mask="url(#path-6-inside-3_567_4398)"/>
<mask id="path-8-inside-4_567_4398" fill="white">
<path fill-rule="evenodd" clip-rule="evenodd" d="M40.4342 15.375H34.0342V5.375H40.4342V15.375Z"/>
</mask>
<path fill-rule="evenodd" clip-rule="evenodd" d="M40.4342 15.375H34.0342V5.375H40.4342V15.375Z" fill="#D9D9D9"/>
<path d="M34.0342 15.375H24.0342V25.375H34.0342V15.375ZM40.4342 15.375V25.375H50.4342V15.375H40.4342ZM34.0342 5.375V-4.625H24.0342V5.375H34.0342ZM40.4342 5.375H50.4342V-4.625H40.4342V5.375ZM34.0342 25.375H40.4342V5.375H34.0342V25.375ZM24.0342 5.375V15.375H44.0342V5.375H24.0342ZM40.4342 -4.625H34.0342V15.375H40.4342V-4.625ZM50.4342 15.375V5.375H30.4342V15.375H50.4342Z" fill="#E2E2E2" mask="url(#path-8-inside-4_567_4398)"/>
<mask id="path-10-inside-5_567_4398" fill="white">
<path fill-rule="evenodd" clip-rule="evenodd" d="M49.8342 15.375H43.4342V5.375H49.8342V15.375Z"/>
</mask>
<path fill-rule="evenodd" clip-rule="evenodd" d="M49.8342 15.375H43.4342V5.375H49.8342V15.375Z" fill="#D9D9D9"/>
<path d="M43.4342 15.375H33.4342V25.375H43.4342V15.375ZM49.8342 15.375V25.375H59.8342V15.375H49.8342ZM43.4342 5.375V-4.625H33.4342V5.375H43.4342ZM49.8342 5.375H59.8342V-4.625H49.8342V5.375ZM43.4342 25.375H49.8342V5.375H43.4342V25.375ZM33.4342 5.375V15.375H53.4342V5.375H33.4342ZM49.8342 -4.625H43.4342V15.375H49.8342V-4.625ZM59.8342 15.375V5.375H39.8342V15.375H59.8342Z" fill="#E2E2E2" mask="url(#path-10-inside-5_567_4398)"/>
<mask id="path-12-inside-6_567_4398" fill="white">
<path fill-rule="evenodd" clip-rule="evenodd" d="M59.2342 15.375H52.8342V5.375H59.2342V15.375Z"/>
</mask>
<path fill-rule="evenodd" clip-rule="evenodd" d="M59.2342 15.375H52.8342V5.375H59.2342V15.375Z" fill="#D9D9D9"/>
<path d="M52.8342 15.375H42.8342V25.375H52.8342V15.375ZM59.2342 15.375V25.375H69.2342V15.375H59.2342ZM52.8342 5.375V-4.625H42.8342V5.375H52.8342ZM59.2342 5.375H69.2342V-4.625H59.2342V5.375ZM52.8342 25.375H59.2342V5.375H52.8342V25.375ZM42.8342 5.375V15.375H62.8342V5.375H42.8342ZM59.2342 -4.625H52.8342V15.375H59.2342V-4.625ZM69.2342 15.375V5.375H49.2342V15.375H69.2342Z" fill="#E2E2E2" mask="url(#path-12-inside-6_567_4398)"/>
<mask id="path-14-inside-7_567_4398" fill="white">
<path fill-rule="evenodd" clip-rule="evenodd" d="M68.6343 15.375H62.2343V5.375H68.6343V15.375Z"/>
</mask>
<path fill-rule="evenodd" clip-rule="evenodd" d="M68.6343 15.375H62.2343V5.375H68.6343V15.375Z" fill="#D9D9D9"/>
<path d="M62.2343 15.375H52.2343V25.375H62.2343V15.375ZM68.6343 15.375V25.375H78.6343V15.375H68.6343ZM62.2343 5.375V-4.625H52.2343V5.375H62.2343ZM68.6343 5.375H78.6343V-4.625H68.6343V5.375ZM62.2343 25.375H68.6343V5.375H62.2343V25.375ZM52.2343 5.375V15.375H72.2343V5.375H52.2343ZM68.6343 -4.625H62.2343V15.375H68.6343V-4.625ZM78.6343 15.375V5.375H58.6343V15.375H78.6343Z" fill="#E2E2E2" mask="url(#path-14-inside-7_567_4398)"/>
<mask id="path-16-inside-8_567_4398" fill="white">
<path fill-rule="evenodd" clip-rule="evenodd" d="M78.0342 15.375H71.6342V5.375H78.0342V15.375Z"/>
</mask>
<path fill-rule="evenodd" clip-rule="evenodd" d="M78.0342 15.375H71.6342V5.375H78.0342V15.375Z" fill="#D9D9D9"/>
<path d="M71.6342 15.375H61.6342V25.375H71.6342V15.375ZM78.0342 15.375V25.375H88.0342V15.375H78.0342ZM71.6342 5.375V-4.625H61.6342V5.375H71.6342ZM78.0342 5.375H88.0342V-4.625H78.0342V5.375ZM71.6342 25.375H78.0342V5.375H71.6342V25.375ZM61.6342 5.375V15.375H81.6342V5.375H61.6342ZM78.0342 -4.625H71.6342V15.375H78.0342V-4.625ZM88.0342 15.375V5.375H68.0342V15.375H88.0342Z" fill="#E2E2E2" mask="url(#path-16-inside-8_567_4398)"/>
<mask id="path-18-inside-9_567_4398" fill="white">
<path fill-rule="evenodd" clip-rule="evenodd" d="M87.4342 15.375H81.0342V5.375H87.4342V15.375Z"/>
</mask>
<path fill-rule="evenodd" clip-rule="evenodd" d="M87.4342 15.375H81.0342V5.375H87.4342V15.375Z" fill="#D9D9D9"/>
<path d="M81.0342 15.375H71.0342V25.375H81.0342V15.375ZM87.4342 15.375V25.375H97.4342V15.375H87.4342ZM81.0342 5.375V-4.625H71.0342V5.375H81.0342ZM87.4342 5.375H97.4342V-4.625H87.4342V5.375ZM81.0342 25.375H87.4342V5.375H81.0342V25.375ZM71.0342 5.375V15.375H91.0342V5.375H71.0342ZM87.4342 -4.625H81.0342V15.375H87.4342V-4.625ZM97.4342 15.375V5.375H77.4342V15.375H97.4342Z" fill="#E2E2E2" mask="url(#path-18-inside-9_567_4398)"/>
<mask id="path-20-inside-10_567_4398" fill="white">
<path fill-rule="evenodd" clip-rule="evenodd" d="M96.8342 15.375H90.4342V5.375H96.8342V15.375Z"/>
</mask>
<path fill-rule="evenodd" clip-rule="evenodd" d="M96.8342 15.375H90.4342V5.375H96.8342V15.375Z" fill="#D9D9D9"/>
<path d="M90.4342 15.375H80.4342V25.375H90.4342V15.375ZM96.8342 15.375V25.375H106.834V15.375H96.8342ZM90.4342 5.375V-4.625H80.4342V5.375H90.4342ZM96.8342 5.375H106.834V-4.625H96.8342V5.375ZM90.4342 25.375H96.8342V5.375H90.4342V25.375ZM80.4342 5.375V15.375H100.434V5.375H80.4342ZM96.8342 -4.625H90.4342V15.375H96.8342V-4.625ZM106.834 15.375V5.375H86.8342V15.375H106.834Z" fill="#E2E2E2" mask="url(#path-20-inside-10_567_4398)"/>
<rect x="1.33423" y="0.875" width="100" height="19" stroke="#E2E8FB"/>
</svg>
