<svg width="32" height="32" viewBox="0 0 32 32" fill="none" xmlns="http://www.w3.org/2000/svg">
<g clip-path="url(#clip0_627_45775)">
<rect width="32" height="32" fill="white"/>
<path d="M9.4375 24.25C10.0342 24.25 10.6065 24.0129 11.0285 23.591C11.4504 23.169 11.6875 22.5967 11.6875 22C11.6875 21.4033 11.4504 20.831 11.0285 20.409C10.6065 19.9871 10.0342 19.75 9.4375 19.75H8.125V24.25H9.4375Z" stroke="#285595" stroke-width="1.6" stroke-linecap="round" stroke-linejoin="round"/>
<path d="M16.1875 24.25C17.3266 24.25 18.25 23.2426 18.25 22C18.25 20.7574 17.3266 19.75 16.1875 19.75C15.0484 19.75 14.125 20.7574 14.125 22C14.125 23.2426 15.0484 24.25 16.1875 24.25Z" stroke="#285595" stroke-width="1.6" stroke-linecap="round" stroke-linejoin="round"/>
<path d="M23.875 23.7344C23.5162 24.0624 23.0487 24.2461 22.5625 24.25C21.4188 24.25 20.5 23.2469 20.5 22C20.5 20.7531 21.4188 19.75 22.5625 19.75C23.0487 19.7539 23.5162 19.9376 23.875 20.2656" stroke="#285595" stroke-width="1.6" stroke-linecap="round" stroke-linejoin="round"/>
<path d="M8.46143 16V7.75C8.46143 7.55109 8.54044 7.36032 8.6811 7.21967C8.82175 7.07902 9.01251 7 9.21143 7H18.2114L23.4614 12.25V16" stroke="#285595" stroke-width="1.6" stroke-linecap="round" stroke-linejoin="round"/>
<path d="M18.25 7V12.25H23.5" stroke="#285595" stroke-width="1.6" stroke-linecap="round" stroke-linejoin="round"/>
</g>
<rect x="0.5" y="0.5" width="31" height="31" stroke="#285595"/>
<defs>
<clipPath id="clip0_627_45775">
<rect width="32" height="32" fill="white"/>
</clipPath>
</defs>
</svg>
