<svg width="32" height="32" viewBox="0 0 32 32" fill="none" xmlns="http://www.w3.org/2000/svg">
<g clip-path="url(#clip0_627_45773)">
<rect width="32" height="32" fill="white"/>
<path d="M8.5 16V7.75C8.5 7.55109 8.57902 7.36032 8.71967 7.21967C8.86032 7.07902 9.05109 7 9.25 7H18.25L23.5 12.25V16" stroke="#0672BA" stroke-width="1.6" stroke-linecap="round" stroke-linejoin="round"/>
<path d="M18.25 7V12.25H23.5" stroke="#0672BA" stroke-width="1.6" stroke-linecap="round" stroke-linejoin="round"/>
<path d="M14.5569 14.8302C14.5569 14.8302 16.4838 14.8084 18.1569 16.7C18.1569 16.7 17.3732 13.9607 15.7218 14.0039C15.7218 14.0039 14.7475 13.8953 14.5569 14.8302Z" fill="#0672BA"/>
<path d="M18.7727 17.82C18.7727 17.82 16.6715 15.5987 13.8748 15.8146C13.8748 15.8146 11.5938 15.7068 11.8821 17.7784C11.8821 17.7784 14.7642 17.1528 16.2402 17.9294C16.2402 17.9294 12.002 18.4261 12.2422 21.5119C12.2422 21.5119 12.1704 24.1018 15.8675 23.8872C15.8675 23.8872 19.8528 23.5852 19.397 19.2906C19.397 19.2906 20.1746 19.3555 20.7894 19.7003C20.7894 19.699 21.4288 17.7742 18.7727 17.82ZM16.4917 22.3106C14.4028 22.8934 14.4509 21.2981 14.4509 21.2981C14.5948 19.2477 17.4038 19.1828 17.4038 19.1828C18.8444 21.4254 16.4917 22.3106 16.4917 22.3106Z" fill="#0672BA"/>
<path d="M17.2572 26.6006C17.2571 26.7786 17.2042 26.9526 17.1052 27.1006C17.0063 27.2485 16.8657 27.3638 16.7012 27.4319C16.5367 27.4999 16.3557 27.5176 16.1811 27.4828C16.0066 27.448 15.8463 27.3622 15.7205 27.2363C15.5946 27.1104 15.509 26.95 15.4744 26.7754C15.4397 26.6008 15.4576 26.4198 15.5258 26.2554C15.594 26.091 15.7094 25.9505 15.8575 25.8516C16.0056 25.7528 16.1796 25.7001 16.3576 25.7002C16.4758 25.7002 16.5928 25.7235 16.702 25.7688C16.8112 25.814 16.9104 25.8804 16.994 25.964C17.0775 26.0476 17.1438 26.1469 17.1889 26.2561C17.2341 26.3654 17.2573 26.4824 17.2572 26.6006Z" fill="#0672BA"/>
</g>
<rect x="0.5" y="0.5" width="31" height="31" stroke="#0672BA"/>
<defs>
<clipPath id="clip0_627_45773">
<rect width="32" height="32" fill="white"/>
</clipPath>
</defs>
</svg>
