<svg width="12" height="16" viewBox="0 0 12 16" fill="none" xmlns="http://www.w3.org/2000/svg">
<path fill-rule="evenodd" clip-rule="evenodd" d="M6 15.6752C6 15.6752 12 11.4752 12 6.0752C12 4.4839 11.3679 2.95777 10.2426 1.83255C9.11742 0.707336 7.5913 0.0751953 6 0.0751953C4.4087 0.0751953 2.88258 0.707336 1.75736 1.83255C0.632141 2.95777 0 4.4839 0 6.0752C0 11.4752 6 15.6752 6 15.6752ZM8.40005 6.07525C8.40005 7.40073 7.32554 8.47525 6.00005 8.47525C4.67457 8.47525 3.60005 7.40073 3.60005 6.07525C3.60005 4.74977 4.67457 3.67525 6.00005 3.67525C7.32554 3.67525 8.40005 4.74977 8.40005 6.07525Z" fill="#D9D9D9"/>
</svg>
