<svg width="107" height="26" viewBox="0 0 107 26" fill="none" xmlns="http://www.w3.org/2000/svg">
<g clip-path="url(#clip0_1128_48328)">
<path d="M8.15628 18.0625C11.4182 18.0625 14.0625 15.4182 14.0625 12.1562C14.0625 8.89432 11.4182 6.25 8.15628 6.25C4.89435 6.25 2.25003 8.89432 2.25003 12.1562C2.25003 15.4182 4.89435 18.0625 8.15628 18.0625Z" stroke="white" stroke-width="2" stroke-linecap="round" stroke-linejoin="round"/>
<path d="M13.0829 17L16.0829 20" stroke="white" stroke-width="2" stroke-linecap="round" stroke-linejoin="round"/>
</g>
<g clip-path="url(#clip1_1128_48328)">
<path d="M46 2.16667C40.02 2.16667 35.1667 7.02 35.1667 13C35.1667 18.98 40.02 23.8333 46 23.8333C51.98 23.8333 56.8333 18.98 56.8333 13C56.8333 7.02 51.98 2.16667 46 2.16667ZM46 5.41667C47.7983 5.41667 49.25 6.86834 49.25 8.66667C49.25 10.465 47.7983 11.9167 46 11.9167C44.2017 11.9167 42.75 10.465 42.75 8.66667C42.75 6.86834 44.2017 5.41667 46 5.41667ZM46 20.8C43.2917 20.8 40.8975 19.4133 39.5 17.3117C39.5325 15.1558 43.8333 13.975 46 13.975C48.1558 13.975 52.4675 15.1558 52.5 17.3117C51.1025 19.4133 48.7083 20.8 46 20.8Z" fill="white"/>
</g>
<path d="M77.9586 15L77.2478 15.7035L77.9586 16.4216L78.6693 15.7035L77.9586 15ZM74.6278 10.2132C74.2393 9.82068 73.6062 9.81742 73.2136 10.2059C72.8211 10.5944 72.8178 11.2276 73.2064 11.6201L74.6278 10.2132ZM82.7107 11.6201C83.0992 11.2276 83.096 10.5944 82.7035 10.2059C82.3109 9.81742 81.6778 9.82068 81.2893 10.2132L82.7107 11.6201ZM78.6693 14.2965L74.6278 10.2132L73.2064 11.6201L77.2478 15.7035L78.6693 14.2965ZM81.2893 10.2132L77.2478 14.2965L78.6693 15.7035L82.7107 11.6201L81.2893 10.2132Z" fill="white"/>
<path d="M101.041 11.0002L101.752 10.2967L101.041 9.5786L100.331 10.2967L101.041 11.0002ZM104.372 15.787C104.761 16.1795 105.394 16.1827 105.786 15.7942C106.179 15.4057 106.182 14.7726 105.794 14.38L104.372 15.787ZM96.2893 14.38C95.9008 14.7726 95.904 15.4057 96.2965 15.7942C96.6891 16.1827 97.3222 16.1795 97.7107 15.7869L96.2893 14.38ZM100.331 11.7036L104.372 15.787L105.794 14.38L101.752 10.2967L100.331 11.7036ZM97.7107 15.7869L101.752 11.7036L100.331 10.2967L96.2893 14.38L97.7107 15.7869Z" fill="white"/>
<defs>
<clipPath id="clip0_1128_48328">
<rect width="18" height="18" fill="white" transform="translate(3.05176e-05 4)"/>
</clipPath>
<clipPath id="clip1_1128_48328">
<rect width="26" height="26" fill="white" transform="translate(33)"/>
</clipPath>
</defs>
</svg>
