<svg width="94" height="23" viewBox="0 0 94 23" fill="none" xmlns="http://www.w3.org/2000/svg">
<g clip-path="url(#clip0_425_3489)">
<path fill-rule="evenodd" clip-rule="evenodd" d="M12.3646 13.4515L13.1785 11.8971L13.3046 11.6483L13.4359 11.3958L13.5672 11.1451L13.6986 10.8964C13.7435 10.8128 13.7867 10.7273 13.8299 10.6457L13.9629 10.3931C14.0061 10.3096 14.0493 10.226 14.0943 10.1425C14.1392 10.0589 14.1807 9.97539 14.2256 9.89184L14.5142 9.34001L14.7474 8.88922C14.7924 8.80567 14.8356 8.72212 14.8788 8.63857L15.0118 8.38792C15.055 8.30437 15.0982 8.22081 15.1431 8.13726C15.1881 8.05371 15.2295 7.97016 15.2745 7.88661L15.5509 7.37559L18.6975 1.36769L18.8219 1.62028C21.7537 7.66446 24.6883 13.7112 27.6258 19.7606H23.4787L22.3417 17.4211H14.3932C13.3692 18.4859 12.1294 19.2535 10.7817 19.6573C9.43399 20.0611 8.01898 20.0888 6.65956 19.7381C5.30014 19.3874 4.03739 18.6688 2.98097 17.6448C1.92455 16.6208 1.10639 15.3223 0.597516 13.862C0.088647 12.4018 -0.0955428 10.8239 0.0609395 9.26545C0.217422 7.70698 0.709846 6.21503 1.49546 4.91912C2.28106 3.62322 3.33611 2.56254 4.56899 1.82919C5.80186 1.09584 7.1753 0.711977 8.57004 0.710939C10.1105 0.710092 11.6223 1.18024 12.9435 2.07107L11.0583 5.87556C10.283 5.32964 9.38272 5.05031 8.46815 5.07189C7.55359 5.09347 6.66455 5.41503 5.9103 5.99704C5.15604 6.57905 4.56941 7.39616 4.22251 8.34797C3.87561 9.29978 3.78355 10.3448 3.95763 11.3547C4.13171 12.3645 4.56436 13.2952 5.20241 14.0323C5.84046 14.7694 6.6561 15.2808 7.54913 15.5038C8.44215 15.7267 9.37364 15.6514 10.2291 15.2872C11.0846 14.9229 11.8268 14.2856 12.3646 13.4534V13.4515ZM15.5509 7.37559L15.2831 7.88661L15.5509 7.37559ZM14.5142 9.34001L14.2239 9.89184L14.5142 9.34001ZM16.3112 14.4813C16.2853 14.5415 16.2594 14.6037 16.2317 14.664H21.006L18.701 9.91321L16.3112 14.4813ZM12.3646 13.4515C12.5452 13.1727 12.702 12.8754 12.8329 12.5635L12.3646 13.4573V13.4515ZM11.0583 5.87556L12.9435 2.07107L11.0583 5.87556Z" fill="#E4131B"/>
<path d="M39.8085 15.466C39.8158 16.1021 39.7484 16.7365 39.608 17.3527C39.4956 17.8654 39.2987 18.3499 39.0274 18.7809C38.7793 19.1667 38.4513 19.4789 38.0719 19.6902C37.6621 19.9052 37.2142 20.0122 36.7621 20.0031C36.5743 20.0071 36.3869 19.9849 36.204 19.937C36.0324 19.8966 35.8663 19.8313 35.7098 19.7427C35.5431 19.6457 35.3846 19.5319 35.2363 19.4026C35.0665 19.2552 34.9044 19.0969 34.7508 18.9285V22.6203C34.7518 22.6785 34.7354 22.7353 34.7041 22.7816C34.6618 22.8367 34.6068 22.8777 34.5451 22.9001C34.4465 22.9377 34.3445 22.9631 34.241 22.9759C34.0832 22.9942 33.9245 23.002 33.7658 22.9992C33.606 23.002 33.4462 22.9943 33.2872 22.9759C33.1848 22.9632 33.084 22.9377 32.9865 22.9001C32.9236 22.8797 32.8675 22.8384 32.8258 22.7816C32.7933 22.7359 32.7762 22.6788 32.7775 22.6203V11.6518C32.7759 11.5972 32.7899 11.5435 32.8172 11.4983C32.853 11.4483 32.9002 11.41 32.9537 11.3876C33.0379 11.3536 33.1256 11.3314 33.2146 11.3215C33.4801 11.293 33.7474 11.293 34.0129 11.3215C34.1002 11.3318 34.1861 11.354 34.2687 11.3876C34.3237 11.4079 34.3719 11.4465 34.4069 11.4983C34.4329 11.5441 34.4462 11.5976 34.4449 11.6518V12.5787C34.6341 12.3582 34.8343 12.15 35.0445 11.955C35.2306 11.7854 35.4308 11.6364 35.6424 11.51C35.8419 11.3907 36.0538 11.2993 36.2731 11.238C36.4998 11.1799 36.7317 11.1505 36.9643 11.1505C37.418 11.1351 37.8675 11.2523 38.2689 11.4906C38.6267 11.713 38.9295 12.0322 39.1501 12.4193C39.3873 12.8397 39.5558 13.3042 39.6477 13.7911C39.7531 14.3415 39.8053 14.9031 39.8033 15.466H39.8085ZM37.7574 15.6234C37.7593 15.2981 37.7374 14.9732 37.6917 14.6519C37.6526 14.3659 37.5769 14.0878 37.4671 13.8261C37.3678 13.5966 37.2215 13.3968 37.0403 13.2432C36.8489 13.0943 36.6197 13.0193 36.3871 13.0295C36.2558 13.0285 36.1252 13.0508 36.0001 13.0955C35.8608 13.145 35.7287 13.217 35.6078 13.3093C35.4593 13.4227 35.3215 13.5529 35.1966 13.6979C35.0359 13.8801 34.8869 14.0749 34.7508 14.2808V16.8922C34.9801 17.2326 35.2453 17.5406 35.5404 17.8094C35.7621 18.0119 36.0376 18.1254 36.3232 18.1319C36.5579 18.138 36.7879 18.0574 36.9781 17.9026C37.1624 17.7484 37.3131 17.5491 37.4187 17.3197C37.5366 17.0688 37.621 16.7997 37.6693 16.5211C37.7236 16.2258 37.7508 15.925 37.7505 15.6234H37.7574ZM48.2391 19.5309C48.2405 19.5679 48.2342 19.6047 48.2207 19.6384C48.2072 19.6722 48.1869 19.7019 48.1613 19.7252C48.0873 19.7802 48.0025 19.8142 47.9142 19.8243C47.7499 19.8499 47.5841 19.861 47.4183 19.8573C47.245 19.8619 47.0717 19.8509 46.8999 19.8243C46.8169 19.8147 46.7376 19.7805 46.6701 19.7252C46.6482 19.6994 46.6311 19.6689 46.6199 19.6355C46.6086 19.6021 46.6033 19.5666 46.6044 19.5309V18.9052C46.3275 19.2449 45.9948 19.5214 45.6247 19.7194C45.2423 19.9121 44.8273 20.0096 44.4082 20.005C44.0631 20.0097 43.7193 19.9553 43.3887 19.8437C43.0922 19.7466 42.816 19.5833 42.5766 19.3638C42.3483 19.147 42.1669 18.8745 42.0461 18.5671C41.915 18.2162 41.8508 17.8382 41.8578 17.4577C41.8478 17.0408 41.9297 16.6275 42.0962 16.2549C42.264 15.9085 42.5109 15.6187 42.8116 15.4155C43.1749 15.176 43.5735 15.0115 43.9883 14.9298C44.5258 14.8193 45.0715 14.7686 45.6178 14.7782H46.309V14.3119C46.3127 14.0939 46.2906 13.8763 46.2433 13.6648C46.2051 13.4917 46.1291 13.3321 46.0221 13.2005C45.9099 13.0719 45.77 12.9782 45.6161 12.9284C45.4115 12.8638 45.1995 12.8343 44.9871 12.841C44.6892 12.8366 44.3921 12.8777 44.1041 12.9634C43.8677 13.0342 43.6366 13.1258 43.4129 13.2374C43.2142 13.3365 43.0501 13.4317 42.9153 13.5075C42.818 13.579 42.7063 13.6217 42.5904 13.6318C42.5349 13.6332 42.4809 13.6118 42.4384 13.5716C42.39 13.5229 42.3522 13.4624 42.3278 13.3948C42.2965 13.3045 42.2739 13.2107 42.2604 13.115C42.246 12.9913 42.2391 12.8666 42.2397 12.7419C42.2359 12.5975 42.2486 12.4532 42.2777 12.3125C42.3051 12.2043 42.3569 12.106 42.428 12.0269C42.5398 11.9088 42.669 11.8134 42.8099 11.7451C43.0174 11.6316 43.2323 11.5362 43.4527 11.4595C43.7155 11.3656 43.984 11.2936 44.2562 11.2438C44.5517 11.1854 44.8512 11.1568 45.1512 11.1583C45.6251 11.1486 46.0981 11.2093 46.5578 11.339C46.9111 11.4367 47.2397 11.6242 47.5185 11.887C47.7754 12.1496 47.9646 12.4852 48.0663 12.8585C48.1877 13.3107 48.246 13.7813 48.2391 14.2536V19.5309ZM46.309 16.1694H45.5573C45.2844 16.1657 45.0119 16.1917 44.7435 16.2471C44.5489 16.2877 44.3627 16.368 44.194 16.4842C44.0627 16.5809 43.9566 16.715 43.8864 16.8728C43.8202 17.0341 43.7872 17.2101 43.7896 17.3877C43.7815 17.5324 43.8023 17.6773 43.8504 17.8118C43.8985 17.9463 43.9728 18.0669 44.0678 18.1649C44.2824 18.3667 44.5576 18.4683 44.8368 18.4486C45.1061 18.4469 45.3695 18.36 45.5971 18.198C45.8631 18.0068 46.1019 17.7717 46.3055 17.5004V16.1694H46.309ZM55.6001 12.3824C55.6001 12.5962 55.6001 12.771 55.5863 12.9032C55.58 13.0105 55.5632 13.1167 55.5362 13.2199C55.5257 13.2803 55.4985 13.3354 55.4584 13.3773C55.42 13.4089 55.373 13.4247 55.3254 13.422C55.2785 13.4218 55.2321 13.4112 55.1889 13.3909C55.1353 13.3734 55.0765 13.3501 55.0161 13.3248C54.9556 13.2995 54.8761 13.2821 54.7983 13.2587C54.7126 13.2384 54.6251 13.2287 54.5374 13.2296C54.425 13.2313 54.3138 13.2556 54.2091 13.3015C54.0851 13.3629 53.9689 13.4427 53.8635 13.5385C53.7276 13.6643 53.6037 13.8056 53.4937 13.9602C53.3464 14.1681 53.2092 14.3847 53.0825 14.6092V19.5037C53.0851 19.5606 53.0691 19.6165 53.0376 19.6611C52.9941 19.7131 52.9384 19.7502 52.8769 19.7679C52.7789 19.8038 52.6773 19.8259 52.5745 19.834C52.416 19.8521 52.2568 19.8605 52.0976 19.8593C51.9389 19.8606 51.7803 19.8522 51.6224 19.834C51.5195 19.8261 51.418 19.8039 51.32 19.7679C51.2582 19.7511 51.2022 19.7139 51.1593 19.6611C51.1271 19.6168 51.1105 19.5608 51.1126 19.5037V11.6518C51.1114 11.5976 51.1246 11.5441 51.1507 11.4983C51.1875 11.4461 51.2375 11.4075 51.2941 11.3876C51.3784 11.3541 51.466 11.3319 51.555 11.3215C51.6887 11.305 51.8231 11.2979 51.9576 11.3002C52.0961 11.298 52.2346 11.3051 52.3723 11.3215C52.4592 11.3306 52.5447 11.3528 52.6263 11.3876C52.6781 11.4088 52.7227 11.4475 52.7542 11.4983C52.7802 11.5441 52.7934 11.5976 52.7922 11.6518V12.6234C52.9491 12.368 53.1224 12.1257 53.3106 11.8986C53.4506 11.7301 53.6058 11.5783 53.7737 11.4459C53.9069 11.3422 54.0539 11.2629 54.2091 11.2108C54.3522 11.1674 54.4998 11.1452 54.648 11.1447C54.7219 11.1452 54.7958 11.1504 54.8692 11.1603C54.9506 11.1673 55.0314 11.181 55.1111 11.2011C55.185 11.2195 55.2578 11.2435 55.3288 11.273C55.3799 11.2907 55.4279 11.3183 55.4705 11.3546C55.496 11.383 55.5165 11.4167 55.531 11.4537C55.5476 11.5005 55.5592 11.5494 55.5655 11.5994C55.58 11.6905 55.5881 11.7828 55.5897 11.8753C55.5897 11.9977 55.5897 12.1668 55.5897 12.3766L55.6001 12.3824ZM61.8604 18.7323C61.8644 18.9277 61.8505 19.123 61.819 19.3152C61.8022 19.4216 61.7625 19.5217 61.7032 19.6067C61.6441 19.6714 61.5743 19.7222 61.4976 19.7563C61.393 19.8031 61.2856 19.8414 61.1762 19.8709C61.0439 19.9047 60.9101 19.93 60.7753 19.9467C60.6318 19.9646 60.4876 19.9737 60.3433 19.9739C59.9975 19.9813 59.653 19.9241 59.3238 19.8049C59.0518 19.7022 58.8066 19.5253 58.6102 19.29C58.4144 19.0375 58.273 18.7376 58.1972 18.4136C58.1017 18.0054 58.0569 17.5843 58.0642 17.1623V13.146H57.2261C57.1737 13.1459 57.1226 13.127 57.0804 13.092C57.0381 13.0571 57.0069 13.008 56.9911 12.9517C56.9257 12.7289 56.8981 12.4943 56.9099 12.26C56.9091 12.1165 56.9166 11.973 56.9324 11.8306C56.9403 11.7347 56.9601 11.6406 56.9911 11.5508C57.0097 11.493 57.0435 11.4429 57.0879 11.407C57.1288 11.3767 57.1771 11.3611 57.2261 11.3623H58.059V9.61359C58.0576 9.55812 58.0721 9.50361 58.1004 9.45815C58.1413 9.40159 58.1959 9.35971 58.2577 9.33768C58.355 9.29684 58.4567 9.2707 58.5601 9.25996C58.7173 9.24107 58.8754 9.23263 59.0335 9.2347C59.1945 9.23256 59.3555 9.241 59.5156 9.25996C59.6176 9.26689 59.7182 9.28978 59.8146 9.32797C59.876 9.35079 59.9304 9.39252 59.9718 9.44843C60.0039 9.492 60.0205 9.54737 60.0185 9.60388V11.3526H61.5408C61.5886 11.3524 61.6355 11.368 61.6755 11.3973C61.7206 11.4334 61.7554 11.4833 61.7758 11.5411C61.8037 11.6318 61.8228 11.7256 61.8328 11.8209C61.8472 11.9634 61.8535 12.1069 61.8518 12.2503C61.862 12.4841 61.8363 12.7181 61.7758 12.942C61.7222 13.08 61.6462 13.1499 61.5477 13.1499H60.0185V16.8378C59.9976 17.1743 60.0604 17.5107 60.1999 17.8094C60.3191 18.025 60.5334 18.1319 60.841 18.1319C60.9367 18.1332 61.0323 18.1228 61.1261 18.1008C61.2003 18.0827 61.2735 18.06 61.3455 18.0328L61.5183 17.959C61.5562 17.939 61.5974 17.9284 61.6393 17.9279C61.6713 17.9279 61.7026 17.9388 61.7291 17.959C61.7623 17.9906 61.7854 18.0336 61.7948 18.0814C61.8136 18.1652 61.828 18.2502 61.838 18.3359C61.8527 18.47 61.8591 18.605 61.857 18.7401L61.8604 18.7323ZM70.8613 19.5095C70.8617 19.5663 70.8453 19.6217 70.8146 19.6669C70.7722 19.7185 70.7177 19.7555 70.6574 19.7738C70.5601 19.8102 70.4591 19.8324 70.3567 19.8398C70.0395 19.8735 69.7201 19.8735 69.4029 19.8398C69.3 19.8326 69.1984 19.8104 69.1005 19.7738C69.0405 19.7548 68.9861 19.7178 68.9433 19.6669C68.9126 19.6217 68.8962 19.5663 68.8966 19.5095V15.0405C68.9031 14.7384 68.8782 14.4365 68.8223 14.1409C68.7798 13.9361 68.7042 13.7418 68.5994 13.5677C68.5075 13.4147 68.3827 13.2904 68.2365 13.2063C68.0752 13.1181 67.8975 13.0748 67.7182 13.08C67.443 13.0906 67.1777 13.198 66.9596 13.387C66.658 13.6441 66.3889 13.9461 66.1596 14.2847V19.5037C66.1617 19.5608 66.1451 19.6168 66.1129 19.6611C66.0695 19.7123 66.0146 19.7492 65.9539 19.7679C65.8564 19.8034 65.7555 19.8256 65.6533 19.834C65.4942 19.852 65.3345 19.8604 65.1746 19.8593C65.0154 19.8606 64.8562 19.8522 64.6977 19.834C64.5949 19.8259 64.4934 19.8038 64.3953 19.7679C64.3342 19.7506 64.2789 19.7135 64.2364 19.6611C64.2025 19.6177 64.1846 19.5614 64.1862 19.5037V11.6518C64.1856 11.5974 64.1995 11.5439 64.226 11.4983C64.2632 11.4465 64.313 11.408 64.3694 11.3876C64.4538 11.3543 64.5414 11.3321 64.6303 11.3215C64.7646 11.3051 64.8996 11.298 65.0347 11.3002C65.1732 11.2981 65.3116 11.3052 65.4494 11.3215C65.5357 11.3308 65.6206 11.353 65.7017 11.3876C65.7538 11.4089 65.799 11.4476 65.8313 11.4983C65.8586 11.5435 65.8725 11.5972 65.871 11.6518V12.5631C66.2069 12.1381 66.6034 11.7789 67.0443 11.5003C67.4285 11.2711 67.8568 11.151 68.2918 11.1505C68.7076 11.1352 69.121 11.2255 69.5014 11.4148C69.8129 11.5782 70.0845 11.8243 70.2928 12.1318C70.4985 12.449 70.6449 12.81 70.7231 13.1927C70.8207 13.6718 70.866 14.1624 70.8578 14.6539V19.5115L70.8613 19.5095ZM80.1524 15.3572C80.1679 15.5721 80.1112 15.7856 79.9935 15.9557C79.9363 16.0211 79.8675 16.0721 79.7916 16.1056C79.7156 16.1391 79.6343 16.1542 79.5528 16.15H75.2917C75.2881 16.4578 75.3236 16.7647 75.3971 17.0613C75.4608 17.3186 75.5754 17.5564 75.7324 17.7569C75.8968 17.9546 76.1013 18.1046 76.3285 18.1941C76.61 18.3005 76.9059 18.3511 77.2028 18.3437C77.5057 18.3461 77.8081 18.3181 78.1065 18.2601C78.3362 18.2107 78.5629 18.1458 78.7856 18.0658C78.9774 17.9998 79.1312 17.9357 79.2591 17.8812C79.356 17.834 79.4595 17.8057 79.5649 17.7977C79.6059 17.7955 79.6466 17.8063 79.6824 17.8288C79.7188 17.8557 79.7471 17.8943 79.7636 17.9395C79.786 18.0124 79.8 18.0881 79.8051 18.1649C79.8051 18.2621 79.8155 18.3806 79.8155 18.5283C79.8155 18.676 79.8155 18.7692 79.8155 18.8586C79.8155 18.948 79.7999 19.0276 79.7913 19.0937C79.7833 19.1502 79.7682 19.2052 79.7464 19.2569C79.7235 19.3022 79.6957 19.344 79.6634 19.3813C79.5802 19.4566 79.4853 19.5139 79.3835 19.5503C79.1912 19.632 78.9944 19.6995 78.7943 19.7524C78.5292 19.8255 78.2611 19.8832 77.9908 19.9253C77.6686 19.9775 77.3434 20.0022 77.0179 19.9992C76.466 20.0159 75.9152 19.9325 75.3868 19.7524C74.9464 19.5935 74.5461 19.3191 74.2187 18.9519C73.8913 18.5682 73.6507 18.1018 73.5171 17.5917C73.3551 16.9685 73.2776 16.3213 73.2873 15.672C73.2799 15.0321 73.3616 14.3949 73.5292 13.7834C73.674 13.2587 73.9134 12.7732 74.2325 12.3572C74.5419 11.9666 74.9267 11.6608 75.3574 11.4634C76.3215 11.0574 77.3828 11.0518 78.3502 11.4478C78.7421 11.6209 79.0916 11.8967 79.3697 12.2522C79.6426 12.6057 79.8431 13.0223 79.9572 13.4725C80.0859 13.9691 80.1488 14.4844 80.1438 15.0017V15.3553L80.1524 15.3572ZM78.2431 14.7238C78.2592 14.102 78.148 13.613 77.9096 13.2568C77.6728 12.9032 77.3065 12.7244 76.8089 12.7244C76.5837 12.7185 76.3605 12.7724 76.1574 12.8818C75.9741 12.9808 75.8124 13.1241 75.684 13.3015C75.5566 13.4923 75.4612 13.7076 75.4023 13.9369C75.336 14.1896 75.2983 14.4507 75.29 14.7141L78.2431 14.7238ZM87.1696 12.3921C87.1696 12.6059 87.1696 12.7808 87.1523 12.9129C87.1452 13.0198 87.1296 13.1258 87.1057 13.2296C87.0935 13.2901 87.0651 13.345 87.0245 13.387C86.9861 13.4189 86.939 13.4347 86.8914 13.4317C86.8446 13.4312 86.7982 13.4206 86.7549 13.4006C86.7013 13.3831 86.6426 13.3598 86.5821 13.3345C86.5216 13.3093 86.4421 13.2918 86.3661 13.2685C86.2809 13.2482 86.194 13.2384 86.1069 13.2393C85.9945 13.2402 85.8831 13.2646 85.7786 13.3112C85.6542 13.3719 85.5379 13.4517 85.433 13.5483C85.2979 13.6737 85.1751 13.815 85.0667 13.9699C84.9182 14.1772 84.7803 14.3939 84.6537 14.6189V19.5037C84.6556 19.5604 84.6397 19.6161 84.6088 19.6611C84.5651 19.7118 84.5103 19.7487 84.4498 19.7679C84.3506 19.8035 84.2479 19.8257 84.144 19.834C83.8273 19.8677 83.5085 19.8677 83.1919 19.834C83.0891 19.8257 82.9876 19.8036 82.8895 19.7679C82.8281 19.7512 82.7727 19.7139 82.7305 19.6611C82.6971 19.6175 82.6798 19.5612 82.6821 19.5037V11.6518C82.6806 11.5972 82.6945 11.5435 82.7219 11.4983C82.758 11.446 82.8074 11.4074 82.8636 11.3876C82.9485 11.3538 83.0366 11.3317 83.1262 11.3215C83.2599 11.305 83.3944 11.2979 83.5288 11.3002C83.6673 11.298 83.8058 11.3051 83.9435 11.3215C84.0299 11.3305 84.1148 11.3528 84.1958 11.3876C84.2482 11.4094 84.2938 11.4479 84.3271 11.4983C84.3523 11.5445 84.3655 11.5977 84.3652 11.6518V12.6234C84.5215 12.3675 84.6948 12.1252 84.8835 11.8986C85.0226 11.7297 85.1772 11.5779 85.3449 11.4459C85.479 11.3414 85.6272 11.262 85.7838 11.2108C85.9268 11.167 86.0744 11.1448 86.2227 11.1447C86.2955 11.1453 86.3682 11.1505 86.4404 11.1603C86.5224 11.1672 86.6038 11.1808 86.6841 11.2011C86.7585 11.2198 86.8318 11.2438 86.9035 11.273C86.9536 11.2906 87.0004 11.3182 87.0417 11.3546C87.0672 11.3835 87.0882 11.417 87.1039 11.4537C87.119 11.5011 87.1305 11.5498 87.1385 11.5994C87.1512 11.6908 87.1593 11.7829 87.1627 11.8753C87.1627 11.9977 87.1713 12.1668 87.1713 12.3766L87.1696 12.3921ZM94.0002 17.2867C94.0086 17.6946 93.9323 18.0991 93.7773 18.468C93.6314 18.8049 93.4164 19.0979 93.15 19.323C92.8595 19.5601 92.5318 19.7335 92.1841 19.834C91.7898 19.953 91.3828 20.0105 90.9745 20.005C90.7244 20.0082 90.4746 19.9861 90.2281 19.9389C90.0122 19.9027 89.799 19.8482 89.5904 19.7757C89.4298 19.7185 89.2727 19.649 89.1204 19.5678C89.0218 19.5166 88.9295 19.4513 88.8457 19.3735C88.7783 19.2912 88.7323 19.1897 88.7127 19.0801C88.6762 18.8886 88.6605 18.6929 88.666 18.4972C88.6647 18.3603 88.6698 18.2235 88.6815 18.0872C88.6903 18.0035 88.706 17.9209 88.7282 17.8404C88.7374 17.7911 88.7633 17.7478 88.8003 17.7195C88.8374 17.6912 88.8828 17.6803 88.9269 17.6889C89.0177 17.7025 89.1042 17.7405 89.1792 17.7996C89.2915 17.8715 89.4315 17.9512 89.6008 18.0386C89.7885 18.1374 89.9826 18.2199 90.1814 18.2854C90.4264 18.367 90.6811 18.4056 90.9365 18.4C91.0965 18.4017 91.2561 18.3814 91.4117 18.3398C91.5393 18.3041 91.6603 18.2436 91.7694 18.161C91.8697 18.091 91.9505 17.9907 92.0027 17.8715C92.0553 17.7459 92.0813 17.6082 92.0787 17.4693C92.0829 17.303 92.0317 17.1408 91.9353 17.0146C91.8266 16.8773 91.6951 16.7651 91.5482 16.6843C91.3746 16.5808 91.1944 16.4918 91.0091 16.4181C90.8121 16.3385 90.6047 16.2452 90.3922 16.1461C90.1795 16.0456 89.9723 15.9308 89.7719 15.8022C89.573 15.6739 89.3914 15.5142 89.2328 15.3281C89.0691 15.1307 88.9396 14.9007 88.8509 14.65C88.7479 14.3469 88.6986 14.0241 88.7057 13.6998C88.7029 13.3431 88.7702 12.9902 88.9027 12.6661C89.0328 12.3516 89.2256 12.0751 89.466 11.8578C89.7343 11.6187 90.042 11.4417 90.3715 11.3371C90.7563 11.2061 91.1565 11.1406 91.5586 11.1428C91.7725 11.1432 91.9862 11.1607 92.1979 11.1952C92.3869 11.2262 92.5739 11.271 92.7578 11.3293C92.9025 11.371 93.0432 11.4289 93.1777 11.5022C93.2656 11.5444 93.3496 11.5965 93.4282 11.6577C93.4684 11.695 93.5033 11.7389 93.5319 11.7879C93.5537 11.8386 93.5699 11.8921 93.5803 11.9472C93.5906 12.0113 93.5993 12.0851 93.6079 12.1765C93.6165 12.2678 93.62 12.3805 93.62 12.5165C93.62 12.6525 93.62 12.806 93.6079 12.9051C93.6029 12.9858 93.589 13.0654 93.5664 13.1422C93.5566 13.1907 93.5307 13.2331 93.4939 13.2607C93.4609 13.2823 93.4232 13.2931 93.385 13.2918C93.3066 13.2795 93.2316 13.2476 93.1656 13.1985C93.0636 13.1383 92.9409 13.0722 92.7906 13.0042C92.6212 12.9286 92.4481 12.8637 92.2722 12.8099C92.0533 12.7465 91.8278 12.7158 91.6018 12.7186C91.4457 12.7155 91.29 12.7357 91.1387 12.7788C91.0232 12.813 90.915 12.8731 90.8207 12.9556C90.7382 13.0259 90.6723 13.118 90.6289 13.2238C90.5894 13.3282 90.5688 13.4405 90.5685 13.5541C90.5638 13.7227 90.617 13.8869 90.7171 14.0126C90.8297 14.1458 90.9618 14.2562 91.1076 14.3391C91.2868 14.44 91.4715 14.5282 91.6605 14.6033C91.8661 14.6849 92.0752 14.7743 92.286 14.8715C92.5002 14.9703 92.7091 15.0832 92.9116 15.2096C93.1161 15.3362 93.3025 15.4966 93.4645 15.6856C93.631 15.8802 93.7634 16.1083 93.855 16.3579C93.9603 16.6529 94.0109 16.9689 94.0036 17.2867H94.0002Z" fill="#182869"/>
</g>
<defs>
<clipPath id="clip0_425_3489">
<rect width="94" height="22.2887" fill="white" transform="translate(0 0.710938)"/>
</clipPath>
</defs>
</svg>
