<svg width="126" height="35" viewBox="0 0 126 35" fill="none" xmlns="http://www.w3.org/2000/svg">
<path fill-rule="evenodd" clip-rule="evenodd" d="M23.8391 11.482L30.092 14.2345V7.17367L23.8391 4.4002V11.482ZM21.1034 3.1868L15.046 0.5L0 7.17367V17.2936C0 27.1967 6.442 31.5996 15.046 34.5C19.3287 33.0563 23.0757 31.2403 25.7593 28.5591C21.5632 29.5389 16.871 28.8776 12.9835 26.5242C11.2614 25.6833 9.95934 24.7955 9.00749 23.8382C7.63712 22.4601 6.64368 20.6031 6.64368 17.2936V11.4947L15.046 7.76789L21.1034 10.4547V3.1868ZM23.4483 17.2936V14.079L30.092 17.0035V17.2936C30.092 20.3839 29.4646 22.9386 28.3401 25.0792C25.2998 26.6788 21.5056 27.0454 17.9648 26.0835C19.2706 25.374 20.2973 24.6299 21.0845 23.8382C22.4548 22.4601 23.4483 20.6031 23.4483 17.2936Z" fill="url(#paint0_linear_1011_37396)"/>
<path d="M23.8389 4.4082L30.0917 7.17356V14.1783L23.8389 11.2708V4.4082Z" fill="#00C5FF"/>
<path d="M53.8103 20.1181H59.882L55.4309 12.8496L50.6831 12.3594L53.5364 7.56348H47.9211L40.0918 20.1181H45.707L49.907 13.553L53.8103 20.1181ZM52.5092 19.4431H47.4874V23.493H40.0918V27.4363H60.0918V23.493H52.5092V19.4431Z" fill="white"/>
<path d="M79.4312 7.59863H74.7418V9.92199V18.5759H79.4312V14.995H81.6479V11.2648H79.4312V7.59863ZM73.1219 18.0004V7.59863H68.6457V9.55964H65.7682V7.59863H61.292V10.2417V15.6131C61.292 15.9329 61.3986 16.1673 61.6117 16.4018L62.8054 17.6594C63.0185 17.8939 63.2743 18.0004 63.594 18.0004H73.1219ZM68.6457 12.9701V14.59H65.7682V12.9701H68.6457ZM66.2584 19.2154C63.6793 19.2154 62.0807 20.9419 62.0807 23.3079C62.0807 25.6739 63.6793 27.4004 66.2584 27.4004H75.7863C78.472 27.4004 79.964 25.6952 79.964 23.3079C79.964 20.9206 78.472 19.2154 75.7863 19.2154H66.2584ZM67.6439 23.99C67.111 23.99 66.77 23.7342 66.77 23.3079C66.77 22.8816 67.111 22.6258 67.6439 22.6258H74.4008C74.9337 22.6258 75.2747 22.8816 75.2747 23.3079C75.2747 23.7342 74.9337 23.99 74.4008 23.99H67.6439Z" fill="white"/>
<path d="M98.5815 14.8319H96.791V7.56348H92.7411V9.78026V27.3652H96.791V18.6687H98.5815V27.3652H102.631V7.56348H98.5815V14.8319ZM92.1017 7.56348H83.4478V10.1V25.049C83.4478 25.3687 83.5543 25.6032 83.7675 25.8377L84.9611 27.0953C85.1743 27.3297 85.4301 27.4363 85.7498 27.4363H91.8885V23.5996H87.6042V11.7199H92.1017V7.56348Z" fill="white"/>
<path d="M123.082 7.59863H118.393V9.92199V18.1496H123.082V14.7818H125.299V11.0517H123.082V7.59863ZM110.869 14.6326L112.617 17.5741H117.604L114.663 12.8209L112.062 12.5224L112.617 11.5419H117.072V7.59863H104.965V11.5419H107.842L104.432 17.5741H109.206L110.869 14.6326ZM109.91 18.7891C107.33 18.7891 105.732 20.6009 105.732 23.0947C105.732 25.5886 107.33 27.4004 109.91 27.4004H119.437C122.123 27.4004 123.615 25.6099 123.615 23.0947C123.615 20.5796 122.123 18.7891 119.437 18.7891H109.91ZM111.295 23.7768C110.762 23.7768 110.421 23.5211 110.421 23.0947C110.421 22.6684 110.762 22.4127 111.295 22.4127H118.052C118.585 22.4127 118.926 22.6684 118.926 23.0947C118.926 23.5211 118.585 23.7768 118.052 23.7768H111.295Z" fill="white"/>
<defs>
<linearGradient id="paint0_linear_1011_37396" x1="0" y1="0.5" x2="11.9779" y2="35.5485" gradientUnits="userSpaceOnUse">
<stop stop-color="#00C0FD"/>
<stop offset="0.46875" stop-color="#0093FD"/>
<stop offset="1" stop-color="#0046CF"/>
</linearGradient>
</defs>
</svg>
