<svg width="210" height="30" viewBox="0 0 210 30" fill="none" xmlns="http://www.w3.org/2000/svg">
<g clip-path="url(#clip0_1658_48549)">
<path d="M21.0847 15.4234C21.0847 16.6851 20.7124 17.9184 20.0148 18.9674C19.3173 20.0163 18.3259 20.8337 17.166 21.3162C16.0062 21.7986 14.73 21.9244 13.4991 21.6776C12.2681 21.4309 11.1376 20.8226 10.2506 19.9299C9.3636 19.0371 8.75999 17.8999 8.51614 16.6623C8.27229 15.4246 8.39915 14.1421 8.88068 12.9769C9.3622 11.8117 10.1767 10.8163 11.2212 10.1165C12.2657 9.4168 13.4933 9.04421 14.7485 9.0459C16.4294 9.0493 18.0404 9.72257 19.2282 10.9181C20.4159 12.1136 21.0836 13.7338 21.0847 15.4234Z" fill="#FFD436"/>
<path d="M6.76558 23.833C6.60646 23.8323 6.45386 23.7694 6.34004 23.6577C6.22779 23.5439 6.16479 23.3902 6.16479 23.2299C6.16479 23.0697 6.22779 22.916 6.34004 22.8022L8.65921 20.4711C8.77238 20.3582 8.92533 20.2949 9.08474 20.2949C9.24415 20.2949 9.3971 20.3582 9.51028 20.4711C9.56637 20.5271 9.61089 20.5938 9.64127 20.6672C9.67165 20.7406 9.68729 20.8193 9.68729 20.8988C9.68729 20.9783 9.67165 21.057 9.64127 21.1304C9.61089 21.2038 9.56637 21.2705 9.51028 21.3265L7.19111 23.6577C7.13528 23.7138 7.06891 23.7582 6.99586 23.7883C6.92281 23.8184 6.84453 23.8336 6.76558 23.833Z" fill="#FFD436"/>
<path opacity="0.7" d="M8.65066 17.0431C8.65066 17.0431 8.65066 16.9875 8.6081 16.8848C8.56828 16.744 8.53562 16.6013 8.51023 16.4571C8.48745 16.3512 8.4704 16.2441 8.45917 16.1363C8.45917 16.0764 8.45917 16.0165 8.45917 15.9481C8.45917 15.8797 8.45917 15.8198 8.45917 15.7514C8.43386 15.4411 8.43386 15.1292 8.45917 14.8189C8.52352 14.0372 8.73584 13.275 9.0847 12.5733C9.28097 12.1776 9.51771 11.8034 9.79109 11.4569C10.0751 11.0988 10.396 10.7719 10.7485 10.4817C11.1016 10.1907 11.4854 9.93964 11.8932 9.7332C12.2874 9.53423 12.701 9.37656 13.1273 9.26269C13.5181 9.15303 13.9185 9.08141 14.323 9.04883C14.5188 9.04883 14.7103 9.04883 14.8932 9.04883C15.0762 9.04883 15.2507 9.04883 15.4209 9.08305C15.5911 9.11726 15.7528 9.1301 15.906 9.15148C16.0592 9.17287 16.1996 9.21564 16.3316 9.25414C16.5599 9.31979 16.7844 9.39834 17.0039 9.48939L17.2422 9.59632L17.4124 9.69042L17.5571 9.76314L17.4082 9.70325L17.2252 9.63054L16.9784 9.54927C16.7575 9.47279 16.5314 9.41275 16.3018 9.36963C16.0043 9.30728 15.7028 9.26583 15.3996 9.24558C15.2379 9.24558 15.0635 9.24558 14.8805 9.24558C14.6975 9.24558 14.5188 9.24558 14.3315 9.27552C13.9384 9.31432 13.5496 9.38876 13.1698 9.49794C12.7639 9.61376 12.3705 9.76994 11.9954 9.96417C11.6138 10.1708 11.2533 10.4143 10.9188 10.6913C9.94095 11.4917 9.21759 12.5623 8.83789 13.771C8.72713 14.1085 8.64457 14.4547 8.59108 14.8061C8.55056 15.1067 8.52924 15.4095 8.52725 15.7129V15.9096C8.52725 15.9738 8.52725 16.0337 8.52725 16.0935C8.52725 16.1534 8.52725 16.3202 8.55278 16.4143C8.57832 16.5084 8.55278 16.6025 8.58257 16.6753C8.61236 16.748 8.6081 16.8164 8.61661 16.8677L8.65066 17.0431Z" fill="white"/>
<path d="M14.7485 7.78093C14.5905 7.78093 14.439 7.71784 14.3273 7.60554C14.2155 7.49324 14.1528 7.34093 14.1528 7.18211V3.88431C14.1458 3.80113 14.156 3.7174 14.1829 3.63841C14.2098 3.55943 14.2527 3.48691 14.3089 3.42545C14.3651 3.36399 14.4334 3.31492 14.5094 3.28136C14.5854 3.2478 14.6676 3.23047 14.7506 3.23047C14.8337 3.23047 14.9158 3.2478 14.9919 3.28136C15.0679 3.31492 15.1362 3.36399 15.1924 3.42545C15.2486 3.48691 15.2915 3.55943 15.3184 3.63841C15.3452 3.7174 15.3555 3.80113 15.3485 3.88431V7.18211C15.3474 7.34132 15.2837 7.49362 15.1713 7.6058C15.0589 7.71798 14.9069 7.78094 14.7485 7.78093Z" fill="#FFD436"/>
<path opacity="0.7" d="M14.1526 7.16869C14.1526 7.16869 14.1526 6.90777 14.1526 6.50999C14.1526 6.1122 14.1526 5.58609 14.1526 5.0557C14.1526 4.79479 14.1526 4.5296 14.1526 4.28151V3.9265C14.1471 3.81493 14.1721 3.70399 14.2249 3.6057C14.2629 3.53293 14.3154 3.4688 14.3791 3.41729C14.4428 3.36578 14.5163 3.32799 14.5952 3.30629C14.639 3.30155 14.6832 3.30155 14.7271 3.30629C14.6833 3.31272 14.6405 3.3242 14.5994 3.34051C14.5355 3.36172 14.4763 3.39512 14.4249 3.43888C14.3581 3.49426 14.3031 3.56264 14.2632 3.63992C14.2189 3.7333 14.197 3.83587 14.1994 3.93933V4.29434C14.1994 4.54243 14.1994 4.80762 14.1994 5.06854C14.1994 5.59892 14.1994 6.12503 14.1994 6.52282C14.1994 6.92061 14.1526 7.16869 14.1526 7.16869Z" fill="white"/>
<path d="M19.9783 9.97606C19.9222 9.92001 19.8777 9.85337 19.8473 9.77996C19.8169 9.70656 19.8013 9.62785 19.8013 9.54834C19.8013 9.46884 19.8169 9.39012 19.8473 9.31672C19.8777 9.24331 19.9222 9.17665 19.9783 9.1206L22.2974 6.78948C22.4103 6.67603 22.5634 6.6123 22.723 6.6123C22.8826 6.6123 23.0357 6.67603 23.1485 6.78948C23.2614 6.90292 23.3248 7.05678 23.3248 7.21721C23.3248 7.37764 23.2614 7.53149 23.1485 7.64494L20.8293 9.98034C20.7156 10.0926 20.5623 10.1552 20.4029 10.1544C20.2435 10.1536 20.0909 10.0895 19.9783 9.97606Z" fill="#FFD436"/>
<path opacity="0.7" d="M19.9954 9.12666L20.4549 8.65616L21.4762 7.62533L22.0209 7.07784L22.272 6.82548C22.3637 6.7229 22.4873 6.65474 22.6227 6.6322C22.758 6.60965 22.897 6.63407 23.0167 6.70143C23.0559 6.72507 23.093 6.75227 23.1273 6.7827L23.1571 6.81692L23.123 6.78698C23.0863 6.76167 23.0479 6.73881 23.0081 6.71854C22.9519 6.69811 22.8933 6.68517 22.8337 6.68005C22.7392 6.67018 22.6437 6.68285 22.5549 6.71704C22.4662 6.75122 22.3868 6.80596 22.323 6.8768L22.0677 7.12489L21.5188 7.6681C21.1401 8.04023 20.7698 8.41235 20.4847 8.6861L19.9954 9.12666Z" fill="white"/>
<path d="M22.1143 15.1721C22.1143 15.0132 22.177 14.8609 22.2887 14.7486C22.4005 14.6363 22.552 14.5732 22.71 14.5732H25.9909C26.1489 14.5732 26.3004 14.6363 26.4121 14.7486C26.5239 14.8609 26.5866 15.0132 26.5866 15.1721C26.5866 15.3309 26.5239 15.4832 26.4121 15.5955C26.3004 15.7078 26.1489 15.7709 25.9909 15.7709H22.71C22.552 15.7709 22.4005 15.7078 22.2887 15.5955C22.177 15.4832 22.1143 15.3309 22.1143 15.1721Z" fill="#FFD436"/>
<path opacity="0.7" d="M22.7231 14.5807H23.3785H25.9317C26.0421 14.5759 26.1519 14.5994 26.2508 14.6491C26.3243 14.6857 26.3891 14.738 26.4405 14.8022C26.4919 14.8665 26.5289 14.9412 26.5487 15.0212C26.5535 15.0667 26.5535 15.1126 26.5487 15.1581C26.5426 15.1145 26.5326 15.0716 26.5189 15.0298C26.4764 14.9061 26.3947 14.7998 26.2863 14.7272C26.1779 14.6545 26.0489 14.6196 25.9189 14.6277H24.8253H23.3785L22.7231 14.5807Z" fill="white"/>
<path d="M19.957 20.4404C20.0122 20.3829 20.0783 20.3373 20.1514 20.3061C20.2245 20.2749 20.3031 20.2588 20.3826 20.2588C20.462 20.2588 20.5406 20.2749 20.6137 20.3061C20.6868 20.3373 20.7529 20.3829 20.8081 20.4404L23.1273 22.7715C23.1831 22.8277 23.2275 22.8944 23.2577 22.9678C23.288 23.0411 23.3035 23.1198 23.3035 23.1992C23.3035 23.2787 23.288 23.3573 23.2577 23.4307C23.2275 23.5041 23.1831 23.5708 23.1273 23.627C23.0714 23.6831 23.005 23.7277 22.932 23.7581C22.859 23.7885 22.7808 23.8041 22.7017 23.8041C22.6227 23.8041 22.5444 23.7885 22.4714 23.7581C22.3984 23.7277 22.3321 23.6831 22.2762 23.627L19.957 21.2916C19.9005 21.2362 19.8557 21.17 19.825 21.0969C19.7944 21.0238 19.7786 20.9453 19.7786 20.866C19.7786 20.7867 19.7944 20.7081 19.825 20.635C19.8557 20.562 19.9005 20.4958 19.957 20.4404Z" fill="#FFD436"/>
<path opacity="0.7" d="M20.7996 20.4531L21.2676 20.9194C21.5485 21.1931 21.9187 21.5695 22.2932 21.9416L22.8336 22.5062L23.0847 22.7586C23.1668 22.8319 23.2272 22.9267 23.2591 23.0323C23.2846 23.1113 23.2933 23.1948 23.2845 23.2773C23.2757 23.3599 23.2496 23.4396 23.2081 23.5114C23.1847 23.5496 23.1577 23.5855 23.1272 23.6183L23.0932 23.6525L23.123 23.614C23.1489 23.5791 23.1717 23.5418 23.1911 23.5028C23.2182 23.44 23.2368 23.3739 23.2464 23.3061C23.2552 23.2112 23.2421 23.1155 23.2082 23.0265C23.1742 22.9374 23.1203 22.8575 23.0506 22.7928L22.8081 22.5062L22.2677 21.9502C21.8974 21.5738 21.5272 21.1974 21.2549 20.9108L20.7996 20.4531Z" fill="white"/>
<path d="M14.7061 27.1658C14.5481 27.1658 14.3966 27.1027 14.2848 26.9904C14.1731 26.8781 14.1104 26.7258 14.1104 26.5669V23.2691C14.123 23.1185 14.1915 22.9782 14.3022 22.8759C14.4129 22.7736 14.5578 22.7168 14.7082 22.7168C14.8586 22.7168 15.0035 22.7736 15.1143 22.8759C15.225 22.9782 15.2935 23.1185 15.3061 23.2691V26.5669C15.3067 26.6461 15.2915 26.7246 15.2615 26.7978C15.2315 26.871 15.1873 26.9374 15.1314 26.9932C15.0755 27.049 15.0091 27.093 14.9361 27.1226C14.863 27.1522 14.7848 27.1669 14.7061 27.1658Z" fill="#FFD436"/>
<path opacity="0.7" d="M14.1229 26.5577C14.1229 26.5577 14.1229 26.2925 14.1229 25.8947C14.1229 25.497 14.1229 24.9709 14.1229 24.4447V23.3113C14.1181 23.1998 14.143 23.089 14.1952 22.9905C14.2332 22.9177 14.2857 22.8536 14.3494 22.8021C14.4131 22.7505 14.4866 22.7128 14.5655 22.6911C14.6093 22.6863 14.6535 22.6863 14.6974 22.6911L14.5697 22.7253C14.5074 22.7499 14.4487 22.783 14.3952 22.8236C14.3284 22.879 14.2734 22.9474 14.2335 23.0247C14.1893 23.118 14.1689 23.2209 14.174 23.3241C14.174 23.4396 14.174 23.5593 14.174 23.6834C14.174 23.9272 14.174 24.1924 14.174 24.4576C14.174 24.9837 14.174 25.5141 14.174 25.9076C14.174 26.3011 14.1229 26.5577 14.1229 26.5577Z" fill="white"/>
<path d="M6.30175 23.6528C6.24461 23.5974 6.19917 23.5309 6.16813 23.4574C6.13709 23.3839 6.12109 23.3049 6.12109 23.2251C6.12109 23.1453 6.13709 23.0662 6.16813 22.9928C6.19917 22.9193 6.24461 22.8528 6.30175 22.7974L8.62092 20.4662C8.73378 20.3528 8.88684 20.2891 9.04645 20.2891C9.20606 20.2891 9.35913 20.3528 9.47199 20.4662C9.58484 20.5797 9.64825 20.7335 9.64825 20.894C9.64825 21.0544 9.58484 21.2083 9.47199 21.3217L7.15282 23.6528C7.09706 23.7092 7.03076 23.754 6.95773 23.7845C6.8847 23.815 6.80638 23.8307 6.72729 23.8307C6.64819 23.8307 6.56988 23.815 6.49685 23.7845C6.42382 23.754 6.35752 23.7092 6.30175 23.6528Z" fill="#FFD436"/>
<path opacity="0.7" d="M6.3186 22.8061L6.77393 22.3356L7.79521 21.3048L8.33989 20.7573L8.59096 20.5049C8.66391 20.4224 8.75817 20.3617 8.8633 20.3296C8.94187 20.304 9.02492 20.2953 9.10705 20.3041C9.18917 20.313 9.26852 20.3391 9.3399 20.3809C9.37796 20.4044 9.4136 20.4316 9.44628 20.4622L9.48033 20.4964L9.44203 20.4665C9.40721 20.4404 9.37019 20.4175 9.33139 20.398C9.26891 20.3708 9.20307 20.3521 9.13564 20.3424C9.04121 20.3336 8.94601 20.3467 8.85745 20.3808C8.76889 20.4149 8.68935 20.4691 8.625 20.5392L8.36543 20.7958L7.81649 21.339L6.79095 22.3485L6.3186 22.8061Z" fill="white"/>
<path d="M2.85474 15.2756C2.85586 15.1164 2.91957 14.9641 3.03197 14.8519C3.14437 14.7397 3.29634 14.6768 3.45474 14.6768H6.73561C6.88547 14.6895 7.02511 14.7583 7.12688 14.8696C7.22865 14.9809 7.28513 15.1266 7.28513 15.2777C7.28513 15.4289 7.22865 15.5745 7.12688 15.6858C7.02511 15.7971 6.88547 15.866 6.73561 15.8787H3.45474C3.37595 15.8787 3.29793 15.8631 3.22513 15.8328C3.15233 15.8025 3.08619 15.758 3.03047 15.702C2.97476 15.646 2.93056 15.5795 2.90041 15.5064C2.87026 15.4332 2.85474 15.3548 2.85474 15.2756Z" fill="#FFD436"/>
<path opacity="0.7" d="M3.46338 14.6881H6.69319C6.80226 14.6833 6.91073 14.7069 7.00808 14.7566C7.0814 14.7951 7.14605 14.8485 7.19803 14.9132C7.25 14.978 7.28818 15.0528 7.31021 15.133C7.31493 15.177 7.31493 15.2215 7.31021 15.2655V15.3126C7.31021 15.3126 7.31021 15.3126 7.31021 15.2655C7.30572 15.2217 7.29571 15.1786 7.28042 15.1372C7.25589 15.0746 7.22296 15.0156 7.18255 14.9619C7.12865 14.8935 7.06035 14.838 6.98255 14.7993C6.88935 14.7556 6.78751 14.7337 6.68468 14.7352H5.56552H4.12296L3.46338 14.6881Z" fill="white"/>
<path d="M6.32734 6.82361C6.44052 6.71078 6.59347 6.64746 6.75287 6.64746C6.91228 6.64746 7.06523 6.71078 7.17841 6.82361L9.49332 9.15902C9.5492 9.21519 9.59353 9.28187 9.62377 9.35526C9.65401 9.42865 9.66958 9.50731 9.66958 9.58675C9.66958 9.66619 9.65401 9.74485 9.62377 9.81824C9.59353 9.89163 9.5492 9.95831 9.49332 10.0145C9.43744 10.0707 9.37109 10.1152 9.29808 10.1456C9.22507 10.176 9.14681 10.1917 9.06778 10.1917C8.98875 10.1917 8.9105 10.176 8.83749 10.1456C8.76447 10.1152 8.69813 10.0707 8.64225 10.0145L6.32309 7.67907C6.26727 7.62274 6.22308 7.55588 6.19307 7.48232C6.16305 7.40876 6.14781 7.32996 6.1482 7.25046C6.1486 7.17095 6.16463 7.09231 6.19537 7.01906C6.22611 6.9458 6.27096 6.87938 6.32734 6.82361Z" fill="#FFD436"/>
<path opacity="0.7" d="M7.16968 6.8418L7.63777 7.30374C7.92287 7.58177 8.28883 7.95817 8.66331 8.3303L9.2165 8.87779L9.46757 9.13015C9.5503 9.2038 9.612 9.2983 9.64629 9.4039C9.66953 9.4832 9.67698 9.56634 9.66822 9.64854C9.65946 9.73074 9.63465 9.8104 9.59523 9.88296C9.56928 9.92048 9.54084 9.95621 9.51012 9.98989L9.47608 10.0198C9.48795 10.0103 9.49804 9.99871 9.50586 9.98561C9.53259 9.94967 9.55542 9.91095 9.57395 9.87012C9.60644 9.80839 9.6294 9.74204 9.64203 9.67337C9.6504 9.58667 9.64024 9.49917 9.61225 9.41673C9.58129 9.31755 9.5239 9.22879 9.44629 9.16009L9.19948 8.90346L8.65905 8.35168L7.64628 7.3123L7.16968 6.8418Z" fill="white"/>
</g>
<g clip-path="url(#clip1_1658_48549)">
<path d="M48.0847 12.4234C48.0847 13.6851 47.7124 14.9184 47.0148 15.9674C46.3173 17.0163 45.3259 17.8337 44.166 18.3162C43.0062 18.7986 41.73 18.9244 40.4991 18.6776C39.2681 18.4309 38.1376 17.8226 37.2506 16.9299C36.3636 16.0371 35.76 14.8999 35.5161 13.6623C35.2723 12.4246 35.3992 11.1421 35.8807 9.9769C36.3622 8.8117 37.1767 7.81627 38.2212 7.11654C39.2657 6.4168 40.4933 6.04421 41.7485 6.0459C43.4294 6.0493 45.0404 6.72257 46.2282 7.91809C47.4159 9.1136 48.0836 10.7338 48.0847 12.4234Z" fill="#FFD436"/>
<path d="M33.7656 20.833C33.6065 20.8323 33.4539 20.7694 33.34 20.6577C33.2278 20.5439 33.1648 20.3902 33.1648 20.2299C33.1648 20.0697 33.2278 19.916 33.34 19.8022L35.6592 17.4711C35.7724 17.3582 35.9253 17.2949 36.0847 17.2949C36.2442 17.2949 36.3971 17.3582 36.5103 17.4711C36.5664 17.5271 36.6109 17.5938 36.6413 17.6672C36.6717 17.7406 36.6873 17.8193 36.6873 17.8988C36.6873 17.9783 36.6717 18.057 36.6413 18.1304C36.6109 18.2038 36.5664 18.2705 36.5103 18.3265L34.1911 20.6577C34.1353 20.7138 34.0689 20.7582 33.9959 20.7883C33.9228 20.8184 33.8445 20.8336 33.7656 20.833Z" fill="#FFD436"/>
<path opacity="0.7" d="M35.6507 14.0431C35.6507 14.0431 35.6507 13.9875 35.6081 13.8848C35.5683 13.744 35.5356 13.6013 35.5102 13.4571C35.4874 13.3512 35.4704 13.2441 35.4592 13.1363C35.4592 13.0764 35.4592 13.0165 35.4592 12.9481C35.4592 12.8797 35.4592 12.8198 35.4592 12.7514C35.4339 12.4411 35.4339 12.1292 35.4592 11.8189C35.5235 11.0372 35.7358 10.275 36.0847 9.5733C36.281 9.1776 36.5177 8.8034 36.7911 8.4569C37.0751 8.0988 37.396 7.77188 37.7485 7.48172C38.1016 7.19066 38.4854 6.93964 38.8932 6.7332C39.2874 6.53423 39.701 6.37656 40.1273 6.26269C40.5181 6.15303 40.9185 6.08141 41.323 6.04883C41.5188 6.04883 41.7103 6.04883 41.8932 6.04883C42.0762 6.04883 42.2507 6.04883 42.4209 6.08305C42.5911 6.11726 42.7528 6.1301 42.906 6.15148C43.0592 6.17287 43.1996 6.21564 43.3316 6.25414C43.5599 6.31979 43.7844 6.39834 44.0039 6.48939L44.2422 6.59632L44.4124 6.69042L44.5571 6.76314L44.4082 6.70325L44.2252 6.63054L43.9784 6.54927C43.7575 6.47279 43.5314 6.41275 43.3018 6.36963C43.0043 6.30728 42.7028 6.26583 42.3996 6.24558C42.2379 6.24558 42.0635 6.24558 41.8805 6.24558C41.6975 6.24558 41.5188 6.24558 41.3315 6.27552C40.9384 6.31432 40.5496 6.38876 40.1698 6.49794C39.7639 6.61376 39.3705 6.76994 38.9954 6.96417C38.6138 7.17081 38.2533 7.41434 37.9188 7.69131C36.9409 8.4917 36.2176 9.5623 35.8379 10.771C35.7271 11.1085 35.6446 11.4547 35.5911 11.8061C35.5506 12.1067 35.5292 12.4095 35.5272 12.7129V12.9096C35.5272 12.9738 35.5272 13.0337 35.5272 13.0935C35.5272 13.1534 35.5272 13.3202 35.5528 13.4143C35.5783 13.5084 35.5528 13.6025 35.5826 13.6753C35.6124 13.748 35.6081 13.8164 35.6166 13.8677L35.6507 14.0431Z" fill="white"/>
<path d="M41.7485 4.78093C41.5905 4.78093 41.439 4.71784 41.3273 4.60554C41.2155 4.49324 41.1528 4.34093 41.1528 4.18211V0.884309C41.1458 0.801129 41.156 0.717399 41.1829 0.638409C41.2098 0.559429 41.2527 0.486909 41.3089 0.425449C41.3651 0.363989 41.4334 0.314919 41.5094 0.281359C41.5854 0.247799 41.6676 0.230469 41.7506 0.230469C41.8337 0.230469 41.9158 0.247799 41.9919 0.281359C42.0679 0.314919 42.1362 0.363989 42.1924 0.425449C42.2486 0.486909 42.2915 0.559429 42.3184 0.638409C42.3452 0.717399 42.3555 0.801129 42.3485 0.884309V4.18211C42.3474 4.34132 42.2837 4.49362 42.1713 4.6058C42.0589 4.71798 41.9069 4.78094 41.7485 4.78093Z" fill="#FFD436"/>
<path opacity="0.7" d="M41.1526 4.16869C41.1526 4.16869 41.1526 3.90777 41.1526 3.50999C41.1526 3.1122 41.1526 2.58609 41.1526 2.0557C41.1526 1.79479 41.1526 1.5296 41.1526 1.28151V0.9265C41.1471 0.81493 41.1721 0.703989 41.2249 0.605699C41.2629 0.532929 41.3154 0.468799 41.3791 0.417289C41.4428 0.365779 41.5163 0.327989 41.5952 0.306289C41.639 0.301549 41.6832 0.301549 41.7271 0.306289C41.6833 0.312719 41.6405 0.324199 41.5994 0.340509C41.5355 0.361719 41.4763 0.395119 41.4249 0.438879C41.3581 0.494259 41.3031 0.562639 41.2632 0.639919C41.2189 0.733299 41.197 0.83587 41.1994 0.93933V1.29434C41.1994 1.54243 41.1994 1.80762 41.1994 2.06854C41.1994 2.59892 41.1994 3.12503 41.1994 3.52282C41.1994 3.92061 41.1526 4.16869 41.1526 4.16869Z" fill="white"/>
<path d="M46.9783 6.97606C46.9222 6.92001 46.8777 6.85337 46.8473 6.77996C46.8169 6.70656 46.8013 6.62785 46.8013 6.54834C46.8013 6.46884 46.8169 6.39012 46.8473 6.31672C46.8777 6.24331 46.9222 6.17665 46.9783 6.1206L49.2974 3.78948C49.4103 3.67603 49.5634 3.6123 49.723 3.6123C49.8826 3.6123 50.0357 3.67603 50.1485 3.78948C50.2614 3.90292 50.3248 4.05678 50.3248 4.21721C50.3248 4.37764 50.2614 4.53149 50.1485 4.64494L47.8293 6.98034C47.7156 7.09261 47.5623 7.15516 47.4029 7.15436C47.2435 7.15356 47.0909 7.08947 46.9783 6.97606Z" fill="#FFD436"/>
<path opacity="0.7" d="M46.9954 6.12666L47.4549 5.65616L48.4762 4.62533L49.0209 4.07784L49.272 3.82548C49.3637 3.7229 49.4873 3.65474 49.6227 3.6322C49.758 3.60965 49.897 3.63407 50.0167 3.70143C50.0559 3.72507 50.093 3.75227 50.1273 3.7827L50.1571 3.81692L50.123 3.78698C50.0863 3.76167 50.0479 3.73881 50.0081 3.71854C49.9519 3.69811 49.8933 3.68517 49.8337 3.68005C49.7392 3.67018 49.6437 3.68285 49.5549 3.71704C49.4662 3.75122 49.3868 3.80596 49.323 3.8768L49.0677 4.12489L48.5188 4.6681C48.1401 5.04023 47.7698 5.41235 47.4847 5.6861L46.9954 6.12666Z" fill="white"/>
<path d="M49.1143 12.1721C49.1143 12.0132 49.177 11.8609 49.2887 11.7486C49.4005 11.6363 49.552 11.5732 49.71 11.5732H52.9909C53.1489 11.5732 53.3004 11.6363 53.4121 11.7486C53.5239 11.8609 53.5866 12.0132 53.5866 12.1721C53.5866 12.3309 53.5239 12.4832 53.4121 12.5955C53.3004 12.7078 53.1489 12.7709 52.9909 12.7709H49.71C49.552 12.7709 49.4005 12.7078 49.2887 12.5955C49.177 12.4832 49.1143 12.3309 49.1143 12.1721Z" fill="#FFD436"/>
<path opacity="0.7" d="M49.7231 11.5807H50.3785H52.9317C53.0421 11.5759 53.1519 11.5994 53.2508 11.6491C53.3243 11.6857 53.3891 11.738 53.4405 11.8022C53.4919 11.8665 53.5289 11.9412 53.5487 12.0212C53.5535 12.0667 53.5535 12.1126 53.5487 12.1581C53.5426 12.1145 53.5326 12.0716 53.5189 12.0298C53.4764 11.9061 53.3947 11.7998 53.2863 11.7272C53.1779 11.6545 53.0489 11.6196 52.9189 11.6277H51.8253H50.3785L49.7231 11.5807Z" fill="white"/>
<path d="M46.957 17.4404C47.0122 17.3829 47.0783 17.3373 47.1514 17.3061C47.2245 17.2749 47.3031 17.2588 47.3826 17.2588C47.462 17.2588 47.5406 17.2749 47.6137 17.3061C47.6868 17.3373 47.7529 17.3829 47.8081 17.4404L50.1273 19.7715C50.1831 19.8277 50.2275 19.8944 50.2577 19.9678C50.288 20.0411 50.3035 20.1198 50.3035 20.1992C50.3035 20.2787 50.288 20.3573 50.2577 20.4307C50.2275 20.5041 50.1831 20.5708 50.1273 20.627C50.0714 20.6831 50.005 20.7277 49.932 20.7581C49.859 20.7885 49.7808 20.8041 49.7017 20.8041C49.6227 20.8041 49.5444 20.7885 49.4714 20.7581C49.3984 20.7277 49.3321 20.6831 49.2762 20.627L46.957 18.2916C46.9005 18.2362 46.8557 18.17 46.825 18.0969C46.7944 18.0238 46.7786 17.9453 46.7786 17.866C46.7786 17.7867 46.7944 17.7081 46.825 17.635C46.8557 17.562 46.9005 17.4958 46.957 17.4404Z" fill="#FFD436"/>
<path opacity="0.7" d="M47.7996 17.4531L48.2676 17.9194C48.5485 18.1931 48.9187 18.5695 49.2932 18.9416L49.8336 19.5062L50.0847 19.7586C50.1668 19.8319 50.2272 19.9267 50.2591 20.0323C50.2846 20.1113 50.2933 20.1948 50.2845 20.2773C50.2757 20.3599 50.2496 20.4396 50.2081 20.5114C50.1847 20.5496 50.1577 20.5855 50.1272 20.6183L50.0932 20.6525L50.123 20.614C50.1489 20.5791 50.1717 20.5418 50.1911 20.5028C50.2182 20.44 50.2368 20.3739 50.2464 20.3061C50.2552 20.2112 50.2421 20.1155 50.2082 20.0265C50.1742 19.9374 50.1203 19.8575 50.0506 19.7928L49.8081 19.5062L49.2677 18.9502C48.8974 18.5738 48.5272 18.1974 48.2549 17.9108L47.7996 17.4531Z" fill="white"/>
<path d="M41.7061 24.1658C41.5481 24.1658 41.3966 24.1027 41.2848 23.9904C41.1731 23.8781 41.1104 23.7258 41.1104 23.5669V20.2691C41.123 20.1185 41.1915 19.9782 41.3022 19.8759C41.4129 19.7736 41.5578 19.7168 41.7082 19.7168C41.8586 19.7168 42.0035 19.7736 42.1143 19.8759C42.225 19.9782 42.2935 20.1185 42.3061 20.2691V23.5669C42.3067 23.6461 42.2915 23.7246 42.2615 23.7978C42.2315 23.871 42.1873 23.9374 42.1314 23.9932C42.0755 24.049 42.0091 24.093 41.9361 24.1226C41.863 24.1522 41.7848 24.1669 41.7061 24.1658Z" fill="#FFD436"/>
<path opacity="0.7" d="M41.1229 23.5577C41.1229 23.5577 41.1229 23.2925 41.1229 22.8947C41.1229 22.497 41.1229 21.9709 41.1229 21.4447V20.3113C41.1181 20.1998 41.143 20.089 41.1952 19.9905C41.2332 19.9177 41.2857 19.8536 41.3494 19.8021C41.4131 19.7505 41.4866 19.7128 41.5655 19.6911C41.6093 19.6863 41.6535 19.6863 41.6974 19.6911L41.5697 19.7253C41.5074 19.7499 41.4487 19.783 41.3952 19.8236C41.3284 19.879 41.2734 19.9474 41.2335 20.0247C41.1893 20.118 41.1689 20.2209 41.174 20.3241C41.174 20.4396 41.174 20.5593 41.174 20.6834C41.174 20.9272 41.174 21.1924 41.174 21.4576C41.174 21.9837 41.174 22.5141 41.174 22.9076C41.174 23.3011 41.1229 23.5577 41.1229 23.5577Z" fill="white"/>
<path d="M33.3018 20.6528C33.2446 20.5974 33.1992 20.5309 33.1681 20.4574C33.1371 20.3839 33.1211 20.3049 33.1211 20.2251C33.1211 20.1453 33.1371 20.0662 33.1681 19.9928C33.1992 19.9193 33.2446 19.8528 33.3018 19.7974L35.6209 17.4662C35.7338 17.3528 35.8868 17.2891 36.0465 17.2891C36.2061 17.2891 36.3591 17.3528 36.472 17.4662C36.5848 17.5797 36.6483 17.7335 36.6483 17.894C36.6483 18.0544 36.5848 18.2083 36.472 18.3217L34.1528 20.6528C34.0971 20.7092 34.0308 20.754 33.9577 20.7845C33.8847 20.815 33.8064 20.8307 33.7273 20.8307C33.6482 20.8307 33.5699 20.815 33.4969 20.7845C33.4238 20.754 33.3575 20.7092 33.3018 20.6528Z" fill="#FFD436"/>
<path opacity="0.7" d="M33.3186 19.8061L33.7739 19.3356L34.7952 18.3048L35.3399 17.7573L35.591 17.5049C35.6639 17.4224 35.7582 17.3617 35.8633 17.3296C35.9419 17.304 36.0249 17.2953 36.1071 17.3041C36.1892 17.313 36.2685 17.3391 36.3399 17.3809C36.378 17.4044 36.4136 17.4316 36.4463 17.4622L36.4803 17.4964L36.442 17.4665C36.4072 17.4404 36.3702 17.4175 36.3314 17.398C36.2689 17.3708 36.2031 17.3521 36.1356 17.3424C36.0412 17.3336 35.946 17.3467 35.8575 17.3808C35.7689 17.4149 35.6894 17.4691 35.625 17.5392L35.3654 17.7958L34.8165 18.339L33.791 19.3485L33.3186 19.8061Z" fill="white"/>
<path d="M29.8547 12.2756C29.8559 12.1164 29.9196 11.9641 30.032 11.8519C30.1444 11.7397 30.2963 11.6768 30.4547 11.6768H33.7356C33.8855 11.6895 34.0251 11.7583 34.1269 11.8696C34.2287 11.9809 34.2851 12.1266 34.2851 12.2777C34.2851 12.4289 34.2287 12.5745 34.1269 12.6858C34.0251 12.7971 33.8855 12.866 33.7356 12.8787H30.4547C30.376 12.8787 30.2979 12.8631 30.2251 12.8328C30.1523 12.8025 30.0862 12.758 30.0305 12.702C29.9748 12.646 29.9306 12.5795 29.9004 12.5064C29.8703 12.4332 29.8547 12.3548 29.8547 12.2756Z" fill="#FFD436"/>
<path opacity="0.7" d="M30.4634 11.6881H33.6932C33.8023 11.6833 33.9107 11.7069 34.0081 11.7566C34.0814 11.7951 34.146 11.8485 34.198 11.9132C34.25 11.978 34.2882 12.0528 34.3102 12.133C34.3149 12.177 34.3149 12.2215 34.3102 12.2655V12.3126C34.3102 12.3126 34.3102 12.3126 34.3102 12.2655C34.3057 12.2217 34.2957 12.1786 34.2804 12.1372C34.2559 12.0746 34.223 12.0156 34.1825 11.9619C34.1286 11.8935 34.0603 11.838 33.9825 11.7993C33.8893 11.7556 33.7875 11.7337 33.6847 11.7352H32.5655H31.123L30.4634 11.6881Z" fill="white"/>
<path d="M33.3273 3.82361C33.4405 3.71078 33.5935 3.64746 33.7529 3.64746C33.9123 3.64746 34.0652 3.71078 34.1784 3.82361L36.4933 6.15902C36.5492 6.21519 36.5935 6.28187 36.6238 6.35526C36.654 6.42865 36.6696 6.50731 36.6696 6.58675C36.6696 6.66619 36.654 6.74485 36.6238 6.81824C36.5935 6.89163 36.5492 6.95831 36.4933 7.01448C36.4374 7.07065 36.3711 7.11521 36.2981 7.14561C36.2251 7.17601 36.1468 7.19165 36.0678 7.19165C35.9888 7.19165 35.9105 7.17601 35.8375 7.14561C35.7645 7.11521 35.6981 7.07065 35.6423 7.01448L33.3231 4.67907C33.2673 4.62274 33.2231 4.55588 33.1931 4.48232C33.1631 4.40876 33.1478 4.32996 33.1482 4.25046C33.1486 4.17095 33.1646 4.09231 33.1954 4.01906C33.2261 3.9458 33.271 3.87938 33.3273 3.82361Z" fill="#FFD436"/>
<path d="M57.5598 26.3432C58.2664 25.594 58.7388 24.6529 58.9187 23.6364C59.0987 22.6199 58.9783 21.5727 58.5723 20.6244C58.1664 19.676 57.4928 18.8682 56.6349 18.3009C55.777 17.7336 54.7725 17.4318 53.7456 17.4327C53.4064 17.4318 53.0677 17.4647 52.7348 17.5309C52.2833 16.3341 51.4288 15.3343 50.3198 14.7055C49.2109 14.0768 47.9178 13.8589 46.6657 14.0897C45.4135 14.3206 44.2815 14.9856 43.4666 15.9691C42.6516 16.9525 42.2054 18.1922 42.2055 19.4723C42.2055 19.6214 42.2055 19.7637 42.2257 19.9094C41.2517 20.1116 40.3859 20.6677 39.7939 21.4715C39.202 22.2752 38.9255 23.2702 39.0172 24.266C39.109 25.2619 39.5626 26.1888 40.2912 26.8695C41.0199 27.5502 41.9726 27.937 42.967 27.956H53.0751C53.2896 27.9843 53.5057 27.999 53.7221 28C53.9475 27.998 54.1725 27.9822 54.396 27.9526C55.0106 27.9451 55.6152 27.7962 56.1637 27.5173C56.7122 27.2383 57.1897 26.8366 57.5598 26.3432Z" fill="white"/>
</g>
<g clip-path="url(#clip2_1658_48549)">
<path d="M85 10.5C85 11.5882 84.6773 12.6518 84.0725 13.5564C83.4679 14.461 82.6085 15.166 81.603 15.5821C80.5976 15.9981 79.4913 16.1066 78.4243 15.8938C77.3572 15.681 76.3772 15.1564 75.6083 14.3865C74.8394 13.6166 74.3162 12.6358 74.1048 11.5685C73.8934 10.5011 74.0034 9.39504 74.4208 8.39015C74.8382 7.38527 75.5443 6.5268 76.4497 5.92334C77.3551 5.31987 78.4193 4.99855 79.5074 5C80.9645 5.00294 82.361 5.58357 83.3907 6.61461C84.4202 7.64563 84.999 9.04291 85 10.5Z" fill="#FFD436"/>
<path d="M72.5117 17C72.3762 16.9994 72.2462 16.9461 72.1493 16.8513C72.0537 16.7549 72 16.6245 72 16.4886C72 16.3528 72.0537 16.2225 72.1493 16.126L74.1244 14.1494C74.2208 14.0537 74.3511 14 74.4868 14C74.6226 14 74.7529 14.0537 74.8492 14.1494C74.897 14.1969 74.9349 14.2534 74.9608 14.3157C74.9867 14.3779 75 14.4446 75 14.5121C75 14.5795 74.9867 14.6462 74.9608 14.7084C74.9349 14.7707 74.897 14.8272 74.8492 14.8747L72.8741 16.8513C72.8265 16.8989 72.77 16.9366 72.7078 16.9621C72.6456 16.9876 72.5789 17.0005 72.5117 17Z" fill="#FFD436"/>
<path opacity="0.7" d="M74.1847 12C74.1847 12 74.1847 11.9513 74.1473 11.8614C74.1124 11.7381 74.0837 11.6131 74.0615 11.4869C74.0415 11.3942 74.0265 11.3004 74.0167 11.206C74.0167 11.1535 74.0167 11.1011 74.0167 11.0412C74.0167 10.9813 74.0167 10.9288 74.0167 10.869C73.9944 10.5972 73.9944 10.3241 74.0167 10.0524C74.0731 9.36795 74.2594 8.70055 74.5656 8.08612C74.7378 7.73964 74.9455 7.41198 75.1854 7.10857C75.4346 6.79501 75.7162 6.50875 76.0256 6.25468C76.3353 5.99982 76.6722 5.78002 77.03 5.59925C77.3759 5.42503 77.7388 5.28697 78.1129 5.18726C78.4558 5.09124 78.8072 5.02853 79.1621 5C79.3339 5 79.502 5 79.6625 5C79.823 5 79.9762 5 80.1255 5.02996C80.2749 5.05992 80.4167 5.07116 80.5512 5.08988C80.6856 5.10861 80.8088 5.14606 80.9246 5.17977C81.125 5.23726 81.322 5.30604 81.5146 5.38577L81.7237 5.4794L81.873 5.56179L82 5.62547L81.8693 5.57303L81.7088 5.50936L81.4922 5.4382C81.2984 5.37123 81.1 5.31866 80.8985 5.2809C80.6374 5.22631 80.3729 5.19001 80.1068 5.17228C79.9649 5.17228 79.8119 5.17228 79.6513 5.17228C79.4907 5.17228 79.3339 5.17228 79.1696 5.1985C78.8246 5.23247 78.4835 5.29765 78.1502 5.39325C77.794 5.49467 77.4488 5.63142 77.1196 5.8015C76.7848 5.98244 76.4684 6.19568 76.1749 6.4382C75.3169 7.13904 74.6822 8.07649 74.349 9.13486C74.2518 9.43038 74.1793 9.73353 74.1324 10.0412C74.0969 10.3044 74.0781 10.5696 74.0764 10.8352V11.0075C74.0764 11.0637 74.0764 11.1161 74.0764 11.1685C74.0764 11.221 74.0764 11.367 74.0988 11.4494C74.1212 11.5318 74.0988 11.6142 74.1249 11.6779C74.1511 11.7416 74.1473 11.8015 74.1548 11.8464L74.1847 12Z" fill="white"/>
<path d="M79.4982 4C79.3665 4 79.2403 3.94454 79.1472 3.84583C79.054 3.74711 79.0018 3.61323 79.0018 3.47362V0.574746C78.996 0.501628 79.0045 0.428027 79.0269 0.358592C79.0493 0.289166 79.085 0.225419 79.1319 0.171394C79.1787 0.117368 79.2356 0.0742342 79.299 0.0447339C79.3623 0.0152336 79.4308 0 79.5 0C79.5692 0 79.6376 0.0152336 79.7011 0.0447339C79.7644 0.0742342 79.8213 0.117368 79.8681 0.171394C79.915 0.225419 79.9507 0.289166 79.9731 0.358592C79.9955 0.428027 80.0041 0.501628 79.9982 0.574746V3.47362C79.9973 3.61357 79.9442 3.74745 79.8506 3.84605C79.7569 3.94466 79.6302 4.00001 79.4982 4Z" fill="#FFD436"/>
<path opacity="0.7" d="M79.0013 3C79.0013 3 79.0013 2.79752 79.0013 2.48885C79.0013 2.18016 79.0013 1.77189 79.0013 1.36031C79.0013 1.15784 79.0013 0.952053 79.0013 0.759534V0.484045C78.9917 0.397466 79.0352 0.311376 79.127 0.235102C79.193 0.178633 79.2843 0.128867 79.395 0.0888953C79.5058 0.0489233 79.6335 0.019598 79.7707 0.0027587C79.8468 -0.000919566 79.9237 -0.000919566 80 0.0027587C79.9239 0.00774841 79.8495 0.0166569 79.778 0.0293136C79.6669 0.0457726 79.564 0.0716912 79.4747 0.105649C79.3585 0.148624 79.2629 0.201688 79.1936 0.261657C79.1166 0.334121 79.0785 0.413715 79.0827 0.494001V0.76949C79.0827 0.962009 79.0827 1.1678 79.0827 1.37027C79.0827 1.78185 79.0827 2.19011 79.0827 2.4988C79.0827 2.80749 79.0013 3 79.0013 3Z" fill="white"/>
<path d="M84.1507 5.84898C84.1029 5.80151 84.065 5.74507 84.0392 5.68289C84.0133 5.62072 84 5.55405 84 5.48671C84 5.41938 84.0133 5.3527 84.0392 5.29054C84.065 5.22836 84.1029 5.17191 84.1507 5.12444L86.1252 3.15007C86.2214 3.05398 86.3517 3 86.4876 3C86.6235 3 86.7539 3.05398 86.8499 3.15007C86.946 3.24614 87 3.37646 87 3.51234C87 3.64821 86.946 3.77852 86.8499 3.87461L84.8753 5.85261C84.7785 5.94769 84.6479 6.00067 84.5122 5.99999C84.3765 5.99932 84.2466 5.94503 84.1507 5.84898Z" fill="#FFD436"/>
<path opacity="0.7" d="M84 5L84.436 4.624L85.4051 3.8002L85.9219 3.36267L86.1602 3.161C86.2472 3.07902 86.3645 3.02455 86.4929 3.00653C86.6213 2.98851 86.7532 3.00803 86.8668 3.06186C86.904 3.08075 86.9392 3.10249 86.9717 3.12681L87 3.15415L86.9676 3.13023C86.9328 3.11 86.8964 3.09173 86.8586 3.07553C86.8053 3.05921 86.7497 3.04887 86.6931 3.04477C86.6035 3.03689 86.5129 3.04701 86.4286 3.07433C86.3444 3.10165 86.2691 3.1454 86.2086 3.20201L85.9663 3.40027L85.4455 3.83438C85.0862 4.13177 84.7348 4.42915 84.4643 4.64792L84 5Z" fill="white"/>
<path d="M86 10.5C86 10.3674 86.0561 10.2402 86.156 10.1464C86.256 10.0527 86.3915 10 86.5328 10H89.4672C89.6085 10 89.744 10.0527 89.8439 10.1464C89.9439 10.2402 90 10.3674 90 10.5C90 10.6326 89.9439 10.7598 89.8439 10.8536C89.744 10.9473 89.6085 11 89.4672 11H86.5328C86.3915 11 86.256 10.9473 86.156 10.8536C86.0561 10.7598 86 10.6326 86 10.5Z" fill="#FFD436"/>
<path d="M84.1518 14.1537C84.1988 14.105 84.2551 14.0664 84.3173 14.04C84.3795 14.0136 84.4464 14 84.5141 14C84.5816 14 84.6485 14.0136 84.7107 14.04C84.773 14.0664 84.8292 14.105 84.8762 14.1537L86.85 16.1262C86.8975 16.1738 86.9353 16.2302 86.961 16.2923C86.9868 16.3544 87 16.421 87 16.4881C87 16.5554 86.9868 16.6219 86.961 16.684C86.9353 16.7461 86.8975 16.8026 86.85 16.8501C86.8025 16.8976 86.746 16.9354 86.6838 16.9611C86.6217 16.9868 86.5551 17 86.4878 17C86.4206 17 86.3539 16.9868 86.2918 16.9611C86.2297 16.9354 86.1733 16.8976 86.1257 16.8501L84.1518 14.8739C84.1037 14.8271 84.0656 14.771 84.0395 14.7092C84.0134 14.6473 84 14.5809 84 14.5138C84 14.4467 84.0134 14.3802 84.0395 14.3183C84.0656 14.2566 84.1037 14.2005 84.1518 14.1537Z" fill="#FFD436"/>
<g style="mix-blend-mode:multiply" opacity="0.5">
<path d="M83.4484 14.1704L82.3518 15.2726L86.1361 19.0764L87.2326 17.9742L83.4484 14.1704Z" fill="#FFD436"/>
</g>
<path opacity="0.7" d="M85 15L85.3762 15.2915C85.602 15.4626 85.8995 15.6979 86.2005 15.9305L86.6349 16.2834L86.8367 16.4412C86.9027 16.487 86.9513 16.5463 86.9769 16.6123C86.9974 16.6617 87.0044 16.7139 86.9973 16.7655C86.9903 16.8171 86.9693 16.8669 86.9359 16.9118C86.9171 16.9357 86.8954 16.9581 86.8709 16.9786L86.8436 17L86.8675 16.9759C86.8883 16.9541 86.9067 16.9308 86.9222 16.9064C86.944 16.8672 86.959 16.8258 86.9667 16.7835C86.9738 16.7241 86.9632 16.6643 86.936 16.6087C86.9087 16.553 86.8653 16.503 86.8093 16.4626L86.6144 16.2834L86.18 15.9359C85.8824 15.7006 85.5848 15.4653 85.366 15.2861L85 15Z" fill="white"/>
<path d="M79.4982 20C79.3661 20 79.2394 19.9574 79.1459 19.8817C79.0524 19.806 79 19.7033 79 19.5961V17.3724C79.0105 17.2709 79.0678 17.1763 79.1604 17.1073C79.253 17.0383 79.3742 17 79.5 17C79.6257 17 79.7469 17.0383 79.8396 17.1073C79.9322 17.1763 79.9894 17.2709 80 17.3724V19.5961C80.0005 19.6495 79.9878 19.7025 79.9627 19.7518C79.9376 19.8012 79.9006 19.846 79.8539 19.8836C79.8071 19.9212 79.7516 19.9509 79.6905 19.9708C79.6294 19.9908 79.564 20.0007 79.4982 20Z" fill="#FFD436"/>
<g style="mix-blend-mode:multiply" opacity="0.5">
<path d="M81.1445 15.5659H79.5938V20.9453H81.1445V15.5659Z" fill="#FFD436"/>
</g>
<path opacity="0.7" d="M79.001 20C79.001 20 79.001 19.7259 79.001 19.3148C79.001 18.9037 79.001 18.36 79.001 17.8161V16.6447C78.9927 16.5295 79.036 16.415 79.1267 16.3132C79.1928 16.2379 79.2841 16.1717 79.3949 16.1184C79.5056 16.0651 79.6334 16.0261 79.7706 16.0037C79.8468 15.9988 79.9237 15.9988 80 16.0037L79.7779 16.0391C79.6696 16.0645 79.5675 16.0987 79.4745 16.1407C79.3584 16.1979 79.2627 16.2686 79.1933 16.3485C79.1165 16.4449 79.081 16.5513 79.0899 16.658C79.0899 16.7773 79.0899 16.901 79.0899 17.0293C79.0899 17.2813 79.0899 17.5554 79.0899 17.8295C79.0899 18.3732 79.0899 18.9214 79.0899 19.3281C79.0899 19.7348 79.001 20 79.001 20Z" fill="white"/>
<path d="M72.1537 16.8493C72.1051 16.8024 72.0664 16.746 72.04 16.6838C72.0136 16.6215 72 16.5546 72 16.487C72 16.4194 72.0136 16.3524 72.04 16.2902C72.0664 16.228 72.1051 16.1716 72.1537 16.1247L74.1262 14.15C74.2222 14.054 74.3524 14 74.4881 14C74.6239 14 74.7541 14.054 74.8501 14.15C74.9461 14.2462 75 14.3764 75 14.5124C75 14.6483 74.9461 14.7786 74.8501 14.8747L72.8775 16.8493C72.8301 16.8971 72.7737 16.935 72.7116 16.9609C72.6495 16.9867 72.5829 17 72.5156 17C72.4483 17 72.3817 16.9867 72.3196 16.9609C72.2575 16.935 72.2011 16.8971 72.1537 16.8493Z" fill="#FFD436"/>
<path opacity="0.7" d="M72 17L72.432 16.4366L73.4011 15.2023L73.9179 14.5467L74.1561 14.2444C74.2253 14.1456 74.3148 14.073 74.4145 14.0345C74.4891 14.0039 74.5679 13.9934 74.6458 14.004C74.7237 14.0146 74.799 14.0459 74.8668 14.0959C74.9029 14.1241 74.9367 14.1567 74.9677 14.1933L75 14.2343L74.9637 14.1985C74.9306 14.1672 74.8955 14.1398 74.8587 14.1164C74.7994 14.0839 74.7369 14.0615 74.6729 14.0498C74.5833 14.0393 74.493 14.055 74.409 14.0958C74.325 14.1367 74.2495 14.2016 74.1884 14.2855L73.9421 14.5928L73.4213 15.2432L72.4482 16.452L72 17Z" fill="white"/>
<path d="M69 10.4982C69.001 10.3658 69.0585 10.239 69.16 10.1457C69.2615 10.0523 69.3987 10 69.5417 10H72.5039C72.6392 10.0106 72.7652 10.0678 72.8571 10.1604C72.949 10.253 73 10.3742 73 10.5C73 10.6258 72.949 10.7469 72.8571 10.8395C72.7652 10.9321 72.6392 10.9894 72.5039 11H69.5417C69.4706 11 69.4001 10.987 69.3344 10.9618C69.2687 10.9366 69.209 10.8996 69.1587 10.853C69.1084 10.8064 69.0685 10.7511 69.0412 10.6902C69.014 10.6293 69 10.5641 69 10.4982Z" fill="#FFD436"/>
<path d="M72.1526 3.1491C72.249 3.0536 72.3793 3 72.5151 3C72.651 3 72.7813 3.0536 72.8777 3.1491L74.8498 5.12592C74.8974 5.17347 74.9352 5.22991 74.961 5.29203C74.9867 5.35415 75 5.42074 75 5.48798C75 5.55522 74.9867 5.6218 74.961 5.68392C74.9352 5.74605 74.8974 5.80249 74.8498 5.85003C74.8022 5.89758 74.7457 5.9353 74.6835 5.96103C74.6213 5.98676 74.5546 6 74.4873 6C74.42 6 74.3533 5.98676 74.2911 5.96103C74.2289 5.9353 74.1724 5.89758 74.1248 5.85003L72.149 3.87321C72.1014 3.82553 72.0638 3.76894 72.0382 3.70667C72.0127 3.64441 71.9997 3.57771 72 3.51041C72.0003 3.44311 72.014 3.37655 72.0402 3.31454C72.0664 3.25253 72.1046 3.19631 72.1526 3.1491Z" fill="#FFD436"/>
<path d="M87.9838 25.7516C88.9729 24.7347 89.6344 23.4575 89.8862 22.078C90.1382 20.6985 89.9696 19.2772 89.4012 17.9902C88.833 16.7032 87.8899 15.6068 86.6888 14.8369C85.4878 14.0671 84.0814 13.6574 82.6439 13.6587C82.1689 13.6574 81.6948 13.7021 81.2288 13.792C80.5967 12.1677 79.4003 10.8108 77.8478 9.9575C76.2953 9.10417 74.485 8.80844 72.7319 9.1218C70.9789 9.43505 69.3941 10.3376 68.2532 11.6723C67.1122 13.007 66.4875 14.6894 66.4878 16.4267C66.4878 16.629 66.4877 16.8222 66.516 17.0199C65.1523 17.2943 63.9403 18.049 63.1115 19.1398C62.2828 20.2306 61.8957 21.5809 62.0241 22.9324C62.1526 24.284 62.7876 25.5419 63.8077 26.4658C64.8278 27.3896 66.1616 27.9145 67.5538 27.9402H81.7052C82.0055 27.9787 82.308 27.9987 82.611 28C82.9265 27.9973 83.2415 27.9758 83.5543 27.9356C84.4148 27.9255 85.2613 27.7234 86.0292 27.3449C86.7971 26.9663 87.4656 26.4212 87.9838 25.7516Z" fill="white"/>
</g>
<g clip-path="url(#clip3_1658_48549)">
<path d="M116.92 14.8166C117.45 14.2814 117.804 13.6092 117.939 12.8832C118.074 12.1571 117.984 11.4091 117.679 10.7317C117.375 10.0543 116.87 9.47725 116.226 9.07204C115.583 8.66688 114.829 8.45126 114.059 8.45194C113.805 8.45126 113.551 8.4748 113.301 8.5221C112.963 7.6672 112.322 6.95307 111.49 6.50395C110.658 6.05483 109.688 5.89918 108.749 6.06411C107.81 6.22898 106.961 6.70401 106.35 7.40648C105.739 8.10896 105.404 8.99441 105.404 9.90877C105.404 10.0153 105.404 10.1169 105.419 10.221C104.689 10.3654 104.039 10.7627 103.595 11.3368C103.152 11.9109 102.944 12.6215 103.013 13.3328C103.082 14.0442 103.422 14.7063 103.968 15.1925C104.515 15.6787 105.229 15.955 105.975 15.9685H113.556C113.717 15.9888 113.879 15.9993 114.042 16C114.211 15.9986 114.379 15.9873 114.547 15.9661C115.008 15.9608 115.461 15.8544 115.873 15.6552C116.284 15.4559 116.642 15.169 116.92 14.8166Z" fill="#D1D1D1"/>
<path d="M114.272 22.1066C115.12 21.2503 115.687 20.1748 115.902 19.013C116.118 17.8513 115.974 16.6545 115.487 15.5707C115 14.4869 114.191 13.5636 113.162 12.9153C112.132 12.267 110.927 11.922 109.695 11.9231C109.288 11.922 108.881 11.9597 108.482 12.0354C107.94 10.6675 106.915 9.5249 105.584 8.80631C104.253 8.08772 102.701 7.83869 101.199 8.10257C99.6962 8.36636 98.3378 9.12641 97.3599 10.2504C96.3819 11.3743 95.8465 12.7911 95.8466 14.254C95.8466 14.4244 95.8466 14.5871 95.8709 14.7536C94.702 14.9847 93.6631 15.6202 92.9527 16.5388C92.2424 17.4574 91.9106 18.5945 92.0207 19.7325C92.1308 20.8707 92.6751 21.93 93.5494 22.708C94.4239 23.486 95.5671 23.928 96.7604 23.9497H108.89C109.148 23.9821 109.407 23.9989 109.667 24C109.937 23.9977 110.207 23.9796 110.475 23.9458C111.213 23.9373 111.938 23.7671 112.596 23.4483C113.255 23.1295 113.828 22.6705 114.272 22.1066Z" fill="white"/>
</g>
<g clip-path="url(#clip4_1658_48549)">
<path d="M147 18.5488C146.891 18.4554 144.269 16.2138 140.714 18.5488C140.714 18.5488 137.731 16.2165 134.996 18.5488C132.265 16.2249 129.286 18.5516 129.286 18.5516C125.731 16.2138 123.109 18.4554 123 18.5488C123.5 7.5 134.999 7 134.999 7C134.999 7 146.5 7.5 147 18.5488Z" fill="#00C5FF"/>
<path d="M133.605 26.9999C133.101 26.9992 132.619 26.7993 132.263 26.4442C131.907 26.0891 131.707 25.6076 131.706 25.1054V24.7165C131.706 24.5834 131.759 24.4557 131.853 24.3616C131.948 24.2675 132.076 24.2146 132.209 24.2146C132.342 24.2146 132.47 24.2675 132.565 24.3616C132.659 24.4557 132.712 24.5834 132.712 24.7165V25.1054C132.712 25.3417 132.806 25.5682 132.973 25.7353C133.141 25.9023 133.368 25.9962 133.605 25.9962C133.841 25.9962 134.068 25.9023 134.236 25.7353C134.403 25.5682 134.497 25.3417 134.497 25.1054V13.0496C134.504 12.9213 134.56 12.8004 134.653 12.712C134.747 12.6235 134.871 12.5742 134.999 12.5742C135.128 12.5742 135.252 12.6235 135.346 12.712C135.439 12.8004 135.495 12.9213 135.502 13.0496V25.1054C135.501 25.6075 135.301 26.089 134.946 26.4441C134.59 26.7993 134.108 26.9992 133.605 26.9999V26.9999Z" fill="#00C5FF"/>
<g clip-path="url(#clip5_1658_48549)">
<path d="M129.824 20C129.824 20 127.506 21.2816 127.148 21.9821C126.975 22.3186 126.951 22.7059 127.082 23.0588C127.213 23.4116 127.488 23.7012 127.846 23.8637C128.203 24.0262 128.615 24.0483 128.991 23.9253C129.366 23.8022 129.674 23.5441 129.847 23.2076C130.205 22.5019 129.824 20 129.824 20Z" fill="#B9D7FF"/>
</g>
<g clip-path="url(#clip6_1658_48549)">
<path d="M140.825 3C140.825 3 138.508 4.28159 138.149 4.98213C137.976 5.31864 137.953 5.70593 138.084 6.05879C138.214 6.41164 138.489 6.70117 138.847 6.86367C139.205 7.02617 139.617 7.04834 139.992 6.92529C140.367 6.80225 140.675 6.54407 140.848 6.20756C141.207 5.50192 140.825 3 140.825 3Z" fill="white"/>
</g>
<g clip-path="url(#clip7_1658_48549)">
<path d="M145.824 6C145.824 6 143.506 7.28159 143.148 7.98213C142.975 8.31864 142.951 8.70593 143.082 9.05879C143.213 9.41164 143.488 9.70117 143.846 9.86367C144.203 10.0262 144.615 10.0483 144.991 9.92529C145.366 9.80225 145.674 9.54407 145.847 9.20756C146.205 8.50192 145.824 6 145.824 6Z" fill="#B9D7FF"/>
</g>
</g>
<g clip-path="url(#clip8_1658_48549)">
<path d="M164.588 21.9685C164.588 22.6429 164.588 23.3173 164.588 23.9917C164.588 24.1237 164.588 24.2557 164.58 24.3867C164.571 24.5517 164.507 24.7067 164.401 24.8205C164.294 24.9344 164.153 24.9985 164.007 25C163.86 25.0014 163.718 24.9402 163.61 24.8285C163.502 24.7168 163.436 24.5631 163.424 24.3983C163.404 24.0815 163.416 23.7647 163.415 23.4479C163.415 22.9516 163.415 22.4553 163.415 21.8746L162.665 22.7193C162.566 22.8302 162.469 22.9453 162.366 23.053C162.103 23.3276 161.77 23.3276 161.532 23.053C161.476 22.9914 161.432 22.9175 161.402 22.8359C161.373 22.7544 161.358 22.6668 161.36 22.5787C161.361 22.4906 161.379 22.4037 161.411 22.3235C161.443 22.2433 161.49 22.1713 161.548 22.1121C162.1 21.4786 162.654 20.8524 163.218 20.2347C163.286 20.1662 163.34 20.0812 163.374 19.9861C163.409 19.8909 163.424 19.7882 163.418 19.6856C163.407 18.8524 163.418 18.0203 163.418 17.1428C163.116 17.3361 162.842 17.5092 162.57 17.6866C162.185 17.9348 161.807 18.1935 161.418 18.4258C161.35 18.4645 161.291 18.5199 161.245 18.5879C161.198 18.6559 161.166 18.7348 161.151 18.8186C160.955 19.6729 160.75 20.525 160.544 21.3761C160.438 21.8186 160.154 22.0277 159.801 21.9284C159.484 21.8397 159.324 21.4765 159.421 21.0467C159.532 20.5493 159.651 20.0541 159.781 19.4997L158.253 20.4891C158.132 20.5673 158.014 20.6518 157.89 20.7246C157.824 20.7696 157.75 20.7991 157.673 20.8114C157.596 20.8236 157.517 20.8183 157.442 20.7959C157.367 20.7735 157.296 20.7343 157.235 20.6807C157.173 20.6271 157.122 20.5602 157.083 20.4839C157.044 20.4078 157.019 20.3236 157.009 20.2362C157 20.1488 157.006 20.0601 157.028 19.9756C157.05 19.8911 157.087 19.8125 157.137 19.7447C157.187 19.6768 157.248 19.6211 157.318 19.581C157.854 19.2252 158.394 18.8788 158.932 18.5251C159.003 18.4786 159.073 18.43 159.189 18.3508L157.983 17.9834C157.916 17.9622 157.847 17.9475 157.78 17.9242C157.437 17.8239 157.254 17.4881 157.335 17.1375C157.415 16.787 157.727 16.5715 158.084 16.675C158.813 16.8862 159.543 17.0974 160.264 17.335C160.379 17.3796 160.501 17.3933 160.621 17.375C160.741 17.3567 160.855 17.3068 160.955 17.2294C161.557 16.807 162.173 16.4279 162.786 16.033C162.786 15.9274 162.71 15.919 162.661 15.8873C162.037 15.4786 161.41 15.0731 160.787 14.6634C160.74 14.6283 160.686 14.6057 160.629 14.5975C160.573 14.5893 160.516 14.5956 160.462 14.6159C159.693 14.8598 158.919 15.0858 158.147 15.3171C157.757 15.4332 157.44 15.2632 157.343 14.8852C157.247 14.5072 157.442 14.1703 157.831 14.0489C158.22 13.9274 158.59 13.8218 158.973 13.7046C159.03 13.6867 159.101 13.6993 159.141 13.599C158.53 13.2073 157.918 12.8081 157.308 12.4111C157.201 12.3467 157.114 12.2461 157.06 12.1234C157.007 12.0007 156.988 11.862 157.008 11.7268C157.028 11.5915 157.085 11.4667 157.171 11.3692C157.257 11.2717 157.367 11.2064 157.487 11.1819C157.661 11.1355 157.806 11.2178 157.949 11.3108L159.773 12.4913C159.687 12.1175 159.613 11.7944 159.538 11.4713C159.495 11.2854 159.449 11.0996 159.408 10.9127C159.32 10.5093 159.489 10.1439 159.8 10.0605C160.147 9.9676 160.434 10.1725 160.535 10.5885C160.74 11.4407 160.946 12.2918 161.142 13.146C161.157 13.2341 161.189 13.3174 161.236 13.3896C161.284 13.4618 161.345 13.5211 161.415 13.5631C162.071 13.976 162.72 14.4079 163.412 14.8535V14.467C163.412 13.7131 163.412 12.9591 163.412 12.2052C163.415 12.1364 163.404 12.0678 163.381 12.0042C163.357 11.9407 163.322 11.8838 163.276 11.8377C162.7 11.1964 162.127 10.5515 161.557 9.90318C161.214 9.50087 161.346 8.90108 161.813 8.76486C162.049 8.69623 162.238 8.80605 162.401 8.98978C162.709 9.33825 163.018 9.68355 163.328 10.0299C163.343 10.042 163.36 10.0516 163.377 10.0584C163.439 9.9771 163.41 9.87784 163.411 9.78914C163.411 9.09643 163.411 8.40373 163.411 7.71102C163.403 7.57855 163.43 7.44627 163.489 7.33165C163.549 7.21703 163.638 7.12545 163.745 7.069C163.831 7.02017 163.926 6.99657 164.022 7.0004C164.118 7.00423 164.211 7.03536 164.294 7.09089C164.376 7.14642 164.445 7.22455 164.494 7.31802C164.542 7.41149 164.569 7.51726 164.571 7.62549C164.597 8.0711 164.583 8.51988 164.583 8.96655C164.583 9.32452 164.583 9.68249 164.583 10.0373C164.677 10.0679 164.708 9.98661 164.747 9.94331C165.036 9.62652 165.319 9.29601 165.609 8.97817C165.881 8.67933 166.212 8.66772 166.46 8.93804C166.707 9.20837 166.698 9.60646 166.424 9.91797C165.862 10.5515 165.305 11.1851 164.737 11.8187C164.686 11.874 164.646 11.9413 164.62 12.016C164.594 12.0906 164.583 12.1707 164.588 12.2506C164.588 13.0193 164.588 13.7944 164.588 14.5663V14.8609C165.23 14.4449 165.826 14.0373 166.441 13.6677C166.56 13.6027 166.665 13.5068 166.745 13.388C166.826 13.2691 166.88 13.1305 166.904 12.9834C167.074 12.1851 167.279 11.3995 167.466 10.6022C167.571 10.1682 167.872 9.95915 168.216 10.0742C168.523 10.1714 168.679 10.5262 168.591 10.9401C168.49 11.3889 168.381 11.8345 168.274 12.2823C168.262 12.3117 168.256 12.3438 168.256 12.3762C168.256 12.4087 168.262 12.4408 168.274 12.4702L170.049 11.3171C170.192 11.2242 170.338 11.1429 170.511 11.1851C170.632 11.2078 170.744 11.2731 170.831 11.3717C170.917 11.4703 170.974 11.5971 170.992 11.734C171.011 11.871 170.991 12.0111 170.935 12.1344C170.879 12.2577 170.789 12.3578 170.68 12.4206C170.143 12.7726 169.605 13.1246 169.066 13.4765L168.82 13.6392C169.179 13.7511 169.495 13.8503 169.811 13.9475C169.953 13.9918 170.098 14.0256 170.239 14.0742C170.575 14.1914 170.753 14.5336 170.667 14.8862C170.647 14.9721 170.612 15.0526 170.563 15.1226C170.515 15.1927 170.455 15.2508 170.386 15.2936C170.317 15.3363 170.241 15.3627 170.162 15.3711C170.084 15.3795 170.005 15.3697 169.93 15.3424C169.217 15.1312 168.502 14.9306 167.796 14.6919C167.664 14.6384 167.522 14.6211 167.383 14.6415C167.244 14.6619 167.111 14.7193 166.996 14.8092C166.413 15.2231 165.806 15.5937 165.173 16.0056C165.405 16.1608 165.607 16.2981 165.811 16.4279C166.28 16.7299 166.742 17.0277 167.205 17.3329C167.255 17.3707 167.312 17.3951 167.372 17.4042C167.432 17.4134 167.493 17.407 167.551 17.3857C168.342 17.1365 169.138 16.9021 169.934 16.6698C170.061 16.6241 170.199 16.6309 170.323 16.6889C170.447 16.7468 170.548 16.8523 170.609 16.9865C170.669 17.1104 170.692 17.253 170.674 17.3927C170.656 17.5325 170.599 17.6619 170.51 17.7616C170.412 17.8622 170.291 17.9308 170.161 17.9601C169.728 18.089 169.297 18.221 168.808 18.3698L169.609 18.8978C169.959 19.1259 170.31 19.3508 170.659 19.581C170.983 19.7922 171.087 20.1597 170.923 20.4934C170.759 20.827 170.409 20.9305 170.08 20.7193C169.474 20.3318 168.871 19.9358 168.221 19.5134C168.341 20.0192 168.45 20.4722 168.556 20.9253C168.594 21.0942 168.65 21.261 168.616 21.4406C168.591 21.5788 168.527 21.7042 168.433 21.7973C168.339 21.8904 168.221 21.9461 168.096 21.9559C167.786 21.9749 167.564 21.8133 167.48 21.4807C167.312 20.807 167.12 20.1386 167.005 19.4543C166.899 18.8207 166.649 18.3984 166.114 18.1259C165.606 17.8693 165.139 17.5103 164.654 17.1977C164.643 17.1903 164.625 17.1977 164.585 17.1924C164.585 17.7088 164.585 18.2231 164.585 18.7384C164.585 19.1671 164.496 19.6423 164.63 20.0119C164.764 20.3814 165.125 20.6254 165.388 20.9231C165.729 21.3086 166.072 21.6908 166.412 22.0773C166.693 22.3941 166.715 22.7763 166.475 23.0562C166.235 23.336 165.881 23.3371 165.59 23.0118C165.272 22.656 164.96 22.2927 164.646 21.9326L164.588 21.9685Z" fill="white"/>
<path d="M154.765 12C154.765 12 151.676 13.9205 151.199 14.9703C150.968 15.4746 150.937 16.055 151.111 16.5837C151.286 17.1125 151.652 17.5464 152.129 17.7899C152.606 18.0334 153.154 18.0666 153.655 17.8823C154.155 17.6979 154.565 17.311 154.795 16.8067C155.273 15.7492 154.765 12 154.765 12Z" fill="#B9D7FF"/>
<path d="M174.589 18C174.589 18 169.184 21.2009 168.348 22.9505C167.945 23.791 167.89 24.7583 168.195 25.6396C168.5 26.5209 169.14 27.244 169.975 27.6499C170.81 28.0557 171.77 28.1111 172.645 27.8038C173.521 27.4964 174.239 26.8516 174.642 26.0111C175.478 24.2487 174.589 18 174.589 18Z" fill="#B9D7FF"/>
<path d="M172.765 2C172.765 2 169.676 3.60044 169.199 4.47527C168.968 4.89551 168.937 5.37914 169.111 5.81979C169.286 6.26044 169.652 6.62199 170.129 6.82493C170.606 7.02786 171.154 7.05554 171.655 6.90188C172.155 6.74822 172.565 6.42581 172.795 6.00557C173.273 5.12437 172.765 2 172.765 2Z" fill="#B9D7FF"/>
<line x1="159.34" y1="2.94197" x2="151.707" y2="10.5751" stroke="white" stroke-linecap="round"/>
<line x1="178.801" y1="9.89217" x2="174.593" y2="14.0996" stroke="white" stroke-linecap="round"/>
<line x1="155.915" y1="23.7926" x2="151.707" y2="28" stroke="white" stroke-linecap="round"/>
</g>
<g clip-path="url(#clip9_1658_48549)">
<g clip-path="url(#clip10_1658_48549)">
<path d="M195.753 22.4624C195.753 23.2492 195.753 24.036 195.753 24.8227C195.753 24.9767 195.753 25.1307 195.742 25.2835C195.731 25.4759 195.648 25.6568 195.512 25.7896C195.375 25.9224 195.194 25.9972 195.006 25.9989C194.817 26.0007 194.635 25.9292 194.496 25.7989C194.357 25.6686 194.272 25.4892 194.257 25.297C194.23 24.9274 194.246 24.5579 194.245 24.1883C194.245 23.6093 194.245 23.0303 194.245 22.3528L193.281 23.3383C193.154 23.4677 193.03 23.6019 192.897 23.7276C192.559 24.0479 192.131 24.0479 191.825 23.7276C191.753 23.6557 191.696 23.5695 191.658 23.4743C191.62 23.3792 191.602 23.2771 191.603 23.1743C191.605 23.0715 191.628 22.9701 191.669 22.8765C191.711 22.7829 191.771 22.699 191.846 22.63C192.555 21.8908 193.267 21.1603 193.992 20.4397C194.079 20.3598 194.148 20.2607 194.193 20.1497C194.237 20.0387 194.256 19.9188 194.248 19.7991C194.235 18.8271 194.248 17.8564 194.248 16.8327C193.861 17.0581 193.509 17.2602 193.158 17.4671C192.665 17.7566 192.178 18.0584 191.678 18.3295C191.591 18.3746 191.515 18.4393 191.455 18.5186C191.396 18.5979 191.355 18.6899 191.335 18.7877C191.083 19.7843 190.819 20.7784 190.556 21.7713C190.419 22.2875 190.053 22.5314 189.6 22.4156C189.193 22.3121 188.987 21.8884 189.111 21.387C189.255 20.8068 189.408 20.229 189.574 19.5823L187.611 20.7366C187.455 20.8277 187.303 20.9263 187.144 21.0113C187.059 21.0638 186.963 21.0982 186.864 21.1125C186.765 21.1267 186.665 21.1206 186.568 21.0944C186.471 21.0683 186.381 21.0226 186.302 20.96C186.223 20.8975 186.156 20.8194 186.107 20.7304C186.057 20.6417 186.024 20.5434 186.012 20.4414C186 20.3395 186.008 20.236 186.036 20.1375C186.064 20.0389 186.112 19.9472 186.176 19.868C186.24 19.7889 186.319 19.7239 186.408 19.6771C187.097 19.262 187.791 18.8579 188.483 18.4453C188.574 18.391 188.664 18.3344 188.814 18.242L187.264 17.8133C187.177 17.7887 187.089 17.7714 187.002 17.7443C186.561 17.6273 186.327 17.2355 186.43 16.8265C186.534 16.4176 186.935 16.1663 187.394 16.287C188.33 16.5334 189.268 16.7797 190.195 17.0569C190.342 17.109 190.499 17.125 190.654 17.1036C190.808 17.0822 190.955 17.024 191.083 16.9337C191.856 16.441 192.649 15.9987 193.437 15.538C193.437 15.4148 193.339 15.405 193.276 15.368C192.474 14.8913 191.668 14.4182 190.867 13.9402C190.806 13.8992 190.737 13.8729 190.665 13.8633C190.592 13.8537 190.519 13.861 190.45 13.8848C189.462 14.1694 188.467 14.433 187.474 14.7028C186.973 14.8383 186.565 14.6399 186.441 14.1989C186.317 13.7579 186.569 13.3649 187.068 13.2233C187.568 13.0816 188.044 12.9584 188.536 12.8217C188.609 12.8007 188.701 12.8155 188.751 12.6985C187.967 12.2415 187.181 11.7758 186.396 11.3126C186.259 11.2375 186.147 11.1201 186.078 10.977C186.008 10.8338 185.985 10.672 186.01 10.5144C186.036 10.3565 186.11 10.2109 186.22 10.0972C186.33 9.98345 186.472 9.90719 186.626 9.8787C186.849 9.8245 187.036 9.92058 187.22 10.029L189.564 11.4062C189.453 10.9702 189.358 10.5932 189.262 10.2162C189.206 9.99942 189.147 9.78261 189.094 9.56457C188.982 9.09399 189.199 8.66775 189.599 8.57043C190.045 8.46203 190.413 8.70101 190.543 9.18638C190.807 10.1805 191.072 11.1734 191.324 12.17C191.343 12.2728 191.384 12.3699 191.445 12.4542C191.506 12.5384 191.584 12.6076 191.674 12.6566C192.518 13.1383 193.351 13.6421 194.241 14.162V13.7111C194.241 12.8315 194.241 11.952 194.241 11.0724C194.245 10.9922 194.231 10.9121 194.201 10.838C194.171 10.7639 194.125 10.6975 194.067 10.6437C193.326 9.89554 192.59 9.14326 191.858 8.38688C191.417 7.91753 191.585 7.21782 192.186 7.05891C192.49 6.97883 192.732 7.10695 192.942 7.3213C193.338 7.72782 193.735 8.13065 194.133 8.53471C194.153 8.54882 194.174 8.56002 194.197 8.56797C194.276 8.47311 194.239 8.35732 194.24 8.25384C194.24 7.44572 194.24 6.6376 194.24 5.82948C194.229 5.67494 194.264 5.52062 194.341 5.38691C194.417 5.25319 194.532 5.14635 194.669 5.08049C194.779 5.02353 194.902 4.996 195.025 5.00047C195.148 5.00493 195.269 5.04125 195.375 5.10603C195.481 5.17081 195.569 5.26197 195.631 5.37101C195.694 5.48005 195.728 5.60344 195.731 5.7297C195.764 6.24956 195.746 6.77311 195.747 7.2942C195.747 7.71181 195.747 8.12942 195.747 8.54333C195.867 8.57906 195.907 8.4842 195.958 8.43369C196.329 8.06413 196.692 7.67855 197.065 7.30775C197.414 6.95912 197.84 6.94557 198.158 7.26094C198.476 7.5763 198.464 8.04072 198.113 8.40413C197.39 9.14326 196.674 9.8824 195.944 10.6215C195.878 10.6861 195.827 10.7646 195.794 10.8517C195.761 10.9387 195.747 11.0322 195.753 11.1254C195.753 12.0222 195.753 12.9264 195.753 13.8269V14.1706C196.578 13.6852 197.344 13.2097 198.134 12.7786C198.288 12.7028 198.422 12.591 198.525 12.4522C198.628 12.3135 198.698 12.1518 198.729 11.9803C198.948 11.049 199.211 10.1325 199.452 9.20239C199.587 8.69609 199.973 8.45217 200.416 8.58645C200.811 8.69978 201.011 9.1137 200.897 9.5966C200.767 10.1201 200.628 10.64 200.49 11.1623C200.475 11.1967 200.467 11.2341 200.467 11.272C200.467 11.3098 200.475 11.3472 200.49 11.3816L202.772 10.0364C202.956 9.92797 203.143 9.83312 203.365 9.8824C203.521 9.90891 203.665 9.98509 203.776 10.1001C203.887 10.2151 203.96 10.363 203.984 10.5228C204.008 10.6825 203.982 10.846 203.91 10.9898C203.838 11.1336 203.723 11.2505 203.582 11.3237C202.892 11.7343 202.201 12.145 201.508 12.5556L201.192 12.7453C201.654 12.8759 202.06 12.9917 202.466 13.105C202.649 13.1568 202.834 13.1962 203.016 13.2528C203.447 13.3896 203.676 13.7887 203.565 14.2002C203.54 14.3004 203.495 14.3942 203.433 14.4759C203.371 14.5576 203.293 14.6255 203.204 14.6753C203.116 14.7252 203.018 14.756 202.917 14.7658C202.816 14.7756 202.715 14.7642 202.619 14.7323C201.702 14.486 200.783 14.2519 199.876 13.9735C199.706 13.911 199.524 13.8908 199.345 13.9146C199.167 13.9384 198.996 14.0055 198.847 14.1102C198.098 14.5931 197.318 15.0255 196.505 15.506C196.803 15.6871 197.062 15.8472 197.325 15.9987C197.927 16.351 198.521 16.6984 199.116 17.0544C199.181 17.0985 199.254 17.127 199.331 17.1377C199.408 17.1484 199.487 17.141 199.56 17.116C200.578 16.8253 201.601 16.5518 202.623 16.2808C202.787 16.2276 202.965 16.2355 203.124 16.3031C203.283 16.3708 203.413 16.4938 203.492 16.6504C203.569 16.7949 203.598 16.9612 203.575 17.1243C203.552 17.2873 203.478 17.4383 203.364 17.5546C203.238 17.6719 203.083 17.752 202.916 17.7862C202.36 17.9365 201.806 18.0905 201.177 18.2642L202.207 18.8801C202.656 19.1462 203.108 19.4086 203.556 19.6771C203.972 19.9235 204.106 20.3522 203.895 20.7415C203.685 21.1308 203.234 21.2515 202.811 21.0051C202.032 20.553 201.257 20.0911 200.422 19.5983C200.576 20.1884 200.717 20.7169 200.853 21.2453C200.902 21.4424 200.973 21.6371 200.93 21.8465C200.898 22.0078 200.816 22.154 200.695 22.2626C200.574 22.3713 200.422 22.4363 200.261 22.4477C199.863 22.4698 199.577 22.2814 199.47 21.8933C199.254 21.1074 199.007 20.3276 198.859 19.5293C198.723 18.7902 198.402 18.2974 197.714 17.9796C197.061 17.6802 196.461 17.2614 195.837 16.8968C195.823 16.8881 195.8 16.8968 195.749 16.8906C195.749 17.493 195.749 18.0929 195.749 18.6941C195.749 19.1942 195.635 19.7486 195.807 20.1797C195.979 20.6109 196.443 20.8955 196.78 21.2429C197.219 21.6925 197.66 22.1385 198.097 22.5893C198.458 22.9589 198.486 23.4048 198.178 23.7313C197.869 24.0577 197.414 24.059 197.041 23.6795C196.632 23.2644 196.231 22.8406 195.828 22.4206L195.753 22.4624Z" fill="white"/>
</g>
<circle cx="204.5" cy="3.5" r="1.5" fill="white"/>
<circle cx="183.5" cy="6.5" r="1.5" fill="white"/>
<circle cx="188.5" cy="26.5" r="1.5" fill="white"/>
</g>
<defs>
<clipPath id="clip0_1658_48549">
<rect width="30" height="30" fill="white"/>
</clipPath>
<clipPath id="clip1_1658_48549">
<rect width="30" height="30" fill="white" transform="translate(30)"/>
</clipPath>
<clipPath id="clip2_1658_48549">
<rect width="30" height="30" fill="white" transform="translate(60)"/>
</clipPath>
<clipPath id="clip3_1658_48549">
<rect width="30" height="30" fill="white" transform="translate(90)"/>
</clipPath>
<clipPath id="clip4_1658_48549">
<rect width="30" height="30" fill="white" transform="translate(120)"/>
</clipPath>
<clipPath id="clip5_1658_48549">
<rect width="3" height="4" fill="white" transform="translate(127 20)"/>
</clipPath>
<clipPath id="clip6_1658_48549">
<rect width="4" height="5" fill="white" transform="translate(138 3)"/>
</clipPath>
<clipPath id="clip7_1658_48549">
<rect width="3" height="4" fill="white" transform="translate(143 6)"/>
</clipPath>
<clipPath id="clip8_1658_48549">
<rect width="30" height="30" fill="white" transform="translate(150)"/>
</clipPath>
<clipPath id="clip9_1658_48549">
<rect width="30" height="30" fill="white" transform="translate(180)"/>
</clipPath>
<clipPath id="clip10_1658_48549">
<rect width="18" height="21" fill="white" transform="translate(186 5)"/>
</clipPath>
</defs>
</svg>
