<svg width="48" height="48" viewBox="0 0 48 48" fill="none" xmlns="http://www.w3.org/2000/svg">
<rect width="48" height="48" rx="10" fill="#ECF0FF"/>
<g clip-path="url(#clip0_410_5945)">
<path d="M24 22.625C25.8288 22.625 29.5 23.5462 29.5 25.375V25.595C28.1663 27.135 26.2 28.125 24 28.125C21.8 28.125 19.8338 27.135 18.5 25.595V25.375C18.5 23.5462 22.1713 22.625 24 22.625ZM24 21.25C22.4875 21.25 21.25 20.0125 21.25 18.5C21.25 16.9875 22.4875 15.75 24 15.75C25.5125 15.75 26.75 16.9875 26.75 18.5C26.75 20.0125 25.5125 21.25 24 21.25ZM32.25 21.525C32.25 16.5337 28.6063 13 24 13C19.3938 13 15.75 16.5337 15.75 21.525C15.75 24.7425 18.4313 29.005 24 34.0925C29.5688 29.005 32.25 24.7425 32.25 21.525ZM24 10.25C29.775 10.25 35 14.6775 35 21.525C35 26.09 31.3288 31.4937 24 37.75C16.6713 31.4937 13 26.09 13 21.525C13 14.6775 18.225 10.25 24 10.25Z" fill="#0057FF"/>
</g>
<defs>
<clipPath id="clip0_410_5945">
<rect width="33" height="33" fill="white" transform="translate(7.5 7.5)"/>
</clipPath>
</defs>
</svg>
