<svg width="8" height="11" viewBox="0 0 8 11" fill="none" xmlns="http://www.w3.org/2000/svg">
<path d="M6.05194 5.66643L6.7554 6.37717L7.4735 5.66643L6.75539 4.95569L6.05194 5.66643ZM1.26515 8.99716C0.872622 9.38567 0.86936 10.0188 1.25787 10.4114C1.64637 10.8039 2.27953 10.8072 2.67206 10.4186L1.26515 8.99716ZM2.67206 0.914256C2.27953 0.525751 1.64637 0.529016 1.25786 0.921549C0.869359 1.31408 0.872624 1.94724 1.26516 2.33574L2.67206 0.914256ZM5.34849 4.95569L1.26515 8.99716L2.67206 10.4186L6.7554 6.37717L5.34849 4.95569ZM1.26516 2.33574L5.34849 6.37717L6.75539 4.95569L2.67206 0.914256L1.26516 2.33574Z" fill="#0057FF"/>
</svg>
