<svg width="26" height="27" viewBox="0 0 26 27" fill="none" xmlns="http://www.w3.org/2000/svg">
<g clip-path="url(#clip0_665_41287)">
<path d="M9.75 16.75H4.0625C3.84701 16.75 3.64035 16.6644 3.48798 16.512C3.3356 16.3597 3.25 16.153 3.25 15.9375V11.0625C3.25 10.847 3.3356 10.6403 3.48798 10.488C3.64035 10.3356 3.84701 10.25 4.0625 10.25H9.75V4.5625C9.75 4.34701 9.8356 4.14035 9.98798 3.98798C10.1403 3.8356 10.347 3.75 10.5625 3.75H15.4375C15.653 3.75 15.8597 3.8356 16.012 3.98798C16.1644 4.14035 16.25 4.34701 16.25 4.5625V10.25H21.9375C22.153 10.25 22.3597 10.3356 22.512 10.488C22.6644 10.6403 22.75 10.847 22.75 11.0625V15.9375C22.75 16.153 22.6644 16.3597 22.512 16.512C22.3597 16.6644 22.153 16.75 21.9375 16.75H16.25V22.4375C16.25 22.653 16.1644 22.8597 16.012 23.012C15.8597 23.1644 15.653 23.25 15.4375 23.25H10.5625C10.347 23.25 10.1403 23.1644 9.98798 23.012C9.8356 22.8597 9.75 22.653 9.75 22.4375V16.75Z" stroke="#388AEB" stroke-width="2" stroke-linecap="round" stroke-linejoin="round"/>
</g>
<defs>
<clipPath id="clip0_665_41287">
<rect width="26" height="26" fill="white" transform="translate(0 0.5)"/>
</clipPath>
</defs>
</svg>
