<svg width="73" height="74" viewBox="0 0 73 74" fill="none" xmlns="http://www.w3.org/2000/svg">
<g clip-path="url(#clip0_952_52266)">
<g style="mix-blend-mode:multiply">
<path d="M36.5 46.8298C43.5149 46.8298 49.2016 41.0683 49.2016 33.9611C49.2016 26.8539 43.5149 21.0923 36.5 21.0923C29.485 21.0923 23.7983 26.8539 23.7983 33.9611C23.7983 41.0683 29.485 46.8298 36.5 46.8298Z" stroke="#5C88FD" stroke-width="4" stroke-miterlimit="10"/>
</g>
<g style="mix-blend-mode:multiply">
<path d="M16.1139 59.5055C18.0252 55.6913 20.9416 52.4878 24.54 50.25C28.1383 48.0123 32.2779 46.8278 36.5 46.8278C40.7221 46.8278 44.8617 48.0123 48.46 50.25C52.0583 52.4878 54.9748 55.6913 56.8861 59.5055" stroke="#5C88FD" stroke-width="4" stroke-linecap="round" stroke-linejoin="round"/>
</g>
<g style="mix-blend-mode:multiply">
<path d="M51.7419 13.3711H66.9839" stroke="#5C88FD" stroke-width="4" stroke-linecap="round" stroke-linejoin="round"/>
</g>
<g style="mix-blend-mode:multiply">
<path d="M59.3629 5.64984V21.0923" stroke="#5C88FD" stroke-width="4" stroke-linecap="round" stroke-linejoin="round"/>
</g>
<g style="mix-blend-mode:multiply">
<path d="M66.6028 31.6769C66.8596 33.2831 66.987 34.9077 66.9839 36.5348C66.9839 42.6433 65.196 48.6146 61.8464 53.6936C58.4968 58.7726 53.7359 62.7312 48.1657 65.0688C42.5955 67.4064 36.4662 68.0181 30.5529 66.8264C24.6396 65.6347 19.2079 62.6931 14.9446 58.3738C10.6814 54.0545 7.77809 48.5513 6.60187 42.5602C5.42564 36.5691 6.02932 30.3591 8.33657 24.7157C10.6438 19.0722 14.551 14.2486 19.5641 10.8549C24.5771 7.46121 30.4709 5.64984 36.5 5.64984C38.106 5.64664 39.7095 5.77576 41.2949 6.0359" stroke="#5C88FD" stroke-width="4" stroke-linecap="round" stroke-linejoin="round"/>
</g>
</g>
<defs>
<clipPath id="clip0_952_52266">
<rect width="72" height="73.1613" fill="white" transform="translate(0.5)"/>
</clipPath>
</defs>
</svg>
