<svg width="163" height="163" viewBox="0 0 163 163" fill="none" xmlns="http://www.w3.org/2000/svg">
<g clip-path="url(#clip0_1329_49465)">
<path fill-rule="evenodd" clip-rule="evenodd" d="M81.5 56.125C70.2817 56.125 61.1875 65.2192 61.1875 76.4375C61.1875 87.6558 70.2817 96.75 81.5 96.75C92.7183 96.75 101.812 87.6558 101.812 76.4375C101.812 65.2192 92.7183 56.125 81.5 56.125ZM51.1875 76.4375C51.1875 59.6964 64.7589 46.125 81.5 46.125C98.2411 46.125 111.812 59.6964 111.812 76.4375C111.812 93.1786 98.2411 106.75 81.5 106.75C64.7589 106.75 51.1875 93.1786 51.1875 76.4375Z" fill="#004ACB"/>
<path fill-rule="evenodd" clip-rule="evenodd" d="M81.5002 106.746C74.0095 106.746 66.6652 108.82 60.2812 112.739C53.8972 116.657 48.7229 122.267 45.332 128.946C44.0819 131.409 41.0724 132.391 38.6102 131.141C36.1479 129.891 35.1652 126.882 36.4153 124.419C40.6423 116.094 47.0921 109.101 55.05 104.216C63.0078 99.3317 72.1628 96.7461 81.5002 96.7461C90.8376 96.7461 99.9925 99.3317 107.95 104.216C115.908 109.101 122.358 116.094 126.585 124.419C127.835 126.882 126.852 129.891 124.39 131.141C121.928 132.391 118.918 131.409 117.668 128.946C114.277 122.267 109.103 116.657 102.719 112.739C96.3352 108.82 88.9909 106.746 81.5002 106.746Z" fill="#004ACB"/>
<path fill-rule="evenodd" clip-rule="evenodd" d="M81.1611 96.7471C81.2738 96.7489 81.3868 96.7498 81.4999 96.7498C81.6131 96.7498 81.7261 96.7489 81.8388 96.7471C88.1424 96.7893 94.3571 98.0094 100.17 100.319C95.1144 104.277 88.7697 106.665 81.8704 106.748C81.747 106.746 81.6236 106.746 81.5001 106.746C81.3766 106.746 81.2531 106.746 81.1296 106.748C74.2303 106.665 67.8856 104.278 62.8296 100.319C68.6429 98.0095 74.8576 96.7893 81.1611 96.7471Z" fill="#00B2FF"/>
<path fill-rule="evenodd" clip-rule="evenodd" d="M107 36.1875C107 33.4261 109.239 31.1875 112 31.1875H142.375C145.136 31.1875 147.375 33.4261 147.375 36.1875C147.375 38.9489 145.136 41.1875 142.375 41.1875H112C109.239 41.1875 107 38.9489 107 36.1875Z" fill="#004ACB"/>
<path fill-rule="evenodd" clip-rule="evenodd" d="M127.188 16C129.949 16 132.188 18.2386 132.188 21V51.375C132.188 54.1364 129.949 56.375 127.188 56.375C124.426 56.375 122.188 54.1364 122.188 51.375V21C122.188 18.2386 124.426 16 127.188 16Z" fill="#004ACB"/>
<path fill-rule="evenodd" clip-rule="evenodd" d="M122.062 40.9375V30.9375H132.062V40.9375H122.062Z" fill="#00B2FF"/>
<path d="M141.491 71.9446C142.002 75.104 142.256 78.2996 142.25 81.5001C142.25 93.5153 138.687 105.261 132.012 115.251C125.337 125.241 115.849 133.028 104.748 137.626C93.6474 142.224 81.4326 143.427 69.6483 141.083C57.8639 138.739 47.0393 132.953 38.5433 124.457C30.0472 115.961 24.2614 105.136 21.9173 93.3519C19.5733 81.5675 20.7763 69.3527 25.3743 58.2521C29.9724 47.1515 37.7589 37.6636 47.7491 30.9883C57.7394 24.313 69.4848 20.7501 81.5 20.7501C84.7005 20.7438 87.8962 20.9978 91.0555 21.5095" stroke="#004ACB" stroke-width="10" stroke-linecap="round" stroke-linejoin="round"/>
<path fill-rule="evenodd" clip-rule="evenodd" d="M37.8164 130.641C37.6291 130.474 37.4427 130.307 37.2571 130.138C35.8328 128.647 35.4288 126.363 36.4153 124.42C37.4429 122.396 38.602 120.45 39.8822 118.595C40.5906 119.39 41.3231 120.166 42.079 120.921C43.7241 122.566 45.4643 124.101 47.2879 125.518C46.5826 126.626 45.9296 127.769 45.332 128.947C44.0819 131.409 41.0724 132.392 38.6102 131.142C38.3254 130.997 38.0605 130.829 37.8164 130.641ZM125.744 130.137C125.558 130.306 125.371 130.474 125.183 130.641C124.94 130.829 124.675 130.997 124.39 131.142C121.928 132.392 118.918 131.409 117.668 128.947C117.071 127.769 116.418 126.626 115.712 125.518C118.382 123.443 120.862 121.126 123.118 118.595C124.398 120.45 125.557 122.396 126.585 124.42C127.572 126.363 127.168 128.646 125.744 130.137Z" fill="#00B2FF"/>
</g>
<defs>
<clipPath id="clip0_1329_49465">
<rect width="162" height="162" fill="white" transform="translate(0.5 0.5)"/>
</clipPath>
</defs>
</svg>
