<svg width="20" height="18" viewBox="0 0 20 18" fill="none" xmlns="http://www.w3.org/2000/svg">
<path fill-rule="evenodd" clip-rule="evenodd" d="M17.3332 0.75H2.66658C1.65825 0.75 0.833252 1.575 0.833252 2.58333V15.4167C0.833252 16.425 1.65825 17.25 2.66658 17.25H17.3332C18.3416 17.25 19.1666 16.425 19.1666 15.4167V2.58333C19.1666 1.575 18.3416 0.75 17.3332 0.75ZM17.3332 15.4167H2.66658V2.58333H17.3332V15.4167Z" fill="#1A3B97"/>
<path fill-rule="evenodd" clip-rule="evenodd" d="M16.7925 7.55167L15.4908 6.25L12.585 9.15583L11.2925 7.85417L10 9.14667L12.585 11.75L16.7925 7.55167Z" fill="#1A3B97"/>
<path d="M8.16658 4.41663H3.58325V6.24996H8.16658V4.41663Z" fill="#1A3B97"/>
<path d="M8.16658 8.08337H3.58325V9.91671H8.16658V8.08337Z" fill="#1A3B97"/>
<path d="M8.16658 11.75H3.58325V13.5833H8.16658V11.75Z" fill="#1A3B97"/>
</svg>
