<svg width="16" height="16" viewBox="0 0 16 16" fill="none" xmlns="http://www.w3.org/2000/svg">
<g clip-path="url(#clip0_938_47326)">
<path d="M6.125 9.25H9.875" stroke="#747EA5" stroke-linecap="round" stroke-linejoin="round"/>
<path d="M15.5 4.875V13.6953C15.5 13.8424 15.4416 13.9835 15.3375 14.0875C15.2335 14.1916 15.0924 14.25 14.9453 14.25H1.125C0.95924 14.25 0.800269 14.1842 0.683058 14.0669C0.565848 13.9497 0.5 13.7908 0.5 13.625V3C0.5 2.83424 0.565848 2.67527 0.683058 2.55806C0.800269 2.44085 0.95924 2.375 1.125 2.375H5.28906C5.4242 2.37556 5.55562 2.41936 5.66406 2.5L7.83594 4.125C7.94438 4.20564 8.0758 4.24944 8.21094 4.25H14.875C15.0408 4.25 15.1997 4.31585 15.3169 4.43306C15.4342 4.55027 15.5 4.70924 15.5 4.875Z" stroke="#747EA5" stroke-linecap="round" stroke-linejoin="round"/>
</g>
<defs>
<clipPath id="clip0_938_47326">
<rect width="16" height="16" fill="white"/>
</clipPath>
</defs>
</svg>
