<svg width="30" height="30" viewBox="0 0 30 30" fill="none" xmlns="http://www.w3.org/2000/svg">
<g clip-path="url(#clip0_1761_4972)">
<path d="M25.0078 12.8437L15.6328 4.32416C15.46 4.16606 15.2342 4.07837 15 4.07837C14.7658 4.07837 14.54 4.16606 14.3672 4.32416L4.99219 12.8437C4.89785 12.9328 4.82229 13.0399 4.76996 13.1586C4.71764 13.2773 4.6896 13.4054 4.6875 13.5351V24.3749C4.6875 24.6236 4.78627 24.862 4.96209 25.0379C5.1379 25.2137 5.37636 25.3124 5.625 25.3124H24.375C24.6236 25.3124 24.8621 25.2137 25.0379 25.0379C25.2137 24.862 25.3125 24.6236 25.3125 24.3749V13.5351C25.3104 13.4054 25.2824 13.2773 25.23 13.1586C25.1777 13.0399 25.1022 12.9328 25.0078 12.8437V12.8437Z" stroke="white" stroke-width="3" stroke-linecap="round" stroke-linejoin="round"/>
</g>
<defs>
<clipPath id="clip0_1761_4972">
<rect width="30" height="30" fill="white"/>
</clipPath>
</defs>
</svg>
