<svg width="53" height="53" viewBox="0 0 53 53" fill="none" xmlns="http://www.w3.org/2000/svg">
<path opacity="0.1" d="M40.1759 35.3548H37.6367L36.7368 34.487C39.8866 30.8229 41.7829 26.0661 41.7829 20.8914C41.7829 9.35294 32.43 0 20.8914 0C9.35294 0 0 9.35294 0 20.8914C0 32.43 9.35294 41.7829 20.8914 41.7829C26.0661 41.7829 30.8229 39.8866 34.487 36.7368L35.3548 37.6367V40.1759L48.211 53L53 48.211L40.1759 35.3548ZM20.8914 35.3548C12.8884 35.3548 6.42814 28.8945 6.42814 20.8914C6.42814 12.8884 12.8884 6.42814 20.8914 6.42814C28.8945 6.42814 35.3548 12.8884 35.3548 20.8914C35.3548 28.8945 28.8945 35.3548 20.8914 35.3548Z" fill="#0F2248"/>
</svg>
