<svg width="300" height="90" viewBox="0 0 300 90" fill="none" xmlns="http://www.w3.org/2000/svg">
<g clip-path="url(#clip0_543_5598)">
<path d="M2.5 13.75L10 18.125L17.5 13.75" stroke="#A5AECA" stroke-width="1.6" stroke-linecap="round" stroke-linejoin="round"/>
<path d="M2.14282 10L9.64282 14.375L17.1428 10" stroke="#A5AECA" stroke-width="1.6" stroke-linecap="round" stroke-linejoin="round"/>
<path d="M2.14282 5.80371L9.64282 10.1787L17.1428 5.80371L9.64282 1.42871L2.14282 5.80371Z" stroke="#A5AECA" stroke-width="1.6" stroke-linecap="round" stroke-linejoin="round"/>
</g>
<g clip-path="url(#clip1_543_5598)">
<path d="M250.5 4.375H235.5C235.155 4.375 234.875 4.65482 234.875 5V6.875C234.875 7.22018 235.155 7.5 235.5 7.5H250.5C250.845 7.5 251.125 7.22018 251.125 6.875V5C251.125 4.65482 250.845 4.375 250.5 4.375Z" stroke="#A5AECA" stroke-width="1.6" stroke-linecap="round" stroke-linejoin="round"/>
<path d="M249.875 7.5V15C249.875 15.1658 249.809 15.3247 249.692 15.4419C249.575 15.5592 249.416 15.625 249.25 15.625H236.75C236.584 15.625 236.425 15.5592 236.308 15.4419C236.191 15.3247 236.125 15.1658 236.125 15V7.5" stroke="#A5AECA" stroke-width="1.6" stroke-linecap="round" stroke-linejoin="round"/>
<path d="M241.125 10.625H244.875" stroke="#A5AECA" stroke-width="1.6" stroke-linecap="round" stroke-linejoin="round"/>
</g>
<g clip-path="url(#clip2_543_5598)">
<path d="M35.5 11.875H40.5" stroke="#A5AECA" stroke-width="1.6" stroke-linecap="round" stroke-linejoin="round"/>
<path d="M35.5 9.375H40.5" stroke="#A5AECA" stroke-width="1.6" stroke-linecap="round" stroke-linejoin="round"/>
<path d="M40.5 3.125H43.625C43.7908 3.125 43.9497 3.19085 44.0669 3.30806C44.1842 3.42527 44.25 3.58424 44.25 3.75V16.875C44.25 17.0408 44.1842 17.1997 44.0669 17.3169C43.9497 17.4342 43.7908 17.5 43.625 17.5H32.375C32.2092 17.5 32.0503 17.4342 31.9331 17.3169C31.8158 17.1997 31.75 17.0408 31.75 16.875V3.75C31.75 3.58424 31.8158 3.42527 31.9331 3.30806C32.0503 3.19085 32.2092 3.125 32.375 3.125H35.5" stroke="#A5AECA" stroke-width="1.6" stroke-linecap="round" stroke-linejoin="round"/>
<path d="M34.875 5.625V5C34.875 4.1712 35.2042 3.37634 35.7903 2.79029C36.3763 2.20424 37.1712 1.875 38 1.875C38.8288 1.875 39.6237 2.20424 40.2097 2.79029C40.7958 3.37634 41.125 4.1712 41.125 5V5.625H34.875Z" stroke="#A5AECA" stroke-width="1.6" stroke-linecap="round" stroke-linejoin="round"/>
</g>
<g clip-path="url(#clip3_543_5598)">
<path d="M63.3125 16.875C64.5206 16.875 65.5 15.8956 65.5 14.6875C65.5 13.4794 64.5206 12.5 63.3125 12.5C62.1044 12.5 61.125 13.4794 61.125 14.6875C61.125 15.8956 62.1044 16.875 63.3125 16.875Z" stroke="#A5AECA" stroke-width="1.6" stroke-linecap="round" stroke-linejoin="round"/>
<path d="M72.6875 7.5C73.8956 7.5 74.875 6.52062 74.875 5.3125C74.875 4.10438 73.8956 3.125 72.6875 3.125C71.4794 3.125 70.5 4.10438 70.5 5.3125C70.5 6.52062 71.4794 7.5 72.6875 7.5Z" stroke="#A5AECA" stroke-width="1.6" stroke-linecap="round" stroke-linejoin="round"/>
<path d="M63.3125 7.5C64.5206 7.5 65.5 6.52062 65.5 5.3125C65.5 4.10438 64.5206 3.125 63.3125 3.125C62.1044 3.125 61.125 4.10438 61.125 5.3125C61.125 6.52062 62.1044 7.5 63.3125 7.5Z" stroke="#A5AECA" stroke-width="1.6" stroke-linecap="round" stroke-linejoin="round"/>
<path d="M63.3125 12.5V11.875C63.3115 11.6285 63.3593 11.3842 63.4531 11.1562C63.547 10.9283 63.6851 10.7212 63.8594 10.5469C64.0337 10.3726 64.2408 10.2345 64.4688 10.1406C64.6967 10.0468 64.941 9.99897 65.1875 10H70.8125C71.059 10.001 71.3033 9.95324 71.5313 9.85938C71.7592 9.76552 71.9663 9.62745 72.1406 9.45313C72.315 9.27881 72.453 9.0717 72.5469 8.84375C72.6408 8.6158 72.6885 8.37152 72.6875 8.125V7.5" stroke="#A5AECA" stroke-width="1.6" stroke-linecap="round" stroke-linejoin="round"/>
<path d="M63.3125 7.5V12.5" stroke="#A5AECA" stroke-width="1.6" stroke-linecap="round" stroke-linejoin="round"/>
</g>
<g clip-path="url(#clip4_543_5598)">
<path d="M91 8.21094V3.625C91 3.45924 91.0658 3.30027 91.1831 3.18306C91.3003 3.06585 91.4592 3 91.625 3H104.125C104.291 3 104.45 3.06585 104.567 3.18306C104.684 3.30027 104.75 3.45924 104.75 3.625V8.21094C104.75 14.7734 99.1797 16.9453 98.0703 17.3125C97.9443 17.3592 97.8057 17.3592 97.6797 17.3125C96.5703 16.9453 91 14.7734 91 8.21094Z" stroke="#A5AECA" stroke-width="1.6" stroke-linecap="round" stroke-linejoin="round"/>
<path d="M101.438 8.125L96.8516 12.5L94.5625 10.3125" stroke="#A5AECA" stroke-width="1.6" stroke-linecap="round" stroke-linejoin="round"/>
</g>
<g clip-path="url(#clip5_543_5598)">
<path d="M134.875 3.75H121.125C120.78 3.75 120.5 4.02982 120.5 4.375V13.75C120.5 14.0952 120.78 14.375 121.125 14.375H134.875C135.22 14.375 135.5 14.0952 135.5 13.75V4.375C135.5 4.02982 135.22 3.75 134.875 3.75Z" stroke="#A5AECA" stroke-width="1.6" stroke-linecap="round" stroke-linejoin="round"/>
<path d="M130.5 14.375L133 17.5" stroke="#A5AECA" stroke-width="1.6" stroke-linecap="round" stroke-linejoin="round"/>
<path d="M125.5 14.375L123 17.5" stroke="#A5AECA" stroke-width="1.6" stroke-linecap="round" stroke-linejoin="round"/>
<path d="M125.5 9.375V11.25" stroke="#A5AECA" stroke-width="1.6" stroke-linecap="round" stroke-linejoin="round"/>
<path d="M128 8.125V11.25" stroke="#A5AECA" stroke-width="1.6" stroke-linecap="round" stroke-linejoin="round"/>
<path d="M130.143 7.14307V11.5181" stroke="#A5AECA" stroke-width="1.6" stroke-linecap="round" stroke-linejoin="round"/>
<path d="M128 3.75V1.875" stroke="#A5AECA" stroke-width="1.6" stroke-linecap="round" stroke-linejoin="round"/>
</g>
<path d="M158.102 9.84694L152.938 5.97422C152.854 5.91049 152.786 5.82833 152.739 5.73409C152.692 5.63985 152.667 5.53605 152.667 5.43068V2.37327C152.667 2.19308 152.738 2.02026 152.866 1.89285C152.993 1.76543 153.166 1.69385 153.346 1.69385H162.858C163.038 1.69385 163.211 1.76543 163.338 1.89285C163.466 2.02026 163.537 2.19308 163.537 2.37327V5.39671C163.537 5.50207 163.512 5.60588 163.465 5.70012C163.418 5.79436 163.349 5.87652 163.266 5.94025L158.102 9.84694Z" stroke="#A5AECA" stroke-width="1.6" stroke-linecap="round" stroke-linejoin="round"/>
<path d="M158.102 9.84668L152.938 13.7194C152.854 13.7831 152.786 13.8653 152.739 13.9595C152.692 14.0538 152.667 14.1576 152.667 14.2629V17.3204C152.667 17.5005 152.738 17.6734 152.866 17.8008C152.993 17.9282 153.166 17.9998 153.346 17.9998H162.858C163.038 17.9998 163.211 17.9282 163.338 17.8008C163.466 17.6734 163.537 17.5005 163.537 17.3204V14.2969C163.537 14.1915 163.512 14.0877 163.465 13.9935C163.418 13.8993 163.349 13.8171 163.266 13.7534L158.102 9.84668Z" stroke="#A5AECA" stroke-width="1.6" stroke-linecap="round" stroke-linejoin="round"/>
<path d="M153.575 6.44971H162.595" stroke="#A5AECA" stroke-width="1.6" stroke-linecap="round" stroke-linejoin="round"/>
<path d="M158.102 13.2438V9.84668" stroke="#A5AECA" stroke-width="1.6" stroke-linecap="round" stroke-linejoin="round"/>
<path d="M194.417 3H181.583C181.261 3 181 3.3134 181 3.7V16.3C181 16.6866 181.261 17 181.583 17H194.417C194.739 17 195 16.6866 195 16.3V3.7C195 3.3134 194.739 3 194.417 3Z" stroke="#A5AECA" stroke-width="1.6" stroke-linecap="round" stroke-linejoin="round"/>
<path d="M184 7H192.125" stroke="#A5AECA" stroke-width="1.6" stroke-linecap="round" stroke-linejoin="round"/>
<path d="M184 10H192.125" stroke="#A5AECA" stroke-width="1.6" stroke-linecap="round" stroke-linejoin="round"/>
<path d="M184 13H192.125" stroke="#A5AECA" stroke-width="1.6" stroke-linecap="round" stroke-linejoin="round"/>
<g clip-path="url(#clip6_543_5598)">
<path d="M221.75 11.25L224.25 13.75L221.75 16.25" stroke="#A5AECA" stroke-width="1.6" stroke-linecap="round" stroke-linejoin="round"/>
<path d="M211.75 13.75H224.25" stroke="#A5AECA" stroke-width="1.6" stroke-linecap="round" stroke-linejoin="round"/>
<path d="M214.25 8.75L211.75 6.25L214.25 3.75" stroke="#A5AECA" stroke-width="1.6" stroke-linecap="round" stroke-linejoin="round"/>
<path d="M224.25 6.25H211.75" stroke="#A5AECA" stroke-width="1.6" stroke-linecap="round" stroke-linejoin="round"/>
</g>
<g clip-path="url(#clip7_543_5598)">
<path d="M2.5 43.75L10 48.125L17.5 43.75" stroke="white" stroke-width="1.6" stroke-linecap="round" stroke-linejoin="round"/>
<path d="M2 40L9.5 44.375L17 40" stroke="white" stroke-width="1.6" stroke-linecap="round" stroke-linejoin="round"/>
<path d="M2.14282 35.8037L9.64282 40.1787L17.1428 35.8037L9.64282 31.4287L2.14282 35.8037Z" stroke="white" stroke-width="1.6" stroke-linecap="round" stroke-linejoin="round"/>
</g>
<g clip-path="url(#clip8_543_5598)">
<path d="M250.5 34.375H235.5C235.155 34.375 234.875 34.6548 234.875 35V36.875C234.875 37.2202 235.155 37.5 235.5 37.5H250.5C250.845 37.5 251.125 37.2202 251.125 36.875V35C251.125 34.6548 250.845 34.375 250.5 34.375Z" stroke="white" stroke-width="1.6" stroke-linecap="round" stroke-linejoin="round"/>
<path d="M249.875 37.5V45C249.875 45.1658 249.809 45.3247 249.692 45.4419C249.575 45.5592 249.416 45.625 249.25 45.625H236.75C236.584 45.625 236.425 45.5592 236.308 45.4419C236.191 45.3247 236.125 45.1658 236.125 45V37.5" stroke="white" stroke-width="1.6" stroke-linecap="round" stroke-linejoin="round"/>
<path d="M241.125 40.625H244.875" stroke="white" stroke-width="1.6" stroke-linecap="round" stroke-linejoin="round"/>
</g>
<g clip-path="url(#clip9_543_5598)">
<path d="M35.5 41.875H40.5" stroke="white" stroke-width="1.6" stroke-linecap="round" stroke-linejoin="round"/>
<path d="M35.5 39.375H40.5" stroke="white" stroke-width="1.6" stroke-linecap="round" stroke-linejoin="round"/>
<path d="M40.5 33.125H43.625C43.7908 33.125 43.9497 33.1908 44.0669 33.3081C44.1842 33.4253 44.25 33.5842 44.25 33.75V46.875C44.25 47.0408 44.1842 47.1997 44.0669 47.3169C43.9497 47.4342 43.7908 47.5 43.625 47.5H32.375C32.2092 47.5 32.0503 47.4342 31.9331 47.3169C31.8158 47.1997 31.75 47.0408 31.75 46.875V33.75C31.75 33.5842 31.8158 33.4253 31.9331 33.3081C32.0503 33.1908 32.2092 33.125 32.375 33.125H35.5" stroke="white" stroke-width="1.6" stroke-linecap="round" stroke-linejoin="round"/>
<path d="M34.875 35.625V35C34.875 34.1712 35.2042 33.3763 35.7903 32.7903C36.3763 32.2042 37.1712 31.875 38 31.875C38.8288 31.875 39.6237 32.2042 40.2097 32.7903C40.7958 33.3763 41.125 34.1712 41.125 35V35.625H34.875Z" stroke="white" stroke-width="1.6" stroke-linecap="round" stroke-linejoin="round"/>
</g>
<g clip-path="url(#clip10_543_5598)">
<path d="M63.3125 46.875C64.5206 46.875 65.5 45.8956 65.5 44.6875C65.5 43.4794 64.5206 42.5 63.3125 42.5C62.1044 42.5 61.125 43.4794 61.125 44.6875C61.125 45.8956 62.1044 46.875 63.3125 46.875Z" stroke="white" stroke-width="1.6" stroke-linecap="round" stroke-linejoin="round"/>
<path d="M72.6875 37.5C73.8956 37.5 74.875 36.5206 74.875 35.3125C74.875 34.1044 73.8956 33.125 72.6875 33.125C71.4794 33.125 70.5 34.1044 70.5 35.3125C70.5 36.5206 71.4794 37.5 72.6875 37.5Z" stroke="white" stroke-width="1.6" stroke-linecap="round" stroke-linejoin="round"/>
<path d="M63.3125 37.5C64.5206 37.5 65.5 36.5206 65.5 35.3125C65.5 34.1044 64.5206 33.125 63.3125 33.125C62.1044 33.125 61.125 34.1044 61.125 35.3125C61.125 36.5206 62.1044 37.5 63.3125 37.5Z" stroke="white" stroke-width="1.6" stroke-linecap="round" stroke-linejoin="round"/>
<path d="M63.3125 42.5V41.875C63.3115 41.6285 63.3593 41.3842 63.4531 41.1562C63.547 40.9283 63.6851 40.7212 63.8594 40.5469C64.0337 40.3726 64.2408 40.2345 64.4688 40.1406C64.6967 40.0468 64.941 39.999 65.1875 40H70.8125C71.059 40.001 71.3033 39.9532 71.5313 39.8594C71.7592 39.7655 71.9663 39.6274 72.1406 39.4531C72.315 39.2788 72.453 39.0717 72.5469 38.8438C72.6408 38.6158 72.6885 38.3715 72.6875 38.125V37.5" stroke="white" stroke-width="1.6" stroke-linecap="round" stroke-linejoin="round"/>
<path d="M63.3125 37.5V42.5" stroke="white" stroke-width="1.6" stroke-linecap="round" stroke-linejoin="round"/>
</g>
<g clip-path="url(#clip11_543_5598)">
<path d="M91 38.2109V33.625C91 33.4592 91.0658 33.3003 91.1831 33.1831C91.3003 33.0658 91.4592 33 91.625 33H104.125C104.291 33 104.45 33.0658 104.567 33.1831C104.684 33.3003 104.75 33.4592 104.75 33.625V38.2109C104.75 44.7734 99.1797 46.9453 98.0703 47.3125C97.9443 47.3592 97.8057 47.3592 97.6797 47.3125C96.5703 46.9453 91 44.7734 91 38.2109Z" stroke="white" stroke-width="1.6" stroke-linecap="round" stroke-linejoin="round"/>
<path d="M101.438 38.125L96.8516 42.5L94.5625 40.3125" stroke="white" stroke-width="1.6" stroke-linecap="round" stroke-linejoin="round"/>
</g>
<g clip-path="url(#clip12_543_5598)">
<path d="M134.875 33.75H121.125C120.78 33.75 120.5 34.0298 120.5 34.375V43.75C120.5 44.0952 120.78 44.375 121.125 44.375H134.875C135.22 44.375 135.5 44.0952 135.5 43.75V34.375C135.5 34.0298 135.22 33.75 134.875 33.75Z" stroke="white" stroke-width="1.6" stroke-linecap="round" stroke-linejoin="round"/>
<path d="M130.5 44.375L133 47.5" stroke="white" stroke-width="1.6" stroke-linecap="round" stroke-linejoin="round"/>
<path d="M125.5 44.375L123 47.5" stroke="white" stroke-width="1.6" stroke-linecap="round" stroke-linejoin="round"/>
<path d="M125.5 39.375V41.25" stroke="white" stroke-width="1.6" stroke-linecap="round" stroke-linejoin="round"/>
<path d="M128 38.125V41.25" stroke="white" stroke-width="1.6" stroke-linecap="round" stroke-linejoin="round"/>
<path d="M130.143 37.1431V41.5181" stroke="white" stroke-width="1.6" stroke-linecap="round" stroke-linejoin="round"/>
<path d="M128 33.75V31.875" stroke="white" stroke-width="1.6" stroke-linecap="round" stroke-linejoin="round"/>
</g>
<path d="M158.102 39.8469L152.938 35.9742C152.854 35.9105 152.786 35.8283 152.739 35.7341C152.692 35.6398 152.667 35.536 152.667 35.4307V32.3733C152.667 32.1931 152.738 32.0203 152.866 31.8928C152.993 31.7654 153.166 31.6938 153.346 31.6938H162.858C163.038 31.6938 163.211 31.7654 163.338 31.8928C163.466 32.0203 163.537 32.1931 163.537 32.3733V35.3967C163.537 35.5021 163.512 35.6059 163.465 35.7001C163.418 35.7944 163.349 35.8765 163.266 35.9403L158.102 39.8469Z" stroke="white" stroke-width="1.6" stroke-linecap="round" stroke-linejoin="round"/>
<path d="M158.102 39.8467L152.938 43.7194C152.854 43.7831 152.786 43.8653 152.739 43.9595C152.692 44.0538 152.667 44.1576 152.667 44.2629V47.3204C152.667 47.5005 152.738 47.6734 152.866 47.8008C152.993 47.9282 153.166 47.9998 153.346 47.9998H162.858C163.038 47.9998 163.211 47.9282 163.338 47.8008C163.466 47.6734 163.537 47.5005 163.537 47.3204V44.2969C163.537 44.1915 163.512 44.0877 163.465 43.9935C163.418 43.8993 163.349 43.8171 163.266 43.7534L158.102 39.8467Z" stroke="white" stroke-width="1.6" stroke-linecap="round" stroke-linejoin="round"/>
<path d="M153.575 36.4497H162.595" stroke="white" stroke-width="1.6" stroke-linecap="round" stroke-linejoin="round"/>
<path d="M158.102 43.2438V39.8467" stroke="white" stroke-width="1.6" stroke-linecap="round" stroke-linejoin="round"/>
<path d="M194.417 33H181.583C181.261 33 181 33.3134 181 33.7V46.3C181 46.6866 181.261 47 181.583 47H194.417C194.739 47 195 46.6866 195 46.3V33.7C195 33.3134 194.739 33 194.417 33Z" stroke="white" stroke-width="1.6" stroke-linecap="round" stroke-linejoin="round"/>
<path d="M184 37H192.125" stroke="white" stroke-width="1.6" stroke-linecap="round" stroke-linejoin="round"/>
<path d="M184 40H192.125" stroke="white" stroke-width="1.6" stroke-linecap="round" stroke-linejoin="round"/>
<path d="M184 43H192.125" stroke="white" stroke-width="1.6" stroke-linecap="round" stroke-linejoin="round"/>
<g clip-path="url(#clip13_543_5598)">
<path d="M221.75 41.25L224.25 43.75L221.75 46.25" stroke="white" stroke-width="1.6" stroke-linecap="round" stroke-linejoin="round"/>
<path d="M211.75 43.75H224.25" stroke="white" stroke-width="1.6" stroke-linecap="round" stroke-linejoin="round"/>
<path d="M214.25 38.75L211.75 36.25L214.25 33.75" stroke="white" stroke-width="1.6" stroke-linecap="round" stroke-linejoin="round"/>
<path d="M224.25 36.25H211.75" stroke="white" stroke-width="1.6" stroke-linecap="round" stroke-linejoin="round"/>
</g>
<defs>
<clipPath id="clip0_543_5598">
<rect width="20" height="20" fill="white"/>
</clipPath>
<clipPath id="clip1_543_5598">
<rect width="20" height="20" fill="white" transform="translate(233)"/>
</clipPath>
<clipPath id="clip2_543_5598">
<rect width="20" height="20" fill="white" transform="translate(28)"/>
</clipPath>
<clipPath id="clip3_543_5598">
<rect width="20" height="20" fill="white" transform="translate(58)"/>
</clipPath>
<clipPath id="clip4_543_5598">
<rect width="20" height="20" fill="white" transform="translate(88)"/>
</clipPath>
<clipPath id="clip5_543_5598">
<rect width="20" height="20" fill="white" transform="translate(118)"/>
</clipPath>
<clipPath id="clip6_543_5598">
<rect width="20" height="20" fill="white" transform="translate(208)"/>
</clipPath>
<clipPath id="clip7_543_5598">
<rect width="20" height="20" fill="white" transform="translate(0 30)"/>
</clipPath>
<clipPath id="clip8_543_5598">
<rect width="20" height="20" fill="white" transform="translate(233 30)"/>
</clipPath>
<clipPath id="clip9_543_5598">
<rect width="20" height="20" fill="white" transform="translate(28 30)"/>
</clipPath>
<clipPath id="clip10_543_5598">
<rect width="20" height="20" fill="white" transform="translate(58 30)"/>
</clipPath>
<clipPath id="clip11_543_5598">
<rect width="20" height="20" fill="white" transform="translate(88 30)"/>
</clipPath>
<clipPath id="clip12_543_5598">
<rect width="20" height="20" fill="white" transform="translate(118 30)"/>
</clipPath>
<clipPath id="clip13_543_5598">
<rect width="20" height="20" fill="white" transform="translate(208 30)"/>
</clipPath>
</defs>
</svg>
