<svg width="689" height="763" viewBox="0 0 689 763" fill="none" xmlns="http://www.w3.org/2000/svg">
<g style="mix-blend-mode:hard-light" opacity="0.4">
<path fill-rule="evenodd" clip-rule="evenodd" d="M605.247 278.821L764 348.703V169.437L605.247 99.0215V278.821ZM535.792 68.2148L382 0L0 169.437V426.369C0 677.798 163.555 789.582 382 863.221C490.733 826.567 585.866 780.461 653.998 712.387C547.464 737.264 428.336 720.474 329.636 660.725C285.913 639.374 252.856 616.834 228.69 592.531C193.898 557.543 168.675 510.394 168.675 426.369V279.144L382 184.523L535.792 252.738V68.2148ZM595.325 426.369V344.756L764 419.006V426.369C764 504.829 748.073 569.69 719.522 624.037C642.334 664.649 546.003 673.957 456.106 649.535C489.257 631.523 515.324 612.63 535.31 592.531C570.102 557.542 595.325 510.394 595.325 426.369Z" fill="url(#paint0_linear_665_42610)"/>
<path d="M605.241 99.2246L763.994 169.434V347.277L605.241 273.459V99.2246Z" fill="#00C5FF"/>
</g>
<defs>
<linearGradient id="paint0_linear_665_42610" x1="0" y1="0" x2="304.104" y2="889.842" gradientUnits="userSpaceOnUse">
<stop stop-color="#00C0FD"/>
<stop offset="0.46875" stop-color="#0093FD"/>
<stop offset="1" stop-color="#0046CF"/>
</linearGradient>
</defs>
</svg>
