<svg width="26" height="27" viewBox="0 0 26 27" fill="none" xmlns="http://www.w3.org/2000/svg">
<g clip-path="url(#clip0_1275_43866)">
<path d="M15.8058 9.16699L13 11.9728L10.1941 9.16699L8.66663 10.6945L11.4725 13.5003L8.66663 16.3062L10.1941 17.8337L13 15.0278L15.8058 17.8337L17.3333 16.3062L14.5275 13.5003L17.3333 10.6945L15.8058 9.16699ZM13 2.66699C7.00913 2.66699 2.16663 7.50949 2.16663 13.5003C2.16663 19.4912 7.00913 24.3337 13 24.3337C18.9908 24.3337 23.8333 19.4912 23.8333 13.5003C23.8333 7.50949 18.9908 2.66699 13 2.66699ZM13 22.167C8.22246 22.167 4.33329 18.2778 4.33329 13.5003C4.33329 8.72283 8.22246 4.83366 13 4.83366C17.7775 4.83366 21.6666 8.72283 21.6666 13.5003C21.6666 18.2778 17.7775 22.167 13 22.167Z" fill="white"/>
</g>
<defs>
<clipPath id="clip0_1275_43866">
<rect width="26" height="26" fill="white" transform="translate(0 0.5)"/>
</clipPath>
</defs>
</svg>
