<svg width="48" height="48" viewBox="0 0 48 48" fill="none" xmlns="http://www.w3.org/2000/svg">
<rect width="48" height="48" rx="10" fill="#ECF0FF"/>
<g clip-path="url(#clip0_410_6411)">
<path d="M33.3332 12.333H14.6666C13.3833 12.333 12.3449 13.383 12.3449 14.6663L12.3333 35.6663L16.9999 30.9997H33.3332C34.6166 30.9997 35.6666 29.9497 35.6666 28.6663V14.6663C35.6666 13.383 34.6166 12.333 33.3332 12.333ZM33.3332 28.6663H16.0316L15.3433 29.3547L14.6666 30.0313V14.6663H33.3332V28.6663ZM16.9999 23.9997H19.3333V26.333H16.9999V23.9997ZM16.9999 20.4997H19.3333V22.833H16.9999V20.4997ZM16.9999 16.9997H19.3333V19.333H16.9999V16.9997ZM21.6666 23.9997H27.4999V26.333H21.6666V23.9997ZM21.6666 20.4997H30.9999V22.833H21.6666V20.4997ZM21.6666 16.9997H30.9999V19.333H21.6666V16.9997Z" fill="#0057FF"/>
</g>
<defs>
<clipPath id="clip0_410_6411">
<rect width="28" height="28" fill="white" transform="translate(10 10)"/>
</clipPath>
</defs>
</svg>
