<svg width="8" height="11" viewBox="0 0 8 11" fill="none" xmlns="http://www.w3.org/2000/svg">
<path d="M6.05194 5.41643L6.7554 6.12717L7.4735 5.41643L6.75539 4.70569L6.05194 5.41643ZM1.26515 8.74716C0.872622 9.13567 0.86936 9.76883 1.25787 10.1614C1.64637 10.5539 2.27953 10.5572 2.67206 10.1686L1.26515 8.74716ZM2.67206 0.664256C2.27953 0.275751 1.64637 0.279016 1.25786 0.671549C0.869359 1.06408 0.872624 1.69724 1.26516 2.08574L2.67206 0.664256ZM5.34849 4.70569L1.26515 8.74716L2.67206 10.1686L6.7554 6.12717L5.34849 4.70569ZM1.26516 2.08574L5.34849 6.12717L6.75539 4.70569L2.67206 0.664256L1.26516 2.08574Z" fill="white"/>
</svg>
