<svg width="26" height="26" viewBox="0 0 26 26" fill="none" xmlns="http://www.w3.org/2000/svg">
<g clip-path="url(#clip0_573_8444)">
<path d="M13.0001 2.16699C7.02008 2.16699 2.16675 7.02033 2.16675 13.0003C2.16675 18.9803 7.02008 23.8337 13.0001 23.8337C18.9801 23.8337 23.8334 18.9803 23.8334 13.0003C23.8334 7.02033 18.9801 2.16699 13.0001 2.16699ZM13.0001 21.667C8.22258 21.667 4.33341 17.7778 4.33341 13.0003C4.33341 8.22283 8.22258 4.33366 13.0001 4.33366C17.7776 4.33366 21.6667 8.22283 21.6667 13.0003C21.6667 17.7778 17.7776 21.667 13.0001 21.667ZM17.9726 8.21199L10.8334 15.3512L8.02758 12.5562L6.50008 14.0837L10.8334 18.417L19.5001 9.75033L17.9726 8.21199Z" fill="white"/>
</g>
<defs>
<clipPath id="clip0_573_8444">
<rect width="26" height="26" fill="white"/>
</clipPath>
</defs>
</svg>
