<svg width="52" height="52" viewBox="0 0 52 52" fill="none" xmlns="http://www.w3.org/2000/svg">
<rect width="52" height="52" rx="10" fill="#E2E8FB"/>
<g clip-path="url(#clip0_856_48318)">
<path d="M31.8333 18C28.3533 18.9333 24.2733 19.3333 20.5 19.3333C16.7267 19.3333 12.6467 18.9333 9.16667 18L8.5 20.6666C10.98 21.3333 13.8333 21.7733 16.5 22V39.3333H19.1667V31.3333H21.8333V39.3333H24.5V22C27.1667 21.7733 30.02 21.3333 32.5 20.6666L31.8333 18ZM20.5 18C21.9667 18 23.1667 16.8 23.1667 15.3333C23.1667 13.8666 21.9667 12.6666 20.5 12.6666C19.0333 12.6666 17.8333 13.8666 17.8333 15.3333C17.8333 16.8 19.0333 18 20.5 18Z" fill="white"/>
</g>
<g clip-path="url(#clip1_856_48318)">
<path d="M42.8333 18C39.3533 18.9333 35.2733 19.3333 31.5 19.3333C27.7267 19.3333 23.6467 18.9333 20.1667 18L19.5 20.6666C21.98 21.3333 24.8333 21.7733 27.5 22V39.3333H30.1667V31.3333H32.8333V39.3333H35.5V22C38.1667 21.7733 41.02 21.3333 43.5 20.6666L42.8333 18ZM31.5 18C32.9667 18 34.1667 16.8 34.1667 15.3333C34.1667 13.8666 32.9667 12.6666 31.5 12.6666C30.0333 12.6666 28.8333 13.8666 28.8333 15.3333C28.8333 16.8 30.0333 18 31.5 18Z" fill="#0057FF"/>
</g>
<defs>
<clipPath id="clip0_856_48318">
<rect width="32" height="32" fill="white" transform="translate(4.5 10)"/>
</clipPath>
<clipPath id="clip1_856_48318">
<rect width="32" height="32" fill="white" transform="translate(15.5 10)"/>
</clipPath>
</defs>
</svg>
