<svg width="20" height="21" viewBox="0 0 20 21" fill="none" xmlns="http://www.w3.org/2000/svg">
<path fill-rule="evenodd" clip-rule="evenodd" d="M3.75 4.125C3.68096 4.125 3.625 4.18096 3.625 4.25V16.75C3.625 16.819 3.68096 16.875 3.75 16.875H16.25C16.319 16.875 16.375 16.819 16.375 16.75V4.25C16.375 4.18096 16.319 4.125 16.25 4.125H3.75ZM2.625 4.25C2.625 3.62868 3.12868 3.125 3.75 3.125H16.25C16.8713 3.125 17.375 3.62868 17.375 4.25V16.75C17.375 17.3713 16.8713 17.875 16.25 17.875H3.75C3.12868 17.875 2.625 17.3713 2.625 16.75V4.25Z" fill="#747EA5"/>
<path fill-rule="evenodd" clip-rule="evenodd" d="M13.75 1.875C14.0261 1.875 14.25 2.09886 14.25 2.375V4.875C14.25 5.15114 14.0261 5.375 13.75 5.375C13.4739 5.375 13.25 5.15114 13.25 4.875V2.375C13.25 2.09886 13.4739 1.875 13.75 1.875Z" fill="#747EA5"/>
<path fill-rule="evenodd" clip-rule="evenodd" d="M6.25 1.875C6.52614 1.875 6.75 2.09886 6.75 2.375V4.875C6.75 5.15114 6.52614 5.375 6.25 5.375C5.97386 5.375 5.75 5.15114 5.75 4.875V2.375C5.75 2.09886 5.97386 1.875 6.25 1.875Z" fill="#747EA5"/>
<path fill-rule="evenodd" clip-rule="evenodd" d="M2.625 7.375C2.625 7.09886 2.84886 6.875 3.125 6.875H16.875C17.1511 6.875 17.375 7.09886 17.375 7.375C17.375 7.65114 17.1511 7.875 16.875 7.875H3.125C2.84886 7.875 2.625 7.65114 2.625 7.375Z" fill="#747EA5"/>
</svg>
