<svg width="26" height="27" viewBox="0 0 26 27" fill="none" xmlns="http://www.w3.org/2000/svg">
<g clip-path="url(#clip0_1275_3968)">
<path d="M20.15 21.6249H22.75V23.7915H16.25V17.2915H18.4166V20.249C20.3991 18.6565 21.6666 16.2299 21.6666 13.4999C21.6666 9.0907 18.3516 5.43987 14.0833 4.90904V2.7207C19.5541 3.26237 23.8333 7.87737 23.8333 13.4999C23.8333 16.739 22.4033 19.6424 20.15 21.6249ZM4.33329 13.4999C4.33329 10.7699 5.60079 8.33237 7.58329 6.7507V9.7082H9.74996V3.2082H3.24996V5.37487H5.84996C3.59663 7.35737 2.16663 10.2607 2.16663 13.4999C2.16663 19.1224 6.44579 23.7374 11.9166 24.279V22.0907C7.64829 21.5599 4.33329 17.909 4.33329 13.4999ZM17.5933 9.2857L11.4616 15.4174L8.39579 12.3515L6.86829 13.879L11.4616 18.4724L19.1208 10.8132L17.5933 9.2857Z" fill="white"/>
</g>
<defs>
<clipPath id="clip0_1275_3968">
<rect width="26" height="26" fill="white" transform="translate(0 0.5)"/>
</clipPath>
</defs>
</svg>
