<svg width="48" height="48" viewBox="0 0 48 48" fill="none" xmlns="http://www.w3.org/2000/svg">
<rect width="48" height="48" rx="10" fill="#E2E8FB"/>
<g clip-path="url(#clip0_422_1385)">
<path d="M24 13.722L32.1667 17.3503V22.8337C32.1667 28.107 28.69 32.972 24 34.4187C19.31 32.972 15.8333 28.107 15.8333 22.8337V17.3503L24 13.722ZM24 11.167L13.5 15.8337V22.8337C13.5 29.3087 17.98 35.3637 24 36.8337C30.02 35.3637 34.5 29.3087 34.5 22.8337V15.8337L24 11.167ZM22.8333 18.167H25.1667V20.5003H22.8333V18.167ZM22.8333 22.8337H25.1667V29.8337H22.8333V22.8337Z" fill="#0057FF"/>
</g>
<defs>
<clipPath id="clip0_422_1385">
<rect width="28" height="28" fill="white" transform="translate(10 10)"/>
</clipPath>
</defs>
</svg>
