<svg width="22" height="22" viewBox="0 0 22 22" fill="none" xmlns="http://www.w3.org/2000/svg">
<g clip-path="url(#clip0_856_48305)">
<path d="M18.3333 5.5V18.3333H5.5V20.1667H18.3333C19.3417 20.1667 20.1667 19.3417 20.1667 18.3333V5.5H18.3333Z" fill="#333333"/>
<path d="M14.6667 1.83337H3.66668C2.65834 1.83337 1.83334 2.65837 1.83334 3.66671V14.6667C1.83334 15.675 2.65834 16.5 3.66668 16.5H14.6667C15.675 16.5 16.5 15.675 16.5 14.6667V3.66671C16.5 2.65837 15.675 1.83337 14.6667 1.83337ZM8.25001 14.6667H3.66668V10.0834H8.25001V14.6667ZM14.6667 14.6667H10.0833V10.0834H14.6667V14.6667ZM14.6667 8.25004H3.66668V3.66671H14.6667V8.25004Z" fill="#333333"/>
</g>
<defs>
<clipPath id="clip0_856_48305">
<rect width="22" height="22" fill="white"/>
</clipPath>
</defs>
</svg>
